<?xml version="1.0" encoding="UTF-8" standalone="no"?>
<!DOCTYPE svg PUBLIC "-//W3C//DTD SVG 1.1//EN"
 "http://www.w3.org/Graphics/SVG/1.1/DTD/svg11.dtd">
<!-- Generated by graphviz version 2.43.0 (0)
 -->
<!-- Title: UartCommandParser::ProcessUartCommands Pages: 1 -->
<svg width="392pt" height="38pt"
 viewBox="0.00 0.00 392.00 38.00" xmlns="http://www.w3.org/2000/svg" xmlns:xlink="http://www.w3.org/1999/xlink">
<g id="graph0" class="graph" transform="scale(1 1) rotate(0) translate(4 34)">
<title>UartCommandParser::ProcessUartCommands</title>
<!-- Node1 -->
<g id="Node000001" class="node">
<title>Node1</title>
<g id="a_Node000001"><a xlink:title="Poll the UART for input and process complete lines.">
<polygon fill="#999999" stroke="#666666" points="384,-30 253,-30 253,0 384,0 384,-30"/>
<text text-anchor="start" x="261" y="-18" font-family="Helvetica,sans-Serif" font-size="10.00">UartCommandParser::</text>
<text text-anchor="middle" x="318.5" y="-7" font-family="Helvetica,sans-Serif" font-size="10.00">ProcessUartCommands</text>
</a>
</g>
</g>
<!-- Node2 -->
<g id="Node000002" class="node">
<title>Node2</title>
<g id="a_Node000002"><a xlink:href="main_8cpp.html#a5a8d7cdba17444119b8f942be87ffe68" target="_top" xlink:title="FreeRTOS task: poll UART and process commands.">
<polygon fill="white" stroke="#666666" points="217,-24.5 101,-24.5 101,-5.5 217,-5.5 217,-24.5"/>
<text text-anchor="middle" x="159" y="-12.5" font-family="Helvetica,sans-Serif" font-size="10.00">uart_command_task</text>
</a>
</g>
</g>
<!-- Node1&#45;&gt;Node2 -->
<g id="edge1_Node000001_Node000002" class="edge">
<title>Node1&#45;&gt;Node2</title>
<g id="a_edge1_Node000001_Node000002"><a xlink:title=" ">
<path fill="none" stroke="#63b8ff" d="M242.87,-15C234.2,-15 225.47,-15 217.09,-15"/>
<polygon fill="#63b8ff" stroke="#63b8ff" points="242.98,-18.5 252.98,-15 242.98,-11.5 242.98,-18.5"/>
</a>
</g>
</g>
<!-- Node3 -->
<g id="Node000003" class="node">
<title>Node3</title>
<g id="a_Node000003"><a xlink:href="main_8cpp.html#abce06be17fc37d675118a678a8100a36" target="_top" xlink:title=" ">
<polygon fill="white" stroke="#666666" points="65,-24.5 0,-24.5 0,-5.5 65,-5.5 65,-24.5"/>
<text text-anchor="middle" x="32.5" y="-12.5" font-family="Helvetica,sans-Serif" font-size="10.00">app_main</text>
</a>
</g>
</g>
<!-- Node2&#45;&gt;Node3 -->
<g id="edge2_Node000002_Node000003" class="edge">
<title>Node2&#45;&gt;Node3</title>
<g id="a_edge2_Node000002_Node000003"><a xlink:title=" ">
<path fill="none" stroke="#63b8ff" d="M90.76,-15C81.84,-15 73.06,-15 65.16,-15"/>
<polygon fill="#63b8ff" stroke="#63b8ff" points="90.85,-18.5 100.85,-15 90.85,-11.5 90.85,-18.5"/>
</a>
</g>
</g>
</g>
</svg>
