<?xml version="1.0" encoding="UTF-8" standalone="no"?>
<!DOCTYPE svg PUBLIC "-//W3C//DTD SVG 1.1//EN"
 "http://www.w3.org/Graphics/SVG/1.1/DTD/svg11.dtd">
<!-- Generated by graphviz version 2.43.0 (0)
 -->
<!-- Title: settings.hpp Pages: 1 -->
<svg width="324pt" height="192pt"
 viewBox="0.00 0.00 323.94 192.00" xmlns="http://www.w3.org/2000/svg" xmlns:xlink="http://www.w3.org/1999/xlink">
<g id="graph0" class="graph" transform="scale(1 1) rotate(0) translate(4 188)">
<title>settings.hpp</title>
<!-- Node1 -->
<g id="Node000001" class="node">
<title>Node1</title>
<g id="a_Node000001"><a xlink:title="Settings storage for UI board.">
<polygon fill="#999999" stroke="#666666" points="186.44,-184 109.44,-184 109.44,-165 186.44,-165 186.44,-184"/>
<text text-anchor="middle" x="147.94" y="-172" font-family="Helvetica,sans-Serif" font-size="10.00">settings.hpp</text>
</a>
</g>
</g>
<!-- Node2 -->
<g id="Node000002" class="node">
<title>Node2</title>
<g id="a_Node000002"><a xlink:href="ui__board_2main_8cpp.html" target="_top" xlink:title="Main application for UI board (remote controller with e&#45;ink display)">
<polygon fill="white" stroke="#666666" points="62.94,-19 0.94,-19 0.94,0 62.94,0 62.94,-19"/>
<text text-anchor="middle" x="31.94" y="-7" font-family="Helvetica,sans-Serif" font-size="10.00">main.cpp</text>
</a>
</g>
</g>
<!-- Node1&#45;&gt;Node2 -->
<g id="edge1_Node000001_Node000002" class="edge">
<title>Node1&#45;&gt;Node2</title>
<g id="a_edge1_Node000001_Node000002"><a xlink:title=" ">
<path fill="none" stroke="#63b8ff" d="M99.07,-168.19C71.83,-162.71 39.38,-151.59 18.94,-129 -3.46,-104.24 -2.78,-87.23 5.94,-55 9.64,-41.35 18.68,-27.6 25.05,-19.07"/>
<polygon fill="#63b8ff" stroke="#63b8ff" points="98.75,-171.69 109.21,-170.02 100,-164.8 98.75,-171.69"/>
</a>
</g>
</g>
<!-- Node3 -->
<g id="Node000003" class="node">
<title>Node3</title>
<g id="a_Node000003"><a xlink:href="oled__menu_8hpp.html" target="_top" xlink:title="Non&#45;blocking menu system for OLED display with rotary encoder.">
<polygon fill="white" stroke="#666666" points="119.94,-129 27.94,-129 27.94,-110 119.94,-110 119.94,-129"/>
<text text-anchor="middle" x="73.94" y="-117" font-family="Helvetica,sans-Serif" font-size="10.00">oled_menu.hpp</text>
</a>
</g>
</g>
<!-- Node1&#45;&gt;Node3 -->
<g id="edge2_Node000001_Node000003" class="edge">
<title>Node1&#45;&gt;Node3</title>
<g id="a_edge2_Node000001_Node000003"><a xlink:title=" ">
<path fill="none" stroke="#63b8ff" d="M127.91,-159.15C114.53,-149.57 97.38,-137.29 86.05,-129.17"/>
<polygon fill="#63b8ff" stroke="#63b8ff" points="125.89,-162.01 136.05,-164.98 129.96,-156.32 125.89,-162.01"/>
</a>
</g>
</g>
<!-- Node5 -->
<g id="Node000005" class="node">
<title>Node5</title>
<g id="a_Node000005"><a xlink:href="ui__oled_8hpp.html" target="_top" xlink:title="UI implementation for OLED display with rotary encoder.">
<polygon fill="white" stroke="#666666" points="197.44,-74 124.44,-74 124.44,-55 197.44,-55 197.44,-74"/>
<text text-anchor="middle" x="160.94" y="-62" font-family="Helvetica,sans-Serif" font-size="10.00">ui_oled.hpp</text>
</a>
</g>
</g>
<!-- Node1&#45;&gt;Node5 -->
<g id="edge9_Node000001_Node000005" class="edge">
<title>Node1&#45;&gt;Node5</title>
<g id="a_edge9_Node000001_Node000005"><a xlink:title=" ">
<path fill="none" stroke="#63b8ff" d="M150.23,-154.48C153.08,-130.84 157.81,-91.5 159.9,-74.16"/>
<polygon fill="#63b8ff" stroke="#63b8ff" points="146.73,-154.32 149.01,-164.66 153.68,-155.15 146.73,-154.32"/>
</a>
</g>
</g>
<!-- Node7 -->
<g id="Node000007" class="node">
<title>Node7</title>
<g id="a_Node000007"><a xlink:href="settings_8cpp.html" target="_top" xlink:title="Settings storage implementation.">
<polygon fill="white" stroke="#666666" points="251.94,-129 175.94,-129 175.94,-110 251.94,-110 251.94,-129"/>
<text text-anchor="middle" x="213.94" y="-117" font-family="Helvetica,sans-Serif" font-size="10.00">settings.cpp</text>
</a>
</g>
</g>
<!-- Node1&#45;&gt;Node7 -->
<g id="edge7_Node000001_Node000007" class="edge">
<title>Node1&#45;&gt;Node7</title>
<g id="a_edge7_Node000001_Node000007"><a xlink:title=" ">
<path fill="none" stroke="#63b8ff" d="M166.5,-158.6C178.32,-149.11 193.23,-137.13 203.15,-129.17"/>
<polygon fill="#63b8ff" stroke="#63b8ff" points="164.15,-155.99 158.55,-164.98 168.54,-161.45 164.15,-155.99"/>
</a>
</g>
</g>
<!-- Node8 -->
<g id="Node000008" class="node">
<title>Node8</title>
<g id="a_Node000008"><a xlink:href="ui_8cpp.html" target="_top" xlink:title="UI implementation with Adafruit 2.9&quot; ThinkInk E&#45;Ink tricolor display.">
<polygon fill="white" stroke="#666666" points="315.94,-129 269.94,-129 269.94,-110 315.94,-110 315.94,-129"/>
<text text-anchor="middle" x="292.94" y="-117" font-family="Helvetica,sans-Serif" font-size="10.00">ui.cpp</text>
</a>
</g>
</g>
<!-- Node1&#45;&gt;Node8 -->
<g id="edge8_Node000001_Node000008" class="edge">
<title>Node1&#45;&gt;Node8</title>
<g id="a_edge8_Node000001_Node000008"><a xlink:title=" ">
<path fill="none" stroke="#63b8ff" d="M180.69,-161.53C207.8,-151.62 245.63,-137.79 269.7,-128.99"/>
<polygon fill="#63b8ff" stroke="#63b8ff" points="179.43,-158.26 171.24,-164.98 181.83,-164.84 179.43,-158.26"/>
</a>
</g>
</g>
<!-- Node4 -->
<g id="Node000004" class="node">
<title>Node4</title>
<g id="a_Node000004"><a xlink:href="oled__menu_8cpp.html" target="_top" xlink:title="OLED menu system implementation.">
<polygon fill="white" stroke="#666666" points="106.44,-74 15.44,-74 15.44,-55 106.44,-55 106.44,-74"/>
<text text-anchor="middle" x="60.94" y="-62" font-family="Helvetica,sans-Serif" font-size="10.00">oled_menu.cpp</text>
</a>
</g>
</g>
<!-- Node3&#45;&gt;Node4 -->
<g id="edge3_Node000003_Node000004" class="edge">
<title>Node3&#45;&gt;Node4</title>
<g id="a_edge3_Node000003_Node000004"><a xlink:title=" ">
<path fill="none" stroke="#63b8ff" d="M69.39,-99.95C67.24,-91.15 64.76,-81.06 63.05,-74.09"/>
<polygon fill="#63b8ff" stroke="#63b8ff" points="66.01,-100.87 71.8,-109.75 72.81,-99.2 66.01,-100.87"/>
</a>
</g>
</g>
<!-- Node3&#45;&gt;Node5 -->
<g id="edge4_Node000003_Node000005" class="edge">
<title>Node3&#45;&gt;Node5</title>
<g id="a_edge4_Node000003_Node000005"><a xlink:title=" ">
<path fill="none" stroke="#63b8ff" d="M96.6,-104.7C112.45,-95.04 133.13,-82.44 146.71,-74.17"/>
<polygon fill="#63b8ff" stroke="#63b8ff" points="94.64,-101.79 87.92,-109.98 98.28,-107.77 94.64,-101.79"/>
</a>
</g>
</g>
<!-- Node5&#45;&gt;Node2 -->
<g id="edge5_Node000005_Node000002" class="edge">
<title>Node5&#45;&gt;Node2</title>
<g id="a_edge5_Node000005_Node000002"><a xlink:title=" ">
<path fill="none" stroke="#63b8ff" d="M130.91,-51.16C107.03,-41.35 74.22,-27.87 53.05,-19.17"/>
<polygon fill="#63b8ff" stroke="#63b8ff" points="129.64,-54.42 140.22,-54.98 132.3,-47.95 129.64,-54.42"/>
</a>
</g>
</g>
<!-- Node6 -->
<g id="Node000006" class="node">
<title>Node6</title>
<g id="a_Node000006"><a xlink:href="ui__oled_8cpp.html" target="_top" xlink:title="OLED&#45;based UI implementation with rotary encoder navigation.">
<polygon fill="white" stroke="#666666" points="196.94,-19 124.94,-19 124.94,0 196.94,0 196.94,-19"/>
<text text-anchor="middle" x="160.94" y="-7" font-family="Helvetica,sans-Serif" font-size="10.00">ui_oled.cpp</text>
</a>
</g>
</g>
<!-- Node5&#45;&gt;Node6 -->
<g id="edge6_Node000005_Node000006" class="edge">
<title>Node5&#45;&gt;Node6</title>
<g id="a_edge6_Node000005_Node000006"><a xlink:title=" ">
<path fill="none" stroke="#63b8ff" d="M160.94,-44.66C160.94,-35.93 160.94,-25.99 160.94,-19.09"/>
<polygon fill="#63b8ff" stroke="#63b8ff" points="157.44,-44.75 160.94,-54.75 164.44,-44.75 157.44,-44.75"/>
</a>
</g>
</g>
</g>
</svg>
