<?xml version="1.0" encoding="UTF-8" standalone="no"?>
<!DOCTYPE svg PUBLIC "-//W3C//DTD SVG 1.1//EN"
 "http://www.w3.org/Graphics/SVG/1.1/DTD/svg11.dtd">
<!-- Generated by graphviz version 2.43.0 (0)
 -->
<!-- Title: tmc51x0_comm_interface.hpp Pages: 1 -->
<svg width="2117pt" height="269pt"
 viewBox="0.00 0.00 2116.50 269.00" xmlns="http://www.w3.org/2000/svg" xmlns:xlink="http://www.w3.org/1999/xlink">
<g id="graph0" class="graph" transform="scale(1 1) rotate(0) translate(4 265)">
<title>tmc51x0_comm_interface.hpp</title>
<!-- Node1 -->
<g id="Node000001" class="node">
<title>Node1</title>
<g id="a_Node000001"><a xlink:title="Communication interfaces for TMC51x0 stepper motor driver (TMC5130 &amp; TMC5160) using SPI and UART.">
<polygon fill="#999999" stroke="#666666" points="1506,-261 1341,-261 1341,-242 1506,-242 1506,-261"/>
<text text-anchor="middle" x="1423.5" y="-249" font-family="Helvetica,sans-Serif" font-size="10.00">tmc51x0_comm_interface.hpp</text>
</a>
</g>
</g>
<!-- Node2 -->
<g id="Node000002" class="node">
<title>Node2</title>
<g id="a_Node000002"><a xlink:href="esp32__tmc51x0__bus_8hpp.html" target="_top" xlink:title="ESP32&#45;specific communication interfaces for TMC51x0 using SPI and UART (TMC5130 &amp; TMC51x0)">
<polygon fill="white" stroke="#666666" points="869,-206 732,-206 732,-187 869,-187 869,-206"/>
<text text-anchor="middle" x="800.5" y="-194" font-family="Helvetica,sans-Serif" font-size="10.00">esp32_tmc51x0_bus.hpp</text>
</a>
</g>
</g>
<!-- Node1&#45;&gt;Node2 -->
<g id="edge1_Node000001_Node000002" class="edge">
<title>Node1&#45;&gt;Node2</title>
<g id="a_edge1_Node000001_Node000002"><a xlink:title=" ">
<path fill="none" stroke="#63b8ff" d="M1330.73,-242.61C1204.49,-231.87 981.48,-212.9 869.19,-203.34"/>
<polygon fill="#63b8ff" stroke="#63b8ff" points="1330.51,-246.1 1340.77,-243.46 1331.1,-239.13 1330.51,-246.1"/>
</a>
</g>
</g>
<!-- Node9 -->
<g id="Node000009" class="node">
<title>Node9</title>
<g id="a_Node000009"><a xlink:href="esp32__tmc51x0__test__config_8hpp.html" target="_top" xlink:title="ESP32 GPIO pin configuration and compile&#45;time configuration for TMC51x0 driver (TMC5130 &amp; TMC51x0)">
<polygon fill="white" stroke="#666666" points="859.5,-151 741.5,-151 741.5,-121 859.5,-121 859.5,-151"/>
<text text-anchor="start" x="749.5" y="-139" font-family="Helvetica,sans-Serif" font-size="10.00">esp32_tmc51x0_test</text>
<text text-anchor="middle" x="800.5" y="-128" font-family="Helvetica,sans-Serif" font-size="10.00">_config.hpp</text>
</a>
</g>
</g>
<!-- Node1&#45;&gt;Node9 -->
<g id="edge30_Node000001_Node000009" class="edge">
<title>Node1&#45;&gt;Node9</title>
<g id="a_edge30_Node000001_Node000009"><a xlink:title=" ">
<path fill="none" stroke="#63b8ff" d="M1366.77,-240.17C1249.04,-218.72 979.17,-169.55 859.5,-147.75"/>
<polygon fill="#63b8ff" stroke="#63b8ff" points="1366.21,-243.62 1376.67,-241.97 1367.46,-236.73 1366.21,-243.62"/>
</a>
</g>
</g>
<!-- Node18 -->
<g id="Node000018" class="node">
<title>Node18</title>
<g id="a_Node000018"><a xlink:href="tmc51x0_8hpp.html" target="_top" xlink:title="Main TMC51x0 stepper motor driver interface and subsystem classes (TMC5130 &amp; TMC5160)">
<polygon fill="white" stroke="#666666" points="1463.5,-145.5 1383.5,-145.5 1383.5,-126.5 1463.5,-126.5 1463.5,-145.5"/>
<text text-anchor="middle" x="1423.5" y="-133.5" font-family="Helvetica,sans-Serif" font-size="10.00">tmc51x0.hpp</text>
</a>
</g>
</g>
<!-- Node1&#45;&gt;Node18 -->
<g id="edge31_Node000001_Node000018" class="edge">
<title>Node1&#45;&gt;Node18</title>
<g id="a_edge31_Node000001_Node000018"><a xlink:title=" ">
<path fill="none" stroke="#63b8ff" d="M1423.5,-231.65C1423.5,-206.74 1423.5,-163.88 1423.5,-145.63"/>
<polygon fill="#63b8ff" stroke="#63b8ff" points="1420,-231.97 1423.5,-241.97 1427,-231.97 1420,-231.97"/>
</a>
</g>
</g>
<!-- Node20 -->
<g id="Node000020" class="node">
<title>Node20</title>
<g id="a_Node000020"><a xlink:href="tmc51x0__daisy__chain_8hpp.html" target="_top" xlink:title="High&#45;level daisy&#45;chain manager for multiple TMC51x0 drivers (TMC5130 &amp; TMC5160)">
<polygon fill="white" stroke="#666666" points="1950,-79.5 1807,-79.5 1807,-60.5 1950,-60.5 1950,-79.5"/>
<text text-anchor="middle" x="1878.5" y="-67.5" font-family="Helvetica,sans-Serif" font-size="10.00">tmc51x0_daisy_chain.hpp</text>
</a>
</g>
</g>
<!-- Node1&#45;&gt;Node20 -->
<g id="edge44_Node000001_Node000020" class="edge">
<title>Node1&#45;&gt;Node20</title>
<g id="a_edge44_Node000001_Node000020"><a xlink:title=" ">
<path fill="none" stroke="#63b8ff" d="M1454.67,-238.2C1541.18,-204.07 1782.8,-108.75 1856.73,-79.59"/>
<polygon fill="#63b8ff" stroke="#63b8ff" points="1453.16,-235.04 1445.14,-241.96 1455.73,-241.55 1453.16,-235.04"/>
</a>
</g>
</g>
<!-- Node21 -->
<g id="Node000021" class="node">
<title>Node21</title>
<g id="a_Node000021"><a xlink:href="tmc51x0__multi__node_8hpp.html" target="_top" xlink:title="High&#45;level multi&#45;node manager for multiple TMC51x0 drivers on UART (TMC5130 &amp; TMC5160)">
<polygon fill="white" stroke="#666666" points="2108.5,-79.5 1968.5,-79.5 1968.5,-60.5 2108.5,-60.5 2108.5,-79.5"/>
<text text-anchor="middle" x="2038.5" y="-67.5" font-family="Helvetica,sans-Serif" font-size="10.00">tmc51x0_multi_node.hpp</text>
</a>
</g>
</g>
<!-- Node1&#45;&gt;Node21 -->
<g id="edge45_Node000001_Node000021" class="edge">
<title>Node1&#45;&gt;Node21</title>
<g id="a_edge45_Node000001_Node000021"><a xlink:title=" ">
<path fill="none" stroke="#63b8ff" d="M1462.47,-239.12C1576.58,-205.82 1908.23,-109.02 2009.07,-79.59"/>
<polygon fill="#63b8ff" stroke="#63b8ff" points="1461.37,-235.8 1452.75,-241.96 1463.33,-242.52 1461.37,-235.8"/>
</a>
</g>
</g>
<!-- Node3 -->
<g id="Node000003" class="node">
<title>Node3</title>
<g id="a_Node000003"><a xlink:href="abn__encoder__reader_8cpp.html" target="_top" xlink:title="ABN Encoder Position Reader &#45; Continuously reads encoder position.">
<polygon fill="white" stroke="#666666" points="1458,-79.5 1323,-79.5 1323,-60.5 1458,-60.5 1458,-79.5"/>
<text text-anchor="middle" x="1390.5" y="-67.5" font-family="Helvetica,sans-Serif" font-size="10.00">abn_encoder_reader.cpp</text>
</a>
</g>
</g>
<!-- Node2&#45;&gt;Node3 -->
<g id="edge2_Node000002_Node000003" class="edge">
<title>Node2&#45;&gt;Node3</title>
<g id="a_edge2_Node000002_Node000003"><a xlink:title=" ">
<path fill="none" stroke="#63b8ff" d="M856.1,-185.05C902.31,-176.26 969.77,-163.22 1028.5,-151 1147.44,-126.25 1287.78,-94.51 1353.3,-79.54"/>
<polygon fill="#63b8ff" stroke="#63b8ff" points="855.16,-181.66 845.99,-186.96 856.47,-188.54 855.16,-181.66"/>
</a>
</g>
</g>
<!-- Node4 -->
<g id="Node000004" class="node">
<title>Node4</title>
<g id="a_Node000004"><a xlink:href="bounds__finder_8hpp.html" target="_top" xlink:title="Abstract interface for bounds finding strategies.">
<polygon fill="white" stroke="#666666" points="377,-79.5 272,-79.5 272,-60.5 377,-60.5 377,-79.5"/>
<text text-anchor="middle" x="324.5" y="-67.5" font-family="Helvetica,sans-Serif" font-size="10.00">bounds_finder.hpp</text>
</a>
</g>
</g>
<!-- Node2&#45;&gt;Node4 -->
<g id="edge3_Node000002_Node000004" class="edge">
<title>Node2&#45;&gt;Node4</title>
<g id="a_edge3_Node000002_Node000004"><a xlink:title=" ">
<path fill="none" stroke="#63b8ff" d="M721.38,-193.85C618.9,-190.52 446.84,-180.59 391.5,-151 360.35,-134.34 337.78,-96.64 328.79,-79.62"/>
<polygon fill="#63b8ff" stroke="#63b8ff" points="721.58,-197.35 731.69,-194.16 721.8,-190.36 721.58,-197.35"/>
</a>
</g>
</g>
<!-- Node7 -->
<g id="Node000007" class="node">
<title>Node7</title>
<g id="a_Node000007"><a xlink:href="fatigue__test__stallguard_8cpp.html" target="_top" xlink:title="Fatigue testing platform: Back&#45;and&#45;forth motion between bounds using StallGuard2 sensorless detection...">
<polygon fill="white" stroke="#666666" points="709,-19 560,-19 560,0 709,0 709,-19"/>
<text text-anchor="middle" x="634.5" y="-7" font-family="Helvetica,sans-Serif" font-size="10.00">fatigue_test_stallguard.cpp</text>
</a>
</g>
</g>
<!-- Node2&#45;&gt;Node7 -->
<g id="edge23_Node000002_Node000007" class="edge">
<title>Node2&#45;&gt;Node7</title>
<g id="a_edge23_Node000002_Node000007"><a xlink:title=" ">
<path fill="none" stroke="#63b8ff" d="M739.11,-185.14C648.09,-168.36 484.38,-132.31 450.5,-85 442.74,-74.16 442.25,-65.48 450.5,-55 464.37,-37.37 515.76,-25.89 560.72,-19.01"/>
<polygon fill="#63b8ff" stroke="#63b8ff" points="738.57,-188.6 749.03,-186.94 739.82,-181.71 738.57,-188.6"/>
</a>
</g>
</g>
<!-- Node8 -->
<g id="Node000008" class="node">
<title>Node8</title>
<g id="a_Node000008"><a xlink:href="test__unit_2main_8cpp.html" target="_top" xlink:title="Fatigue test unit with ESP&#45;NOW communication.">
<polygon fill="white" stroke="#666666" points="198.5,-19 136.5,-19 136.5,0 198.5,0 198.5,-19"/>
<text text-anchor="middle" x="167.5" y="-7" font-family="Helvetica,sans-Serif" font-size="10.00">main.cpp</text>
</a>
</g>
</g>
<!-- Node2&#45;&gt;Node8 -->
<g id="edge26_Node000002_Node000008" class="edge">
<title>Node2&#45;&gt;Node8</title>
<g id="a_edge26_Node000002_Node000008"><a xlink:title=" ">
<path fill="none" stroke="#63b8ff" d="M721.47,-196.15C630.87,-194.96 478.72,-187 353.5,-151 290.08,-132.77 270.69,-127.84 220.5,-85 197.8,-65.63 179.86,-34.53 171.93,-19.38"/>
<polygon fill="#63b8ff" stroke="#63b8ff" points="721.63,-199.65 731.67,-196.26 721.71,-192.66 721.63,-199.65"/>
</a>
</g>
</g>
<!-- Node2&#45;&gt;Node9 -->
<g id="edge8_Node000002_Node000009" class="edge">
<title>Node2&#45;&gt;Node9</title>
<g id="a_edge8_Node000002_Node000009"><a xlink:title=" ">
<path fill="none" stroke="#63b8ff" d="M800.5,-176.65C800.5,-168.36 800.5,-158.78 800.5,-151.11"/>
<polygon fill="#63b8ff" stroke="#63b8ff" points="797,-176.87 800.5,-186.87 804,-176.87 797,-176.87"/>
</a>
</g>
</g>
<!-- Node10 -->
<g id="Node000010" class="node">
<title>Node10</title>
<g id="a_Node000010"><a xlink:href="fatigue__test__encoder_8cpp.html" target="_top" xlink:title="Fatigue testing platform: Back&#45;and&#45;forth motion between bounds using encoder position monitoring.">
<polygon fill="white" stroke="#666666" points="611,-79.5 472,-79.5 472,-60.5 611,-60.5 611,-79.5"/>
<text text-anchor="middle" x="541.5" y="-67.5" font-family="Helvetica,sans-Serif" font-size="10.00">fatigue_test_encoder.cpp</text>
</a>
</g>
</g>
<!-- Node2&#45;&gt;Node10 -->
<g id="edge22_Node000002_Node000010" class="edge">
<title>Node2&#45;&gt;Node10</title>
<g id="a_edge22_Node000002_Node000010"><a xlink:title=" ">
<path fill="none" stroke="#63b8ff" d="M773.58,-182.56C720.6,-157.09 604.1,-101.09 559.43,-79.62"/>
<polygon fill="#63b8ff" stroke="#63b8ff" points="772.17,-185.76 782.7,-186.94 775.2,-179.46 772.17,-185.76"/>
</a>
</g>
</g>
<!-- Node11 -->
<g id="Node000011" class="node">
<title>Node11</title>
<g id="a_Node000011"><a xlink:href="internal__ramp__comprehensive__test_8cpp.html" target="_top" xlink:title="Comprehensive internal ramp test suite for TMC51x0 (single motor)">
<polygon fill="white" stroke="#666666" points="794,-85 629,-85 629,-55 794,-55 794,-85"/>
<text text-anchor="start" x="637" y="-73" font-family="Helvetica,sans-Serif" font-size="10.00">internal_ramp_comprehensive</text>
<text text-anchor="middle" x="711.5" y="-62" font-family="Helvetica,sans-Serif" font-size="10.00">_test.cpp</text>
</a>
</g>
</g>
<!-- Node2&#45;&gt;Node11 -->
<g id="edge24_Node000002_Node000011" class="edge">
<title>Node2&#45;&gt;Node11</title>
<g id="a_edge24_Node000002_Node000011"><a xlink:title=" ">
<path fill="none" stroke="#63b8ff" d="M770.66,-182.24C757.18,-174.84 742.15,-164.4 732.5,-151 718.15,-131.07 713.6,-102.07 712.16,-85.01"/>
<polygon fill="#63b8ff" stroke="#63b8ff" points="769.16,-185.4 779.66,-186.87 772.37,-179.18 769.16,-185.4"/>
</a>
</g>
</g>
<!-- Node12 -->
<g id="Node000012" class="node">
<title>Node12</title>
<g id="a_Node000012"><a xlink:href="internal__ramp__sinusoidal_8cpp.html" target="_top" xlink:title="Sinusoidal motion pattern example for TMC51x0 stepper motor driver.">
<polygon fill="white" stroke="#666666" points="972.5,-79.5 812.5,-79.5 812.5,-60.5 972.5,-60.5 972.5,-79.5"/>
<text text-anchor="middle" x="892.5" y="-67.5" font-family="Helvetica,sans-Serif" font-size="10.00">internal_ramp_sinusoidal.cpp</text>
</a>
</g>
</g>
<!-- Node2&#45;&gt;Node12 -->
<g id="edge25_Node000002_Node000012" class="edge">
<title>Node2&#45;&gt;Node12</title>
<g id="a_edge25_Node000002_Node000012"><a xlink:title=" ">
<path fill="none" stroke="#63b8ff" d="M829.86,-182.24C843.36,-174.8 858.55,-164.32 868.5,-151 885.07,-128.81 890.27,-95.2 891.85,-79.56"/>
<polygon fill="#63b8ff" stroke="#63b8ff" points="828.13,-179.19 820.86,-186.9 831.35,-185.41 828.13,-179.19"/>
</a>
</g>
</g>
<!-- Node13 -->
<g id="Node000013" class="node">
<title>Node13</title>
<g id="a_Node000013"><a xlink:href="spi__daisy__chain__comprehensive__test_8cpp.html" target="_top" xlink:title="Comprehensive SPI Daisy Chain testing suite for TMC51x0 (MULTI&#45;MOTOR)">
<polygon fill="white" stroke="#666666" points="1164.5,-85 990.5,-85 990.5,-55 1164.5,-55 1164.5,-85"/>
<text text-anchor="start" x="998.5" y="-73" font-family="Helvetica,sans-Serif" font-size="10.00">spi_daisy_chain_comprehensive</text>
<text text-anchor="middle" x="1077.5" y="-62" font-family="Helvetica,sans-Serif" font-size="10.00">_test.cpp</text>
</a>
</g>
</g>
<!-- Node2&#45;&gt;Node13 -->
<g id="edge27_Node000002_Node000013" class="edge">
<title>Node2&#45;&gt;Node13</title>
<g id="a_edge27_Node000002_Node000013"><a xlink:title=" ">
<path fill="none" stroke="#63b8ff" d="M828.86,-182.76C880.97,-159.33 991.62,-109.6 1045.99,-85.16"/>
<polygon fill="#63b8ff" stroke="#63b8ff" points="827.23,-179.65 819.54,-186.94 830.1,-186.04 827.23,-179.65"/>
</a>
</g>
</g>
<!-- Node14 -->
<g id="Node000014" class="node">
<title>Node14</title>
<g id="a_Node000014"><a xlink:href="stallguard__tuning_8cpp.html" target="_top" xlink:title="Automatic StallGuard2 Tuning Tool with Safe Current Margin.">
<polygon fill="white" stroke="#666666" points="1304.5,-79.5 1182.5,-79.5 1182.5,-60.5 1304.5,-60.5 1304.5,-79.5"/>
<text text-anchor="middle" x="1243.5" y="-67.5" font-family="Helvetica,sans-Serif" font-size="10.00">stallguard_tuning.cpp</text>
</a>
</g>
</g>
<!-- Node2&#45;&gt;Node14 -->
<g id="edge28_Node000002_Node000014" class="edge">
<title>Node2&#45;&gt;Node14</title>
<g id="a_edge28_Node000002_Node000014"><a xlink:title=" ">
<path fill="none" stroke="#63b8ff" d="M840.8,-184.17C928.55,-159.51 1135.28,-101.41 1213.13,-79.53"/>
<polygon fill="#63b8ff" stroke="#63b8ff" points="839.63,-180.87 830.95,-186.94 841.52,-187.61 839.63,-180.87"/>
</a>
</g>
</g>
<!-- Node15 -->
<g id="Node000015" class="node">
<title>Node15</title>
<g id="a_Node000015"><a xlink:href="fatigue__motion_8hpp.html" target="_top" xlink:title="Unified fatigue test motion controller.">
<polygon fill="white" stroke="#666666" points="177.5,-145.5 65.5,-145.5 65.5,-126.5 177.5,-126.5 177.5,-145.5"/>
<text text-anchor="middle" x="121.5" y="-133.5" font-family="Helvetica,sans-Serif" font-size="10.00">fatigue_motion.hpp</text>
</a>
</g>
</g>
<!-- Node2&#45;&gt;Node15 -->
<g id="edge18_Node000002_Node000015" class="edge">
<title>Node2&#45;&gt;Node15</title>
<g id="a_edge18_Node000002_Node000015"><a xlink:title=" ">
<path fill="none" stroke="#63b8ff" d="M721.47,-192.87C605.01,-188.28 380.65,-176.72 191.5,-151 181.18,-149.6 170.1,-147.61 159.87,-145.57"/>
<polygon fill="#63b8ff" stroke="#63b8ff" points="721.58,-196.37 731.71,-193.26 721.86,-189.38 721.58,-196.37"/>
</a>
</g>
</g>
<!-- Node17 -->
<g id="Node000017" class="node">
<title>Node17</title>
<g id="a_Node000017"><a xlink:href="uart__multi__node__comprehensive__test_8cpp.html" target="_top" xlink:title="Comprehensive UART Multi&#45;Node testing suite for TMC51x0 (MULTI&#45;MOTOR)">
<polygon fill="white" stroke="#666666" points="1788.5,-85 1612.5,-85 1612.5,-55 1788.5,-55 1788.5,-85"/>
<text text-anchor="start" x="1620.5" y="-73" font-family="Helvetica,sans-Serif" font-size="10.00">uart_multi_node_comprehensive</text>
<text text-anchor="middle" x="1700.5" y="-62" font-family="Helvetica,sans-Serif" font-size="10.00">_test.cpp</text>
</a>
</g>
</g>
<!-- Node2&#45;&gt;Node17 -->
<g id="edge29_Node000002_Node000017" class="edge">
<title>Node2&#45;&gt;Node17</title>
<g id="a_edge29_Node000002_Node000017"><a xlink:title=" ">
<path fill="none" stroke="#63b8ff" d="M879.43,-192.96C1031.79,-187.61 1361.22,-173.76 1472.5,-151 1545.04,-136.16 1625.93,-103.76 1669.18,-85.06"/>
<polygon fill="#63b8ff" stroke="#63b8ff" points="879.09,-189.47 869.21,-193.31 879.33,-196.46 879.09,-189.47"/>
</a>
</g>
</g>
<!-- Node5 -->
<g id="Node000005" class="node">
<title>Node5</title>
<g id="a_Node000005"><a xlink:href="bounds__finder__encoder_8cpp.html" target="_top" xlink:title="Encoder&#45;based bounds finder implementation.">
<polygon fill="white" stroke="#666666" points="365,-19 216,-19 216,0 365,0 365,-19"/>
<text text-anchor="middle" x="290.5" y="-7" font-family="Helvetica,sans-Serif" font-size="10.00">bounds_finder_encoder.cpp</text>
</a>
</g>
</g>
<!-- Node4&#45;&gt;Node5 -->
<g id="edge4_Node000004_Node000005" class="edge">
<title>Node4&#45;&gt;Node5</title>
<g id="a_edge4_Node000004_Node000005"><a xlink:title=" ">
<path fill="none" stroke="#63b8ff" d="M314.32,-51.48C308.12,-40.81 300.47,-27.65 295.54,-19.17"/>
<polygon fill="#63b8ff" stroke="#63b8ff" points="311.43,-53.48 319.48,-60.37 317.48,-49.96 311.43,-53.48"/>
</a>
</g>
</g>
<!-- Node6 -->
<g id="Node000006" class="node">
<title>Node6</title>
<g id="a_Node000006"><a xlink:href="bounds__finder__stallguard_8cpp.html" target="_top" xlink:title="StallGuard2&#45;based bounds finder implementation.">
<polygon fill="white" stroke="#666666" points="542,-19 383,-19 383,0 542,0 542,-19"/>
<text text-anchor="middle" x="462.5" y="-7" font-family="Helvetica,sans-Serif" font-size="10.00">bounds_finder_stallguard.cpp</text>
</a>
</g>
</g>
<!-- Node4&#45;&gt;Node6 -->
<g id="edge5_Node000004_Node000006" class="edge">
<title>Node4&#45;&gt;Node6</title>
<g id="a_edge5_Node000004_Node000006"><a xlink:title=" ">
<path fill="none" stroke="#63b8ff" d="M353.79,-56.58C380.45,-45.28 419.1,-28.9 442.41,-19.02"/>
<polygon fill="#63b8ff" stroke="#63b8ff" points="352.41,-53.37 344.57,-60.49 355.14,-59.81 352.41,-53.37"/>
</a>
</g>
</g>
<!-- Node4&#45;&gt;Node7 -->
<g id="edge6_Node000004_Node000007" class="edge">
<title>Node4&#45;&gt;Node7</title>
<g id="a_edge6_Node000004_Node000007"><a xlink:title=" ">
<path fill="none" stroke="#63b8ff" d="M374.64,-58.38C380.32,-57.22 386.03,-56.07 391.5,-55 458.84,-41.8 536.93,-27.72 586.02,-19.01"/>
<polygon fill="#63b8ff" stroke="#63b8ff" points="373.59,-55.02 364.5,-60.47 375,-61.88 373.59,-55.02"/>
</a>
</g>
</g>
<!-- Node4&#45;&gt;Node8 -->
<g id="edge7_Node000004_Node000008" class="edge">
<title>Node4&#45;&gt;Node8</title>
<g id="a_edge7_Node000004_Node000008"><a xlink:title=" ">
<path fill="none" stroke="#63b8ff" d="M291.97,-56.88C261.62,-45.57 217.11,-28.99 190.36,-19.02"/>
<polygon fill="#63b8ff" stroke="#63b8ff" points="291.08,-60.28 301.67,-60.49 293.52,-53.72 291.08,-60.28"/>
</a>
</g>
</g>
<!-- Node9&#45;&gt;Node3 -->
<g id="edge9_Node000009_Node000003" class="edge">
<title>Node9&#45;&gt;Node3</title>
<g id="a_edge9_Node000009_Node000003"><a xlink:title=" ">
<path fill="none" stroke="#63b8ff" d="M869.69,-130.08C968.44,-122.65 1155.36,-107.04 1313.5,-85 1324.4,-83.48 1336.11,-81.52 1347.03,-79.55"/>
<polygon fill="#63b8ff" stroke="#63b8ff" points="869.25,-126.61 859.54,-130.84 869.78,-133.59 869.25,-126.61"/>
</a>
</g>
</g>
<!-- Node9&#45;&gt;Node4 -->
<g id="edge10_Node000009_Node000004" class="edge">
<title>Node9&#45;&gt;Node4</title>
<g id="a_edge10_Node000009_Node000004"><a xlink:title=" ">
<path fill="none" stroke="#63b8ff" d="M730.98,-125.65C634.87,-112.73 463.53,-89.69 377.24,-78.09"/>
<polygon fill="#63b8ff" stroke="#63b8ff" points="730.8,-129.16 741.18,-127.02 731.73,-122.22 730.8,-129.16"/>
</a>
</g>
</g>
<!-- Node9&#45;&gt;Node7 -->
<g id="edge12_Node000009_Node000007" class="edge">
<title>Node9&#45;&gt;Node7</title>
<g id="a_edge12_Node000009_Node000007"><a xlink:title=" ">
<path fill="none" stroke="#63b8ff" d="M731.05,-134.96C642.42,-133.26 496.47,-124.36 462.5,-85 429.55,-46.81 499.55,-27.56 559.92,-18.31"/>
<polygon fill="#63b8ff" stroke="#63b8ff" points="731.24,-138.47 741.3,-135.13 731.36,-131.47 731.24,-138.47"/>
</a>
</g>
</g>
<!-- Node9&#45;&gt;Node8 -->
<g id="edge15_Node000009_Node000008" class="edge">
<title>Node9&#45;&gt;Node8</title>
<g id="a_edge15_Node000009_Node000008"><a xlink:title=" ">
<path fill="none" stroke="#63b8ff" d="M730.89,-133.4C605.25,-129.7 345.89,-118.2 262.5,-85 252.76,-81.12 200.26,-37.83 177.75,-19.08"/>
<polygon fill="#63b8ff" stroke="#63b8ff" points="731.07,-136.9 741.16,-133.69 731.27,-129.91 731.07,-136.9"/>
</a>
</g>
</g>
<!-- Node9&#45;&gt;Node10 -->
<g id="edge11_Node000009_Node000010" class="edge">
<title>Node9&#45;&gt;Node10</title>
<g id="a_edge11_Node000009_Node000010"><a xlink:title=" ">
<path fill="none" stroke="#63b8ff" d="M733.81,-118.52C683.35,-106.05 616.11,-89.44 575.97,-79.52"/>
<polygon fill="#63b8ff" stroke="#63b8ff" points="733.11,-121.95 743.66,-120.95 734.79,-115.16 733.11,-121.95"/>
</a>
</g>
</g>
<!-- Node9&#45;&gt;Node11 -->
<g id="edge13_Node000009_Node000011" class="edge">
<title>Node9&#45;&gt;Node11</title>
<g id="a_edge13_Node000009_Node000011"><a xlink:title=" ">
<path fill="none" stroke="#63b8ff" d="M772.34,-114.75C758.96,-105.13 743.28,-93.86 731.2,-85.16"/>
<polygon fill="#63b8ff" stroke="#63b8ff" points="770.59,-117.8 780.75,-120.8 774.67,-112.12 770.59,-117.8"/>
</a>
</g>
</g>
<!-- Node9&#45;&gt;Node12 -->
<g id="edge14_Node000009_Node000012" class="edge">
<title>Node9&#45;&gt;Node12</title>
<g id="a_edge14_Node000009_Node000012"><a xlink:title=" ">
<path fill="none" stroke="#63b8ff" d="M829.43,-114.87C846.46,-103.03 867.13,-88.65 880.05,-79.66"/>
<polygon fill="#63b8ff" stroke="#63b8ff" points="827.13,-112.21 820.92,-120.8 831.13,-117.96 827.13,-112.21"/>
</a>
</g>
</g>
<!-- Node9&#45;&gt;Node13 -->
<g id="edge16_Node000009_Node000013" class="edge">
<title>Node9&#45;&gt;Node13</title>
<g id="a_edge16_Node000009_Node000013"><a xlink:title=" ">
<path fill="none" stroke="#63b8ff" d="M869.59,-119.04C914.75,-108.6 973.18,-95.1 1016.59,-85.07"/>
<polygon fill="#63b8ff" stroke="#63b8ff" points="868.54,-115.69 859.58,-121.35 870.11,-122.51 868.54,-115.69"/>
</a>
</g>
</g>
<!-- Node9&#45;&gt;Node14 -->
<g id="edge17_Node000009_Node000014" class="edge">
<title>Node9&#45;&gt;Node14</title>
<g id="a_edge17_Node000009_Node000014"><a xlink:title=" ">
<path fill="none" stroke="#63b8ff" d="M870.05,-127.03C945.12,-118.11 1068.1,-102.59 1173.5,-85 1183.16,-83.39 1193.52,-81.44 1203.23,-79.51"/>
<polygon fill="#63b8ff" stroke="#63b8ff" points="869.31,-123.59 859.79,-128.24 870.13,-130.54 869.31,-123.59"/>
</a>
</g>
</g>
<!-- Node15&#45;&gt;Node8 -->
<g id="edge21_Node000015_Node000008" class="edge">
<title>Node15&#45;&gt;Node8</title>
<g id="a_edge21_Node000015_Node000008"><a xlink:title=" ">
<path fill="none" stroke="#63b8ff" d="M131.7,-117.66C136.95,-108.24 143.13,-96.23 147.5,-85 156.43,-62.03 162.86,-33.59 165.76,-19.41"/>
<polygon fill="#63b8ff" stroke="#63b8ff" points="128.62,-116 126.7,-126.42 134.7,-119.47 128.62,-116"/>
</a>
</g>
</g>
<!-- Node16 -->
<g id="Node000016" class="node">
<title>Node16</title>
<g id="a_Node000016"><a xlink:href="fatigue__motion__impl_8hpp.html" target="_top" xlink:title="Full implementation of FatigueTestMotion class.">
<polygon fill="white" stroke="#666666" points="139,-79.5 0,-79.5 0,-60.5 139,-60.5 139,-79.5"/>
<text text-anchor="middle" x="69.5" y="-67.5" font-family="Helvetica,sans-Serif" font-size="10.00">fatigue_motion_impl.hpp</text>
</a>
</g>
</g>
<!-- Node15&#45;&gt;Node16 -->
<g id="edge19_Node000015_Node000016" class="edge">
<title>Node15&#45;&gt;Node16</title>
<g id="a_edge19_Node000015_Node000016"><a xlink:title=" ">
<path fill="none" stroke="#63b8ff" d="M107.9,-118.27C97.93,-105.99 84.77,-89.8 76.74,-79.91"/>
<polygon fill="#63b8ff" stroke="#63b8ff" points="105.46,-120.81 114.49,-126.37 110.9,-116.4 105.46,-120.81"/>
</a>
</g>
</g>
<!-- Node16&#45;&gt;Node8 -->
<g id="edge20_Node000016_Node000008" class="edge">
<title>Node16&#45;&gt;Node8</title>
<g id="a_edge20_Node000016_Node000008"><a xlink:title=" ">
<path fill="none" stroke="#63b8ff" d="M92.75,-55.12C111.44,-43.96 137.11,-28.64 152.98,-19.17"/>
<polygon fill="#63b8ff" stroke="#63b8ff" points="90.75,-52.24 83.96,-60.37 94.34,-58.25 90.75,-52.24"/>
</a>
</g>
</g>
<!-- Node18&#45;&gt;Node3 -->
<g id="edge32_Node000018_Node000003" class="edge">
<title>Node18&#45;&gt;Node3</title>
<g id="a_edge32_Node000018_Node000003"><a xlink:title=" ">
<path fill="none" stroke="#63b8ff" d="M1414.31,-117.18C1408.06,-105.05 1400.04,-89.51 1395.09,-79.91"/>
<polygon fill="#63b8ff" stroke="#63b8ff" points="1411.36,-119.08 1419.05,-126.37 1417.58,-115.88 1411.36,-119.08"/>
</a>
</g>
</g>
<!-- Node18&#45;&gt;Node7 -->
<g id="edge34_Node000018_Node000007" class="edge">
<title>Node18&#45;&gt;Node7</title>
<g id="a_edge34_Node000018_Node000007"><a xlink:title=" ">
<path fill="none" stroke="#63b8ff" d="M1442.32,-119.72C1461.4,-102.44 1485.73,-74.23 1467.5,-55 1441.61,-27.69 908.52,-15.39 709,-11.73"/>
<polygon fill="#63b8ff" stroke="#63b8ff" points="1439.87,-117.21 1434.6,-126.4 1444.45,-122.5 1439.87,-117.21"/>
</a>
</g>
</g>
<!-- Node18&#45;&gt;Node10 -->
<g id="edge33_Node000018_Node000010" class="edge">
<title>Node18&#45;&gt;Node10</title>
<g id="a_edge33_Node000018_Node000010"><a xlink:title=" ">
<path fill="none" stroke="#63b8ff" d="M1373,-133.88C1245.99,-130.64 903.11,-119.16 619.5,-85 607.89,-83.6 595.39,-81.59 583.87,-79.52"/>
<polygon fill="#63b8ff" stroke="#63b8ff" points="1373.11,-137.39 1383.2,-134.14 1373.29,-130.39 1373.11,-137.39"/>
</a>
</g>
</g>
<!-- Node18&#45;&gt;Node11 -->
<g id="edge35_Node000018_Node000011" class="edge">
<title>Node18&#45;&gt;Node11</title>
<g id="a_edge35_Node000018_Node000011"><a xlink:title=" ">
<path fill="none" stroke="#63b8ff" d="M1373.07,-132.14C1267.28,-125.88 1014.49,-109.53 803.5,-85 800.45,-84.65 797.35,-84.27 794.21,-83.87"/>
<polygon fill="#63b8ff" stroke="#63b8ff" points="1372.96,-135.64 1383.15,-132.73 1373.37,-128.65 1372.96,-135.64"/>
</a>
</g>
</g>
<!-- Node18&#45;&gt;Node12 -->
<g id="edge36_Node000018_Node000012" class="edge">
<title>Node18&#45;&gt;Node12</title>
<g id="a_edge36_Node000018_Node000012"><a xlink:title=" ">
<path fill="none" stroke="#63b8ff" d="M1373.15,-130.02C1291.01,-121.74 1123.14,-104.14 981.5,-85 969.41,-83.37 956.42,-81.43 944.21,-79.52"/>
<polygon fill="#63b8ff" stroke="#63b8ff" points="1372.91,-133.52 1383.21,-131.03 1373.61,-126.55 1372.91,-133.52"/>
</a>
</g>
</g>
<!-- Node18&#45;&gt;Node13 -->
<g id="edge37_Node000018_Node000013" class="edge">
<title>Node18&#45;&gt;Node13</title>
<g id="a_edge37_Node000018_Node000013"><a xlink:title=" ">
<path fill="none" stroke="#63b8ff" d="M1373.5,-125.75C1315.77,-115.07 1220.19,-97.39 1153.31,-85.02"/>
<polygon fill="#63b8ff" stroke="#63b8ff" points="1373,-129.22 1383.47,-127.6 1374.27,-122.34 1373,-129.22"/>
</a>
</g>
</g>
<!-- Node18&#45;&gt;Node14 -->
<g id="edge38_Node000018_Node000014" class="edge">
<title>Node18&#45;&gt;Node14</title>
<g id="a_edge38_Node000018_Node000014"><a xlink:title=" ">
<path fill="none" stroke="#63b8ff" d="M1389.75,-123C1354.21,-110.36 1299.12,-90.78 1267.68,-79.6"/>
<polygon fill="#63b8ff" stroke="#63b8ff" points="1388.63,-126.32 1399.22,-126.37 1390.97,-119.72 1388.63,-126.32"/>
</a>
</g>
</g>
<!-- Node18&#45;&gt;Node17 -->
<g id="edge43_Node000018_Node000017" class="edge">
<title>Node18&#45;&gt;Node17</title>
<g id="a_edge43_Node000018_Node000017"><a xlink:title=" ">
<path fill="none" stroke="#63b8ff" d="M1470.41,-124.16C1517.06,-113.38 1588.83,-96.8 1639.8,-85.02"/>
<polygon fill="#63b8ff" stroke="#63b8ff" points="1469.53,-120.77 1460.57,-126.44 1471.1,-127.59 1469.53,-120.77"/>
</a>
</g>
</g>
<!-- Node19 -->
<g id="Node000019" class="node">
<title>Node19</title>
<g id="a_Node000019"><a xlink:href="tmc51x0_8cpp.html" target="_top" xlink:title="Implementation of TMC51x0 driver methods (TMC5130 &amp; TMC5160)">
<polygon fill="white" stroke="#666666" points="1594.5,-79.5 1514.5,-79.5 1514.5,-60.5 1594.5,-60.5 1594.5,-79.5"/>
<text text-anchor="middle" x="1554.5" y="-67.5" font-family="Helvetica,sans-Serif" font-size="10.00">tmc51x0.cpp</text>
</a>
</g>
</g>
<!-- Node18&#45;&gt;Node19 -->
<g id="edge39_Node000018_Node000019" class="edge">
<title>Node18&#45;&gt;Node19</title>
<g id="a_edge39_Node000018_Node000019"><a xlink:title=" ">
<path fill="none" stroke="#63b8ff" d="M1445.45,-121.53C1469.52,-108.92 1507.56,-90.47 1531.89,-79.7"/>
<polygon fill="#63b8ff" stroke="#63b8ff" points="1443.55,-118.57 1436.38,-126.37 1446.85,-124.75 1443.55,-118.57"/>
</a>
</g>
</g>
<!-- Node18&#45;&gt;Node20 -->
<g id="edge41_Node000018_Node000020" class="edge">
<title>Node18&#45;&gt;Node20</title>
<g id="a_edge41_Node000018_Node000020"><a xlink:title=" ">
<path fill="none" stroke="#63b8ff" d="M1473.83,-128.89C1545.73,-120.03 1681.93,-102.71 1797.5,-85 1808.36,-83.34 1820.02,-81.41 1831.01,-79.52"/>
<polygon fill="#63b8ff" stroke="#63b8ff" points="1473.2,-125.44 1463.7,-130.14 1474.05,-132.39 1473.2,-125.44"/>
</a>
</g>
</g>
<!-- Node18&#45;&gt;Node21 -->
<g id="edge42_Node000018_Node000021" class="edge">
<title>Node18&#45;&gt;Node21</title>
<g id="a_edge42_Node000018_Node000021"><a xlink:title=" ">
<path fill="none" stroke="#63b8ff" d="M1473.83,-131.69C1568.97,-125.14 1781.62,-109.02 1959.5,-85 1970.68,-83.49 1982.7,-81.53 1993.9,-79.57"/>
<polygon fill="#63b8ff" stroke="#63b8ff" points="1473.37,-128.22 1463.64,-132.39 1473.85,-135.2 1473.37,-128.22"/>
</a>
</g>
</g>
<!-- Node19&#45;&gt;Node18 -->
<g id="edge40_Node000019_Node000018" class="edge">
<title>Node19&#45;&gt;Node18</title>
<g id="a_edge40_Node000019_Node000018"><a xlink:title=" ">
<path fill="none" stroke="#63b8ff" d="M1532.39,-84.55C1508.27,-97.18 1470.22,-115.63 1445.96,-126.37"/>
<polygon fill="#63b8ff" stroke="#63b8ff" points="1534.32,-87.49 1541.5,-79.7 1531.03,-81.31 1534.32,-87.49"/>
</a>
</g>
</g>
</g>
</svg>
