<?xml version="1.0" encoding="UTF-8" standalone="no"?>
<!DOCTYPE svg PUBLIC "-//W3C//DTD SVG 1.1//EN"
 "http://www.w3.org/Graphics/SVG/1.1/DTD/svg11.dtd">
<!-- Generated by graphviz version 2.43.0 (0)
 -->
<!-- Title: app_main Pages: 1 -->
<svg width="595pt" height="345pt"
 viewBox="0.00 0.00 595.00 344.50" xmlns="http://www.w3.org/2000/svg" xmlns:xlink="http://www.w3.org/1999/xlink">
<g id="graph0" class="graph" transform="scale(1 1) rotate(0) translate(4 340.5)">
<title>app_main</title>
<!-- Node1 -->
<g id="Node000001" class="node">
<title>Node1</title>
<g id="a_Node000001"><a xlink:title=" ">
<polygon fill="#999999" stroke="#666666" points="65,-184 0,-184 0,-165 65,-165 65,-184"/>
<text text-anchor="middle" x="32.5" y="-172" font-family="Helvetica,sans-Serif" font-size="10.00">app_main</text>
</a>
</g>
</g>
<!-- Node2 -->
<g id="Node000002" class="node">
<title>Node2</title>
<g id="a_Node000002"><a xlink:href="TestFramework_8h.html#a7bb80345e5681c19686df292fa897daf" target="_top" xlink:title="Flip the test progression indicator to show next test.">
<polygon fill="white" stroke="#666666" points="222.5,-336.5 119.5,-336.5 119.5,-306.5 222.5,-306.5 222.5,-336.5"/>
<text text-anchor="start" x="127.5" y="-324.5" font-family="Helvetica,sans-Serif" font-size="10.00">flip_test_progress</text>
<text text-anchor="middle" x="171" y="-313.5" font-family="Helvetica,sans-Serif" font-size="10.00">_indicator</text>
</a>
</g>
</g>
<!-- Node1&#45;&gt;Node2 -->
<g id="edge1_Node000001_Node000002" class="edge">
<title>Node1&#45;&gt;Node2</title>
<g id="a_edge1_Node000001_Node000002"><a xlink:title=" ">
<path fill="none" stroke="#63b8ff" d="M36.13,-184.03C42.92,-206.94 63.24,-265.58 101,-297.5 103.88,-299.94 107.03,-302.13 110.33,-304.11"/>
<polygon fill="#63b8ff" stroke="#63b8ff" points="108.91,-307.31 119.39,-308.84 112.15,-301.11 108.91,-307.31"/>
</a>
</g>
</g>
<!-- Node3 -->
<g id="Node000003" class="node">
<title>Node3</title>
<g id="a_Node000003"><a xlink:href="TestFramework_8h.html#a200bb35a3a48c625b9cb8d2511d6bd87" target="_top" xlink:title="Print standardized test summary.">
<polygon fill="white" stroke="#666666" points="223,-288.5 119,-288.5 119,-258.5 223,-258.5 223,-288.5"/>
<text text-anchor="start" x="127" y="-276.5" font-family="Helvetica,sans-Serif" font-size="10.00">print_test_section</text>
<text text-anchor="middle" x="171" y="-265.5" font-family="Helvetica,sans-Serif" font-size="10.00">_status</text>
</a>
</g>
</g>
<!-- Node1&#45;&gt;Node3 -->
<g id="edge2_Node000001_Node000003" class="edge">
<title>Node1&#45;&gt;Node3</title>
<g id="a_edge2_Node000001_Node000003"><a xlink:title=" ">
<path fill="none" stroke="#63b8ff" d="M39.79,-184.21C50.52,-200.05 73.86,-231.47 101,-249.5 103.75,-251.32 106.65,-253.03 109.64,-254.61"/>
<polygon fill="#63b8ff" stroke="#63b8ff" points="108.32,-257.86 118.85,-259.02 111.34,-251.54 108.32,-257.86"/>
</a>
</g>
</g>
<!-- Node6 -->
<g id="Node000006" class="node">
<title>Node6</title>
<g id="a_Node000006"><a xlink:href="TestFramework_8h.html#ab7e4c076755ecdf2ad6212cb8f6578ab" target="_top" xlink:title="Print standardized test summary.">
<polygon fill="white" stroke="#666666" points="228.5,-240 113.5,-240 113.5,-221 228.5,-221 228.5,-240"/>
<text text-anchor="middle" x="171" y="-228" font-family="Helvetica,sans-Serif" font-size="10.00">print_test_summary</text>
</a>
</g>
</g>
<!-- Node1&#45;&gt;Node6 -->
<g id="edge5_Node000001_Node000006" class="edge">
<title>Node1&#45;&gt;Node6</title>
<g id="a_edge5_Node000001_Node000006"><a xlink:title=" ">
<path fill="none" stroke="#63b8ff" d="M47.96,-184.1C61.27,-192.57 81.8,-204.74 101,-212.5 106.02,-214.53 111.34,-216.39 116.71,-218.08"/>
<polygon fill="#63b8ff" stroke="#63b8ff" points="115.8,-221.46 126.38,-220.94 117.78,-214.75 115.8,-221.46"/>
</a>
</g>
</g>
<!-- Node7 -->
<g id="Node000007" class="node">
<title>Node7</title>
<g id="a_Node000007"><a xlink:href="core__comprehensive__test_8cpp.html#a23a89a76051da3d9c138085a52b89771" target="_top" xlink:title=" ">
<polygon fill="white" stroke="#666666" points="238.5,-203 103.5,-203 103.5,-184 238.5,-184 238.5,-203"/>
<text text-anchor="middle" x="171" y="-191" font-family="Helvetica,sans-Serif" font-size="10.00">test_driver_initialization</text>
</a>
</g>
</g>
<!-- Node1&#45;&gt;Node7 -->
<g id="edge7_Node000001_Node000007" class="edge">
<title>Node1&#45;&gt;Node7</title>
<g id="a_edge7_Node000001_Node000007"><a xlink:title=" ">
<path fill="none" stroke="#63b8ff" d="M65.16,-178.91C73.78,-180.11 83.51,-181.46 93.48,-182.85"/>
<polygon fill="#63b8ff" stroke="#63b8ff" points="93.11,-186.33 103.5,-184.24 94.08,-179.4 93.11,-186.33"/>
</a>
</g>
</g>
<!-- Node14 -->
<g id="Node000014" class="node">
<title>Node14</title>
<g id="a_Node000014"><a xlink:href="core__comprehensive__test_8cpp.html#a18321790bb3a72af955b7b75fb4c1e2c" target="_top" xlink:title=" ">
<polygon fill="white" stroke="#666666" points="241,-166 101,-166 101,-147 241,-147 241,-166"/>
<text text-anchor="middle" x="171" y="-154" font-family="Helvetica,sans-Serif" font-size="10.00">test_global_configuration</text>
</a>
</g>
</g>
<!-- Node1&#45;&gt;Node14 -->
<g id="edge14_Node000001_Node000014" class="edge">
<title>Node1&#45;&gt;Node14</title>
<g id="a_edge14_Node000001_Node000014"><a xlink:title=" ">
<path fill="none" stroke="#63b8ff" d="M65.16,-170.33C72.94,-169.3 81.62,-168.15 90.57,-166.97"/>
<polygon fill="#63b8ff" stroke="#63b8ff" points="91.29,-170.41 100.75,-165.63 90.38,-163.47 91.29,-170.41"/>
</a>
</g>
</g>
<!-- Node15 -->
<g id="Node000015" class="node">
<title>Node15</title>
<g id="a_Node000015"><a xlink:href="core__comprehensive__test_8cpp.html#acdf7e542cbf22ddd24d4042951fa2b67" target="_top" xlink:title=" ">
<polygon fill="white" stroke="#666666" points="234,-128.5 108,-128.5 108,-98.5 234,-98.5 234,-128.5"/>
<text text-anchor="start" x="116" y="-116.5" font-family="Helvetica,sans-Serif" font-size="10.00">test_motor_parameter</text>
<text text-anchor="middle" x="171" y="-105.5" font-family="Helvetica,sans-Serif" font-size="10.00">_settings</text>
</a>
</g>
</g>
<!-- Node1&#45;&gt;Node15 -->
<g id="edge19_Node000001_Node000015" class="edge">
<title>Node1&#45;&gt;Node15</title>
<g id="a_edge19_Node000001_Node000015"><a xlink:title=" ">
<path fill="none" stroke="#63b8ff" d="M49.21,-164.91C62.66,-156.94 82.68,-145.64 101,-137.5 105.09,-135.68 109.36,-133.91 113.68,-132.21"/>
<polygon fill="#63b8ff" stroke="#63b8ff" points="115.09,-135.42 123.19,-128.59 112.6,-128.88 115.09,-135.42"/>
</a>
</g>
</g>
<!-- Node16 -->
<g id="Node000016" class="node">
<title>Node16</title>
<g id="a_Node000016"><a xlink:href="core__comprehensive__test_8cpp.html#a264a26cca5257487e044755be5d90b64" target="_top" xlink:title=" ">
<polygon fill="white" stroke="#666666" points="232,-80.5 110,-80.5 110,-50.5 232,-50.5 232,-80.5"/>
<text text-anchor="start" x="118" y="-68.5" font-family="Helvetica,sans-Serif" font-size="10.00">test_ramp_parameter</text>
<text text-anchor="middle" x="171" y="-57.5" font-family="Helvetica,sans-Serif" font-size="10.00">_settings</text>
</a>
</g>
</g>
<!-- Node1&#45;&gt;Node16 -->
<g id="edge24_Node000001_Node000016" class="edge">
<title>Node1&#45;&gt;Node16</title>
<g id="a_edge24_Node000001_Node000016"><a xlink:title=" ">
<path fill="none" stroke="#63b8ff" d="M38.67,-164.87C48.52,-147.39 71.65,-110.33 101,-89.5 103.08,-88.02 105.26,-86.63 107.51,-85.32"/>
<polygon fill="#63b8ff" stroke="#63b8ff" points="109.24,-88.36 116.49,-80.64 106,-82.16 109.24,-88.36"/>
</a>
</g>
</g>
<!-- Node17 -->
<g id="Node000017" class="node">
<title>Node17</title>
<g id="a_Node000017"><a xlink:href="core__comprehensive__test_8cpp.html#afc4946e009df1458d86c324ea206cf63" target="_top" xlink:title=" ">
<polygon fill="white" stroke="#666666" points="223.5,-32.5 118.5,-32.5 118.5,-2.5 223.5,-2.5 223.5,-32.5"/>
<text text-anchor="start" x="126.5" y="-20.5" font-family="Helvetica,sans-Serif" font-size="10.00">test_register_read</text>
<text text-anchor="middle" x="171" y="-9.5" font-family="Helvetica,sans-Serif" font-size="10.00">_write</text>
</a>
</g>
</g>
<!-- Node1&#45;&gt;Node17 -->
<g id="edge29_Node000001_Node000017" class="edge">
<title>Node1&#45;&gt;Node17</title>
<g id="a_edge29_Node000001_Node000017"><a xlink:title=" ">
<path fill="none" stroke="#63b8ff" d="M35.71,-164.93C41.79,-140.7 61.02,-76.42 101,-41.5 103.53,-39.29 106.28,-37.28 109.17,-35.45"/>
<polygon fill="#63b8ff" stroke="#63b8ff" points="111.11,-38.38 118.2,-30.5 107.75,-32.24 111.11,-38.38"/>
</a>
</g>
</g>
<!-- Node4 -->
<g id="Node000004" class="node">
<title>Node4</title>
<g id="a_Node000004"><a xlink:href="TestFramework_8h.html#a57a48f91a141d98e45f82937581e1a97" target="_top" xlink:title="Automatically initialize GPIO14 test indicator if not already done.">
<polygon fill="white" stroke="#666666" points="423.5,-244 282.5,-244 282.5,-225 423.5,-225 423.5,-244"/>
<text text-anchor="middle" x="353" y="-232" font-family="Helvetica,sans-Serif" font-size="10.00">ensure_gpio14_initialized</text>
</a>
</g>
</g>
<!-- Node3&#45;&gt;Node4 -->
<g id="edge3_Node000003_Node000004" class="edge">
<title>Node3&#45;&gt;Node4</title>
<g id="a_edge3_Node000003_Node000004"><a xlink:title=" ">
<path fill="none" stroke="#63b8ff" d="M223.1,-262.43C246.56,-257.34 274.4,-251.31 298.18,-246.16"/>
<polygon fill="#63b8ff" stroke="#63b8ff" points="299.07,-249.55 308.1,-244.01 297.59,-242.71 299.07,-249.55"/>
</a>
</g>
</g>
<!-- Node5 -->
<g id="Node000005" class="node">
<title>Node5</title>
<g id="a_Node000005"><a xlink:href="TestFramework_8h.html#a3967179ac699a5b02ef9787b549409fe" target="_top" xlink:title="Initialize the test progression indicator on GPIO14.">
<polygon fill="white" stroke="#666666" points="578,-249.5 474,-249.5 474,-219.5 578,-219.5 578,-249.5"/>
<text text-anchor="start" x="482" y="-237.5" font-family="Helvetica,sans-Serif" font-size="10.00">init_test_progress</text>
<text text-anchor="middle" x="526" y="-226.5" font-family="Helvetica,sans-Serif" font-size="10.00">_indicator</text>
</a>
</g>
</g>
<!-- Node4&#45;&gt;Node5 -->
<g id="edge4_Node000004_Node000005" class="edge">
<title>Node4&#45;&gt;Node5</title>
<g id="a_edge4_Node000004_Node000005"><a xlink:title=" ">
<path fill="none" stroke="#63b8ff" d="M423.55,-234.5C436.83,-234.5 450.64,-234.5 463.64,-234.5"/>
<polygon fill="#63b8ff" stroke="#63b8ff" points="463.87,-238 473.87,-234.5 463.87,-231 463.87,-238"/>
</a>
</g>
</g>
<!-- Node6&#45;&gt;Node4 -->
<g id="edge6_Node000006_Node000004" class="edge">
<title>Node6&#45;&gt;Node4</title>
<g id="a_edge6_Node000006_Node000004"><a xlink:title=" ">
<path fill="none" stroke="#63b8ff" d="M228.95,-231.77C242.76,-232.07 257.77,-232.41 272.41,-232.73"/>
<polygon fill="#63b8ff" stroke="#63b8ff" points="272.4,-236.23 282.47,-232.95 272.55,-229.23 272.4,-236.23"/>
</a>
</g>
</g>
<!-- Node8 -->
<g id="Node000008" class="node">
<title>Node8</title>
<g id="a_Node000008"><a xlink:href="namespacetmc5160__test__config.html#a8d4169028f909fa4c3bcaf35a1130f19" target="_top" xlink:title="Helper function to populate DriverConfig from 17HS4401S direct drive motor configuration.">
<polygon fill="white" stroke="#666666" points="429,-159 277,-159 277,-118 429,-118 429,-159"/>
<text text-anchor="start" x="285" y="-147" font-family="Helvetica,sans-Serif" font-size="10.00">tmc5160_test_config</text>
<text text-anchor="start" x="285" y="-136" font-family="Helvetica,sans-Serif" font-size="10.00">::ConfigureDriverFromMotor</text>
<text text-anchor="middle" x="353" y="-125" font-family="Helvetica,sans-Serif" font-size="10.00">_17HS4401S_Direct</text>
</a>
</g>
</g>
<!-- Node7&#45;&gt;Node8 -->
<g id="edge8_Node000007_Node000008" class="edge">
<title>Node7&#45;&gt;Node8</title>
<g id="a_edge8_Node000007_Node000008"><a xlink:title=" ">
<path fill="none" stroke="#63b8ff" d="M207.9,-183.94C218.58,-181.01 230.29,-177.71 241,-174.5 253.76,-170.68 267.28,-166.44 280.34,-162.26"/>
<polygon fill="#63b8ff" stroke="#63b8ff" points="281.77,-165.48 290.22,-159.08 279.62,-158.82 281.77,-165.48"/>
</a>
</g>
</g>
<!-- Node9 -->
<g id="Node000009" class="node">
<title>Node9</title>
<g id="a_Node000009"><a xlink:href="namespacetmc5160__test__config.html#ad066428e88b18d0b8a60d3cbb3866a72" target="_top" xlink:title="Helper function to populate DriverConfig from 17HS4401S gearbox motor configuration.">
<polygon fill="white" stroke="#666666" points="429,-100 277,-100 277,-59 429,-59 429,-100"/>
<text text-anchor="start" x="285" y="-88" font-family="Helvetica,sans-Serif" font-size="10.00">tmc5160_test_config</text>
<text text-anchor="start" x="285" y="-77" font-family="Helvetica,sans-Serif" font-size="10.00">::ConfigureDriverFromMotor</text>
<text text-anchor="middle" x="353" y="-66" font-family="Helvetica,sans-Serif" font-size="10.00">_17HS4401S_Gearbox</text>
</a>
</g>
</g>
<!-- Node7&#45;&gt;Node9 -->
<g id="edge9_Node000007_Node000009" class="edge">
<title>Node7&#45;&gt;Node9</title>
<g id="a_edge9_Node000007_Node000009"><a xlink:title=" ">
<path fill="none" stroke="#63b8ff" d="M224.67,-183.89C230.53,-181.43 236.13,-178.36 241,-174.5 267.19,-153.75 251.88,-130.54 277,-108.5 278,-107.62 279.04,-106.76 280.1,-105.93"/>
<polygon fill="#63b8ff" stroke="#63b8ff" points="282.41,-108.59 288.67,-100.04 278.44,-102.82 282.41,-108.59"/>
</a>
</g>
</g>
<!-- Node10 -->
<g id="Node000010" class="node">
<title>Node10</title>
<g id="a_Node000010"><a xlink:href="namespacetmc5160__test__config.html#a3b6d57d96a6198cd1018a9e5c55c0c6b" target="_top" xlink:title="Helper function to populate DriverConfig from Applied Motion 5034 motor configuration.">
<polygon fill="white" stroke="#666666" points="429,-41 277,-41 277,0 429,0 429,-41"/>
<text text-anchor="start" x="285" y="-29" font-family="Helvetica,sans-Serif" font-size="10.00">tmc5160_test_config</text>
<text text-anchor="start" x="285" y="-18" font-family="Helvetica,sans-Serif" font-size="10.00">::ConfigureDriverFromMotor</text>
<text text-anchor="middle" x="353" y="-7" font-family="Helvetica,sans-Serif" font-size="10.00">_AppliedMotion_5034</text>
</a>
</g>
</g>
<!-- Node7&#45;&gt;Node10 -->
<g id="edge10_Node000007_Node000010" class="edge">
<title>Node7&#45;&gt;Node10</title>
<g id="a_edge10_Node000007_Node000010"><a xlink:title=" ">
<path fill="none" stroke="#63b8ff" d="M227.59,-183.9C232.52,-181.43 237.11,-178.34 241,-174.5 282.12,-133.86 237.97,-92.15 277,-49.5 277.53,-48.92 278.07,-48.35 278.63,-47.8"/>
<polygon fill="#63b8ff" stroke="#63b8ff" points="281.08,-50.3 286.46,-41.17 276.56,-44.96 281.08,-50.3"/>
</a>
</g>
</g>
<!-- Node11 -->
<g id="Node000011" class="node">
<title>Node11</title>
<g id="a_Node000011"><a xlink:href="core__comprehensive__test_8cpp.html#a12a1e9488c1c4af4e9d79e2f8e390c5f" target="_top" xlink:title=" ">
<polygon fill="white" stroke="#666666" points="405.5,-196 300.5,-196 300.5,-177 405.5,-177 405.5,-196"/>
<text text-anchor="middle" x="353" y="-184" font-family="Helvetica,sans-Serif" font-size="10.00">create_test_driver</text>
</a>
</g>
</g>
<!-- Node7&#45;&gt;Node11 -->
<g id="edge11_Node000007_Node000011" class="edge">
<title>Node7&#45;&gt;Node11</title>
<g id="a_edge11_Node000007_Node000011"><a xlink:title=" ">
<path fill="none" stroke="#63b8ff" d="M238.51,-190.91C255.43,-190.26 273.54,-189.55 290.21,-188.9"/>
<polygon fill="#63b8ff" stroke="#63b8ff" points="290.53,-192.39 300.39,-188.51 290.26,-185.4 290.53,-192.39"/>
</a>
</g>
</g>
<!-- Node12 -->
<g id="Node000012" class="node">
<title>Node12</title>
<g id="a_Node000012"><a xlink:href="namespacetmc5160__test__config.html#aa0c20662463e4685d1011a24ff3a576e" target="_top" xlink:title="Complete pin configuration for all tests.">
<polygon fill="white" stroke="#666666" points="587,-161.5 465,-161.5 465,-131.5 587,-131.5 587,-161.5"/>
<text text-anchor="start" x="473" y="-149.5" font-family="Helvetica,sans-Serif" font-size="10.00">tmc5160_test_config</text>
<text text-anchor="middle" x="526" y="-138.5" font-family="Helvetica,sans-Serif" font-size="10.00">::GetDefaultPinConfig</text>
</a>
</g>
</g>
<!-- Node11&#45;&gt;Node12 -->
<g id="edge12_Node000011_Node000012" class="edge">
<title>Node11&#45;&gt;Node12</title>
<g id="a_edge12_Node000011_Node000012"><a xlink:title=" ">
<path fill="none" stroke="#63b8ff" d="M394.96,-176.92C412.96,-172.71 434.62,-167.64 455.05,-162.86"/>
<polygon fill="#63b8ff" stroke="#63b8ff" points="456.02,-166.23 464.96,-160.55 454.42,-159.42 456.02,-166.23"/>
</a>
</g>
</g>
<!-- Node13 -->
<g id="Node000013" class="node">
<title>Node13</title>
<g id="a_Node000013"><a xlink:href="core__comprehensive__test_8cpp.html#a31cfb3926eb0c837bde126c1120fb3b9" target="_top" xlink:title="Verify mode pins match expected communication mode.">
<polygon fill="white" stroke="#666666" points="577.5,-199 474.5,-199 474.5,-180 577.5,-180 577.5,-199"/>
<text text-anchor="middle" x="526" y="-187" font-family="Helvetica,sans-Serif" font-size="10.00">verify_mode_pins</text>
</a>
</g>
</g>
<!-- Node11&#45;&gt;Node13 -->
<g id="edge13_Node000011_Node000013" class="edge">
<title>Node11&#45;&gt;Node13</title>
<g id="a_edge13_Node000011_Node000013"><a xlink:title=" ">
<path fill="none" stroke="#63b8ff" d="M405.77,-187.41C424.18,-187.73 445.09,-188.1 464.19,-188.43"/>
<polygon fill="#63b8ff" stroke="#63b8ff" points="464.23,-191.93 474.29,-188.61 464.35,-184.94 464.23,-191.93"/>
</a>
</g>
</g>
<!-- Node14&#45;&gt;Node8 -->
<g id="edge15_Node000014_Node000008" class="edge">
<title>Node14&#45;&gt;Node8</title>
<g id="a_edge15_Node000014_Node000008"><a xlink:title=" ">
<path fill="none" stroke="#63b8ff" d="M241.08,-149.59C249.49,-148.75 258.15,-147.88 266.76,-147.02"/>
<polygon fill="#63b8ff" stroke="#63b8ff" points="267.22,-150.5 276.82,-146.02 266.52,-143.53 267.22,-150.5"/>
</a>
</g>
</g>
<!-- Node14&#45;&gt;Node9 -->
<g id="edge16_Node000014_Node000009" class="edge">
<title>Node14&#45;&gt;Node9</title>
<g id="a_edge16_Node000014_Node000009"><a xlink:title=" ">
<path fill="none" stroke="#63b8ff" d="M217.18,-146.93C225.33,-144.41 233.59,-141.3 241,-137.5 259.29,-128.13 259.21,-118.77 277,-108.5 279.36,-107.14 281.79,-105.82 284.27,-104.54"/>
<polygon fill="#63b8ff" stroke="#63b8ff" points="285.97,-107.61 293.43,-100.09 282.91,-101.31 285.97,-107.61"/>
</a>
</g>
</g>
<!-- Node14&#45;&gt;Node10 -->
<g id="edge17_Node000014_Node000010" class="edge">
<title>Node14&#45;&gt;Node10</title>
<g id="a_edge17_Node000014_Node000010"><a xlink:title=" ">
<path fill="none" stroke="#63b8ff" d="M226.14,-146.93C231.54,-144.47 236.63,-141.38 241,-137.5 272.61,-109.46 246.83,-79.09 277,-49.5 277.8,-48.72 278.62,-47.96 279.46,-47.22"/>
<polygon fill="#63b8ff" stroke="#63b8ff" points="281.7,-49.91 287.55,-41.07 277.47,-44.33 281.7,-49.91"/>
</a>
</g>
</g>
<!-- Node14&#45;&gt;Node11 -->
<g id="edge18_Node000014_Node000011" class="edge">
<title>Node14&#45;&gt;Node11</title>
<g id="a_edge18_Node000014_Node000011"><a xlink:title=" ">
<path fill="none" stroke="#63b8ff" d="M229.45,-166.07C248.81,-169.3 270.5,-172.92 290.18,-176.2"/>
<polygon fill="#63b8ff" stroke="#63b8ff" points="289.83,-179.69 300.27,-177.88 290.98,-172.78 289.83,-179.69"/>
</a>
</g>
</g>
<!-- Node15&#45;&gt;Node8 -->
<g id="edge20_Node000015_Node000008" class="edge">
<title>Node15&#45;&gt;Node8</title>
<g id="a_edge20_Node000015_Node000008"><a xlink:title=" ">
<path fill="none" stroke="#63b8ff" d="M234.2,-122.14C244.7,-123.6 255.76,-125.13 266.73,-126.66"/>
<polygon fill="#63b8ff" stroke="#63b8ff" points="266.38,-130.14 276.76,-128.05 267.34,-123.21 266.38,-130.14"/>
</a>
</g>
</g>
<!-- Node15&#45;&gt;Node9 -->
<g id="edge21_Node000015_Node000009" class="edge">
<title>Node15&#45;&gt;Node9</title>
<g id="a_edge21_Node000015_Node000009"><a xlink:title=" ">
<path fill="none" stroke="#63b8ff" d="M234.2,-101.75C244.7,-99.77 255.76,-97.68 266.73,-95.61"/>
<polygon fill="#63b8ff" stroke="#63b8ff" points="267.59,-99.01 276.76,-93.71 266.29,-92.13 267.59,-99.01"/>
</a>
</g>
</g>
<!-- Node15&#45;&gt;Node10 -->
<g id="edge22_Node000015_Node000010" class="edge">
<title>Node15&#45;&gt;Node10</title>
<g id="a_edge22_Node000015_Node000010"><a xlink:title=" ">
<path fill="none" stroke="#63b8ff" d="M224.59,-98.39C230.33,-95.82 235.93,-92.87 241,-89.5 260.92,-76.27 257.31,-63.07 277,-49.5 278.68,-48.34 280.41,-47.22 282.19,-46.14"/>
<polygon fill="#63b8ff" stroke="#63b8ff" points="284.33,-48.95 291.35,-41.03 280.92,-42.84 284.33,-48.95"/>
</a>
</g>
</g>
<!-- Node15&#45;&gt;Node11 -->
<g id="edge23_Node000015_Node000011" class="edge">
<title>Node15&#45;&gt;Node11</title>
<g id="a_edge23_Node000015_Node000011"><a xlink:title=" ">
<path fill="none" stroke="#63b8ff" d="M222.31,-128.6C228.76,-131.22 235.15,-134.19 241,-137.5 259.13,-147.75 258.44,-158.04 277,-167.5 281.59,-169.84 286.5,-171.91 291.51,-173.73"/>
<polygon fill="#63b8ff" stroke="#63b8ff" points="290.65,-177.13 301.25,-176.94 292.84,-170.48 290.65,-177.13"/>
</a>
</g>
</g>
<!-- Node16&#45;&gt;Node8 -->
<g id="edge25_Node000016_Node000008" class="edge">
<title>Node16&#45;&gt;Node8</title>
<g id="a_edge25_Node000016_Node000008"><a xlink:title=" ">
<path fill="none" stroke="#63b8ff" d="M218.39,-80.56C226.02,-83.34 233.79,-86.36 241,-89.5 257.59,-96.71 260.58,-100.91 277,-108.5 280.87,-110.29 284.87,-112.07 288.93,-113.83"/>
<polygon fill="#63b8ff" stroke="#63b8ff" points="287.87,-117.19 298.44,-117.88 290.61,-110.74 287.87,-117.19"/>
</a>
</g>
</g>
<!-- Node16&#45;&gt;Node9 -->
<g id="edge26_Node000016_Node000009" class="edge">
<title>Node16&#45;&gt;Node9</title>
<g id="a_edge26_Node000016_Node000009"><a xlink:title=" ">
<path fill="none" stroke="#63b8ff" d="M232.19,-70.18C243.25,-71.04 255,-71.96 266.64,-72.86"/>
<polygon fill="#63b8ff" stroke="#63b8ff" points="266.58,-76.37 276.82,-73.65 267.12,-69.39 266.58,-76.37"/>
</a>
</g>
</g>
<!-- Node16&#45;&gt;Node10 -->
<g id="edge27_Node000016_Node000010" class="edge">
<title>Node16&#45;&gt;Node10</title>
<g id="a_edge27_Node000016_Node000010"><a xlink:title=" ">
<path fill="none" stroke="#63b8ff" d="M232.19,-50.45C243.37,-47.66 255.24,-44.69 266.99,-41.75"/>
<polygon fill="#63b8ff" stroke="#63b8ff" points="267.97,-45.12 276.82,-39.29 266.27,-38.32 267.97,-45.12"/>
</a>
</g>
</g>
<!-- Node16&#45;&gt;Node11 -->
<g id="edge28_Node000016_Node000011" class="edge">
<title>Node16&#45;&gt;Node11</title>
<g id="a_edge28_Node000016_Node000011"><a xlink:title=" ">
<path fill="none" stroke="#63b8ff" d="M228.45,-80.65C232.97,-83.16 237.24,-86.09 241,-89.5 269.28,-115.15 247.63,-143.1 277,-167.5 281.09,-170.9 285.71,-173.7 290.6,-176.01"/>
<polygon fill="#63b8ff" stroke="#63b8ff" points="289.68,-179.41 300.26,-179.87 292.28,-172.91 289.68,-179.41"/>
</a>
</g>
</g>
<!-- Node17&#45;&gt;Node8 -->
<g id="edge30_Node000017_Node000008" class="edge">
<title>Node17&#45;&gt;Node8</title>
<g id="a_edge30_Node000017_Node000008"><a xlink:title=" ">
<path fill="none" stroke="#63b8ff" d="M223.7,-30.61C229.93,-33.55 235.89,-37.14 241,-41.5 266.72,-63.44 251.79,-85.98 277,-108.5 278.33,-109.69 279.71,-110.83 281.14,-111.93"/>
<polygon fill="#63b8ff" stroke="#63b8ff" points="279.51,-115.06 289.74,-117.79 283.44,-109.27 279.51,-115.06"/>
</a>
</g>
</g>
<!-- Node17&#45;&gt;Node9 -->
<g id="edge31_Node000017_Node000009" class="edge">
<title>Node17&#45;&gt;Node9</title>
<g id="a_edge31_Node000017_Node000009"><a xlink:title=" ">
<path fill="none" stroke="#63b8ff" d="M215.57,-32.51C235.69,-39.44 260.08,-47.84 282.63,-55.61"/>
<polygon fill="#63b8ff" stroke="#63b8ff" points="281.57,-58.94 292.17,-58.89 283.85,-52.33 281.57,-58.94"/>
</a>
</g>
</g>
<!-- Node17&#45;&gt;Node10 -->
<g id="edge32_Node000017_Node000010" class="edge">
<title>Node17&#45;&gt;Node10</title>
<g id="a_edge32_Node000017_Node000010"><a xlink:title=" ">
<path fill="none" stroke="#63b8ff" d="M223.58,-18.36C237.09,-18.58 252.01,-18.83 266.77,-19.08"/>
<polygon fill="#63b8ff" stroke="#63b8ff" points="266.88,-22.58 276.93,-19.25 266.99,-15.58 266.88,-22.58"/>
</a>
</g>
</g>
<!-- Node17&#45;&gt;Node11 -->
<g id="edge33_Node000017_Node000011" class="edge">
<title>Node17&#45;&gt;Node11</title>
<g id="a_edge33_Node000017_Node000011"><a xlink:title=" ">
<path fill="none" stroke="#63b8ff" d="M223.61,-29.11C230.08,-32.29 236.12,-36.34 241,-41.5 281,-83.83 235.2,-126.94 277,-167.5 281.04,-171.42 285.76,-174.56 290.84,-177.08"/>
<polygon fill="#63b8ff" stroke="#63b8ff" points="289.7,-180.4 300.28,-180.97 292.37,-173.93 289.7,-180.4"/>
</a>
</g>
</g>
</g>
</svg>
