<?xml version="1.0" encoding="UTF-8" standalone="no"?>
<!DOCTYPE svg PUBLIC "-//W3C//DTD SVG 1.1//EN"
 "http://www.w3.org/Graphics/SVG/1.1/DTD/svg11.dtd">
<!-- Generated by graphviz version 2.43.0 (0)
 -->
<!-- Title: statusUpdateTask Pages: 1 -->
<svg width="507pt" height="86pt"
 viewBox="0.00 0.00 507.00 86.00" xmlns="http://www.w3.org/2000/svg" xmlns:xlink="http://www.w3.org/1999/xlink">
<g id="graph0" class="graph" transform="scale(1 1) rotate(0) translate(4 82)">
<title>statusUpdateTask</title>
<!-- Node1 -->
<g id="Node000001" class="node">
<title>Node1</title>
<g id="a_Node000001"><a xlink:title="FreeRTOS task: periodically send simulated STATUS_UPDATE messages.">
<polygon fill="#999999" stroke="#666666" points="104,-48.5 0,-48.5 0,-29.5 104,-29.5 104,-48.5"/>
<text text-anchor="middle" x="52" y="-36.5" font-family="Helvetica,sans-Serif" font-size="10.00">statusUpdateTask</text>
</a>
</g>
</g>
<!-- Node2 -->
<g id="Node000002" class="node">
<title>Node2</title>
<g id="a_Node000002"><a xlink:href="namespaceEspNowReceiver.html#ad20a4032cfbaf4698d2a894139c339ae" target="_top" xlink:title="Send STATUS_UPDATE with cycle count and state.">
<polygon fill="white" stroke="#666666" points="268,-78 140,-78 140,-48 268,-48 268,-78"/>
<text text-anchor="start" x="148" y="-66" font-family="Helvetica,sans-Serif" font-size="10.00">EspNowReceiver::send</text>
<text text-anchor="middle" x="204" y="-55" font-family="Helvetica,sans-Serif" font-size="10.00">_status_update</text>
</a>
</g>
</g>
<!-- Node1&#45;&gt;Node2 -->
<g id="edge1_Node000001_Node000002" class="edge">
<title>Node1&#45;&gt;Node2</title>
<g id="a_edge1_Node000001_Node000002"><a xlink:title=" ">
<path fill="none" stroke="#63b8ff" d="M104.2,-47.19C112.44,-48.51 121.1,-49.9 129.73,-51.28"/>
<polygon fill="#63b8ff" stroke="#63b8ff" points="129.39,-54.77 139.82,-52.89 130.5,-47.86 129.39,-54.77"/>
</a>
</g>
</g>
<!-- Node5 -->
<g id="Node000005" class="node">
<title>Node5</title>
<g id="a_Node000005"><a xlink:href="namespaceEspNowReceiver.html#a24fe7b15e7685c89e8468b1fdbcbaf7d" target="_top" xlink:title="Send TEST_COMPLETE message.">
<polygon fill="white" stroke="#666666" points="268,-30 140,-30 140,0 268,0 268,-30"/>
<text text-anchor="start" x="148" y="-18" font-family="Helvetica,sans-Serif" font-size="10.00">EspNowReceiver::send</text>
<text text-anchor="middle" x="204" y="-7" font-family="Helvetica,sans-Serif" font-size="10.00">_test_complete</text>
</a>
</g>
</g>
<!-- Node1&#45;&gt;Node5 -->
<g id="edge4_Node000001_Node000005" class="edge">
<title>Node1&#45;&gt;Node5</title>
<g id="a_edge4_Node000001_Node000005"><a xlink:title=" ">
<path fill="none" stroke="#63b8ff" d="M104.2,-30.81C112.44,-29.49 121.1,-28.1 129.73,-26.72"/>
<polygon fill="#63b8ff" stroke="#63b8ff" points="130.5,-30.14 139.82,-25.11 129.39,-23.23 130.5,-30.14"/>
</a>
</g>
</g>
<!-- Node3 -->
<g id="Node000003" class="node">
<title>Node3</title>
<g id="a_Node000003"><a xlink:href="espnow__receiver_8cpp.html#af394d93fad387639cb5c155cfd037163" target="_top" xlink:title=" ">
<polygon fill="white" stroke="#666666" points="396,-48.5 304,-48.5 304,-29.5 396,-29.5 396,-48.5"/>
<text text-anchor="middle" x="350" y="-36.5" font-family="Helvetica,sans-Serif" font-size="10.00">sendPacketToUi</text>
</a>
</g>
</g>
<!-- Node2&#45;&gt;Node3 -->
<g id="edge2_Node000002_Node000003" class="edge">
<title>Node2&#45;&gt;Node3</title>
<g id="a_edge2_Node000002_Node000003"><a xlink:title=" ">
<path fill="none" stroke="#63b8ff" d="M268.16,-52.47C276.65,-51.06 285.3,-49.62 293.64,-48.23"/>
<polygon fill="#63b8ff" stroke="#63b8ff" points="294.34,-51.66 303.63,-46.56 293.19,-44.75 294.34,-51.66"/>
</a>
</g>
</g>
<!-- Node4 -->
<g id="Node000004" class="node">
<title>Node4</title>
<g id="a_Node000004"><a xlink:href="espnow__protocol_8hpp.html#afa7c999b99fb5716dc9d60af3a151d11" target="_top" xlink:title="Compute CRC16&#45;CCITT (poly 0x1021, init 0xFFFF).">
<polygon fill="white" stroke="#666666" points="499,-48.5 432,-48.5 432,-29.5 499,-29.5 499,-48.5"/>
<text text-anchor="middle" x="465.5" y="-36.5" font-family="Helvetica,sans-Serif" font-size="10.00">Crc16Ccitt</text>
</a>
</g>
</g>
<!-- Node3&#45;&gt;Node4 -->
<g id="edge3_Node000003_Node000004" class="edge">
<title>Node3&#45;&gt;Node4</title>
<g id="a_edge3_Node000003_Node000004"><a xlink:title=" ">
<path fill="none" stroke="#63b8ff" d="M396.18,-39C404.53,-39 413.22,-39 421.5,-39"/>
<polygon fill="#63b8ff" stroke="#63b8ff" points="421.71,-42.5 431.71,-39 421.71,-35.5 421.71,-42.5"/>
</a>
</g>
</g>
<!-- Node5&#45;&gt;Node3 -->
<g id="edge5_Node000005_Node000003" class="edge">
<title>Node5&#45;&gt;Node3</title>
<g id="a_edge5_Node000005_Node000003"><a xlink:title=" ">
<path fill="none" stroke="#63b8ff" d="M268.16,-25.53C276.65,-26.94 285.3,-28.38 293.64,-29.77"/>
<polygon fill="#63b8ff" stroke="#63b8ff" points="293.19,-33.25 303.63,-31.44 294.34,-26.34 293.19,-33.25"/>
</a>
</g>
</g>
</g>
</svg>
