<?xml version="1.0" encoding="UTF-8" standalone="no"?>
<!DOCTYPE svg PUBLIC "-//W3C//DTD SVG 1.1//EN"
 "http://www.w3.org/Graphics/SVG/1.1/DTD/svg11.dtd">
<!-- Generated by graphviz version 2.43.0 (0)
 -->
<!-- Title: test_short_circuit_protection Pages: 1 -->
<svg width="445pt" height="142pt"
 viewBox="0.00 0.00 445.00 141.50" xmlns="http://www.w3.org/2000/svg" xmlns:xlink="http://www.w3.org/1999/xlink">
<g id="graph0" class="graph" transform="scale(1 1) rotate(0) translate(4 137.5)">
<title>test_short_circuit_protection</title>
<!-- Node1 -->
<g id="Node000001" class="node">
<title>Node1</title>
<g id="a_Node000001"><a xlink:title=" ">
<polygon fill="#999999" stroke="#666666" points="101,-67.5 0,-67.5 0,-37.5 101,-37.5 101,-67.5"/>
<text text-anchor="start" x="8" y="-55.5" font-family="Helvetica,sans-Serif" font-size="10.00">test_short_circuit</text>
<text text-anchor="middle" x="50.5" y="-44.5" font-family="Helvetica,sans-Serif" font-size="10.00">_protection</text>
</a>
</g>
</g>
<!-- Node2 -->
<g id="Node000002" class="node">
<title>Node2</title>
<g id="a_Node000002"><a xlink:href="internal__ramp__comprehensive__test_8cpp.html#a60927fcbf4958948b94cbd922284b8a9" target="_top" xlink:title="Create and initialize a test driver instance.">
<polygon fill="white" stroke="#666666" points="242,-62 137,-62 137,-43 242,-43 242,-62"/>
<text text-anchor="middle" x="189.5" y="-50" font-family="Helvetica,sans-Serif" font-size="10.00">create_test_driver</text>
</a>
</g>
</g>
<!-- Node1&#45;&gt;Node2 -->
<g id="edge1_Node000001_Node000002" class="edge">
<title>Node1&#45;&gt;Node2</title>
<g id="a_edge1_Node000001_Node000002"><a xlink:title=" ">
<path fill="none" stroke="#63b8ff" d="M101.35,-52.5C109.51,-52.5 118.05,-52.5 126.46,-52.5"/>
<polygon fill="#63b8ff" stroke="#63b8ff" points="126.62,-56 136.62,-52.5 126.62,-49 126.62,-56"/>
</a>
</g>
</g>
<!-- Node3 -->
<g id="Node000003" class="node">
<title>Node3</title>
<g id="a_Node000003"><a xlink:href="namespacetmc51x0__test__config.html#a01546734dfbb01aa89c186b7bdf20bab" target="_top" xlink:title="Configure driver from test rig selection.">
<polygon fill="white" stroke="#666666" points="437,-115.5 278,-115.5 278,-85.5 437,-85.5 437,-115.5"/>
<text text-anchor="start" x="286" y="-103.5" font-family="Helvetica,sans-Serif" font-size="10.00">tmc51x0_test_config</text>
<text text-anchor="middle" x="357.5" y="-92.5" font-family="Helvetica,sans-Serif" font-size="10.00">::ConfigureDriverFromTestRig</text>
</a>
</g>
</g>
<!-- Node2&#45;&gt;Node3 -->
<g id="edge2_Node000002_Node000003" class="edge">
<title>Node2&#45;&gt;Node3</title>
<g id="a_edge2_Node000002_Node000003"><a xlink:title=" ">
<path fill="none" stroke="#63b8ff" d="M223.69,-62.1C243.98,-67.97 270.58,-75.65 294.63,-82.61"/>
<polygon fill="#63b8ff" stroke="#63b8ff" points="293.83,-86.02 304.41,-85.44 295.77,-79.3 293.83,-86.02"/>
</a>
</g>
</g>
<!-- Node4 -->
<g id="Node000004" class="node">
<title>Node4</title>
<g id="a_Node000004"><a xlink:href="namespacetmc51x0__test__config.html#ad88c0c8419d1ef47a6ba7e56b79936c7" target="_top" xlink:title="Complete pin configuration for all tests.">
<polygon fill="white" stroke="#666666" points="418.5,-67.5 296.5,-67.5 296.5,-37.5 418.5,-37.5 418.5,-67.5"/>
<text text-anchor="start" x="304.5" y="-55.5" font-family="Helvetica,sans-Serif" font-size="10.00">tmc51x0_test_config</text>
<text text-anchor="middle" x="357.5" y="-44.5" font-family="Helvetica,sans-Serif" font-size="10.00">::GetDefaultPinConfig</text>
</a>
</g>
</g>
<!-- Node2&#45;&gt;Node4 -->
<g id="edge4_Node000002_Node000004" class="edge">
<title>Node2&#45;&gt;Node4</title>
<g id="a_edge4_Node000002_Node000004"><a xlink:title=" ">
<path fill="none" stroke="#63b8ff" d="M242.11,-52.5C256.11,-52.5 271.5,-52.5 286.34,-52.5"/>
<polygon fill="#63b8ff" stroke="#63b8ff" points="286.49,-56 296.49,-52.5 286.49,-49 286.49,-56"/>
</a>
</g>
</g>
<!-- Node5 -->
<g id="Node000005" class="node">
<title>Node5</title>
<g id="a_Node000005"><a xlink:href="internal__ramp__comprehensive__test_8cpp.html#a266d3b939b723d24f9230b6b22b3b8a9" target="_top" xlink:title="Verify mode pins match expected communication mode.">
<polygon fill="white" stroke="#666666" points="409,-19 306,-19 306,0 409,0 409,-19"/>
<text text-anchor="middle" x="357.5" y="-7" font-family="Helvetica,sans-Serif" font-size="10.00">verify_mode_pins</text>
</a>
</g>
</g>
<!-- Node2&#45;&gt;Node5 -->
<g id="edge5_Node000002_Node000005" class="edge">
<title>Node2&#45;&gt;Node5</title>
<g id="a_edge5_Node000002_Node000005"><a xlink:title=" ">
<path fill="none" stroke="#63b8ff" d="M224.51,-42.91C240.68,-38.42 260.31,-33.07 278,-28.5 287.07,-26.16 296.76,-23.74 306.12,-21.46"/>
<polygon fill="#63b8ff" stroke="#63b8ff" points="307.21,-24.79 316.1,-19.03 305.56,-17.99 307.21,-24.79"/>
</a>
</g>
</g>
<!-- Node3&#45;&gt;Node3 -->
<g id="edge3_Node000003_Node000003" class="edge">
<title>Node3&#45;&gt;Node3</title>
<g id="a_edge3_Node000003_Node000003"><a xlink:title=" ">
<path fill="none" stroke="#63b8ff" d="M327.97,-115.78C321.41,-124.91 331.25,-133.5 357.5,-133.5 373.09,-133.5 382.89,-130.47 386.91,-126.1"/>
<polygon fill="#63b8ff" stroke="#63b8ff" points="390.41,-125.82 387.03,-115.78 383.41,-125.73 390.41,-125.82"/>
</a>
</g>
</g>
</g>
</svg>
