<?xml version="1.0" encoding="UTF-8" standalone="no"?>
<!DOCTYPE svg PUBLIC "-//W3C//DTD SVG 1.1//EN"
 "http://www.w3.org/Graphics/SVG/1.1/DTD/svg11.dtd">
<!-- Generated by graphviz version 2.43.0 (0)
 -->
<!-- Title: internal_ramp_sinusoidal.cpp Pages: 1 -->
<svg width="1727pt" height="379pt"
 viewBox="0.00 0.00 1727.00 379.00" xmlns="http://www.w3.org/2000/svg" xmlns:xlink="http://www.w3.org/1999/xlink">
<g id="graph0" class="graph" transform="scale(1 1) rotate(0) translate(4 375)">
<title>internal_ramp_sinusoidal.cpp</title>
<!-- Node1 -->
<g id="Node000001" class="node">
<title>Node1</title>
<g id="a_Node000001"><a xlink:title="Sinusoidal motion pattern example for TMC51x0 stepper motor driver.">
<polygon fill="#999999" stroke="#666666" points="1480,-371 1320,-371 1320,-352 1480,-352 1480,-371"/>
<text text-anchor="middle" x="1400" y="-359" font-family="Helvetica,sans-Serif" font-size="10.00">internal_ramp_sinusoidal.cpp</text>
</a>
</g>
</g>
<!-- Node2 -->
<g id="Node000002" class="node">
<title>Node2</title>
<g id="a_Node000002"><a xlink:href="tmc51x0_8hpp.html" target="_top" xlink:title="Main TMC51x0 stepper motor driver interface and subsystem classes (TMC5130 &amp; TMC5160)">
<polygon fill="white" stroke="#666666" points="267,-244.5 187,-244.5 187,-225.5 267,-225.5 267,-244.5"/>
<text text-anchor="middle" x="227" y="-232.5" font-family="Helvetica,sans-Serif" font-size="10.00">tmc51x0.hpp</text>
</a>
</g>
</g>
<!-- Node1&#45;&gt;Node2 -->
<g id="edge1_Node000001_Node000002" class="edge">
<title>Node1&#45;&gt;Node2</title>
<g id="a_edge1_Node000001_Node000002"><a xlink:title=" ">
<path fill="none" stroke="#63b8ff" d="M1319.89,-359.21C1179.61,-356.2 880.56,-346.47 630,-316 471.13,-296.68 431.78,-286.69 276,-250 272.39,-249.15 268.64,-248.2 264.9,-247.21"/>
<polygon fill="#63b8ff" stroke="#63b8ff" points="265.69,-243.8 255.12,-244.53 263.84,-250.55 265.69,-243.8"/>
</a>
</g>
</g>
<!-- Node18 -->
<g id="Node000018" class="node">
<title>Node18</title>
<g id="a_Node000018"><a xlink:href="esp32__tmc51x0__bus_8hpp.html" target="_top" xlink:title="ESP32&#45;specific communication interfaces for TMC51x0 using SPI and UART (TMC5130 &amp; TMC51x0)">
<polygon fill="white" stroke="#666666" points="1235,-250 1085,-250 1085,-220 1235,-220 1235,-250"/>
<text text-anchor="start" x="1093" y="-238" font-family="Helvetica,sans-Serif" font-size="10.00">test_config/esp32_tmc51x0</text>
<text text-anchor="middle" x="1160" y="-227" font-family="Helvetica,sans-Serif" font-size="10.00">_bus.hpp</text>
</a>
</g>
</g>
<!-- Node1&#45;&gt;Node18 -->
<g id="edge24_Node000001_Node000018" class="edge">
<title>Node1&#45;&gt;Node18</title>
<g id="a_edge24_Node000001_Node000018"><a xlink:title=" ">
<path fill="none" stroke="#63b8ff" d="M1383.5,-351.94C1345.14,-332.04 1249.18,-282.26 1196.33,-254.85"/>
<polygon fill="#63b8ff" stroke="#63b8ff" points="1197.79,-251.66 1187.3,-250.16 1194.56,-257.87 1197.79,-251.66"/>
</a>
</g>
</g>
<!-- Node23 -->
<g id="Node000023" class="node">
<title>Node23</title>
<g id="a_Node000023"><a xlink:title=" ">
<polygon fill="#e0e0e0" stroke="#999999" points="1481.5,-184 1418.5,-184 1418.5,-165 1481.5,-165 1481.5,-184"/>
<text text-anchor="middle" x="1450" y="-172" font-family="Helvetica,sans-Serif" font-size="10.00">esp_log.h</text>
</a>
</g>
</g>
<!-- Node1&#45;&gt;Node23 -->
<g id="edge46_Node000001_Node000023" class="edge">
<title>Node1&#45;&gt;Node23</title>
<g id="a_edge46_Node000001_Node000023"><a xlink:title=" ">
<path fill="none" stroke="#63b8ff" d="M1398.19,-351.78C1393.87,-328.96 1384.81,-266.05 1405,-220 1410.07,-208.44 1419.64,-198.3 1428.67,-190.63"/>
<polygon fill="#63b8ff" stroke="#63b8ff" points="1430.98,-193.26 1436.65,-184.31 1426.64,-187.77 1430.98,-193.26"/>
</a>
</g>
</g>
<!-- Node25 -->
<g id="Node000025" class="node">
<title>Node25</title>
<g id="a_Node000025"><a xlink:title=" ">
<polygon fill="#e0e0e0" stroke="#999999" points="1612.5,-184 1499.5,-184 1499.5,-165 1612.5,-165 1612.5,-184"/>
<text text-anchor="middle" x="1556" y="-172" font-family="Helvetica,sans-Serif" font-size="10.00">freertos/FreeRTOS.h</text>
</a>
</g>
</g>
<!-- Node1&#45;&gt;Node25 -->
<g id="edge48_Node000001_Node000025" class="edge">
<title>Node1&#45;&gt;Node25</title>
<g id="a_edge48_Node000001_Node000025"><a xlink:title=" ">
<path fill="none" stroke="#63b8ff" d="M1401.67,-351.63C1407.04,-323.97 1424.56,-239.95 1443,-220 1457.82,-203.97 1479.15,-193.63 1499.28,-186.99"/>
<polygon fill="#63b8ff" stroke="#63b8ff" points="1500.49,-190.28 1509.04,-184.03 1498.45,-183.59 1500.49,-190.28"/>
</a>
</g>
</g>
<!-- Node26 -->
<g id="Node000026" class="node">
<title>Node26</title>
<g id="a_Node000026"><a xlink:title=" ">
<polygon fill="#e0e0e0" stroke="#999999" points="1719,-184 1631,-184 1631,-165 1719,-165 1719,-184"/>
<text text-anchor="middle" x="1675" y="-172" font-family="Helvetica,sans-Serif" font-size="10.00">freertos/task.h</text>
</a>
</g>
</g>
<!-- Node1&#45;&gt;Node26 -->
<g id="edge49_Node000001_Node000026" class="edge">
<title>Node1&#45;&gt;Node26</title>
<g id="a_edge49_Node000001_Node000026"><a xlink:title=" ">
<path fill="none" stroke="#63b8ff" d="M1407.35,-351.92C1420.22,-337.22 1448.16,-306.78 1476,-286 1532.32,-243.97 1606.42,-207.01 1646.43,-188.36"/>
<polygon fill="#63b8ff" stroke="#63b8ff" points="1647.98,-191.49 1655.6,-184.12 1645.05,-185.14 1647.98,-191.49"/>
</a>
</g>
</g>
<!-- Node28 -->
<g id="Node000028" class="node">
<title>Node28</title>
<g id="a_Node000028"><a xlink:href="esp32__tmc51x0__test__config_8hpp.html" target="_top" xlink:title="ESP32 GPIO pin configuration and compile&#45;time configuration for TMC51x0 driver (TMC5130 &amp; TMC5160)">
<polygon fill="white" stroke="#666666" points="789,-316 639,-316 639,-286 789,-286 789,-316"/>
<text text-anchor="start" x="647" y="-304" font-family="Helvetica,sans-Serif" font-size="10.00">test_config/esp32_tmc51x0</text>
<text text-anchor="middle" x="714" y="-293" font-family="Helvetica,sans-Serif" font-size="10.00">_test_config.hpp</text>
</a>
</g>
</g>
<!-- Node1&#45;&gt;Node28 -->
<g id="edge39_Node000001_Node000028" class="edge">
<title>Node1&#45;&gt;Node28</title>
<g id="a_edge39_Node000001_Node000028"><a xlink:title=" ">
<path fill="none" stroke="#63b8ff" d="M1319.96,-353.67C1189.67,-342.56 932.86,-320.66 799.27,-309.27"/>
<polygon fill="#63b8ff" stroke="#63b8ff" points="799.34,-305.77 789.08,-308.4 798.75,-312.74 799.34,-305.77"/>
</a>
</g>
</g>
<!-- Node30 -->
<g id="Node000030" class="node">
<title>Node30</title>
<g id="a_Node000030"><a xlink:title=" ">
<polygon fill="#e0e0e0" stroke="#999999" points="1559,-310.5 1485,-310.5 1485,-291.5 1559,-291.5 1559,-310.5"/>
<text text-anchor="middle" x="1522" y="-298.5" font-family="Helvetica,sans-Serif" font-size="10.00">esp_timer.h</text>
</a>
</g>
</g>
<!-- Node1&#45;&gt;Node30 -->
<g id="edge47_Node000001_Node000030" class="edge">
<title>Node1&#45;&gt;Node30</title>
<g id="a_edge47_Node000001_Node000030"><a xlink:title=" ">
<path fill="none" stroke="#63b8ff" d="M1417.74,-351.99C1438.07,-342.25 1471.61,-326.16 1495.14,-314.88"/>
<polygon fill="#63b8ff" stroke="#63b8ff" points="1496.74,-318 1504.24,-310.52 1493.71,-311.68 1496.74,-318"/>
</a>
</g>
</g>
<!-- Node31 -->
<g id="Node000031" class="node">
<title>Node31</title>
<g id="a_Node000031"><a xlink:title=" ">
<polygon fill="#e0e0e0" stroke="#999999" points="1624.5,-310.5 1577.5,-310.5 1577.5,-291.5 1624.5,-291.5 1624.5,-310.5"/>
<text text-anchor="middle" x="1601" y="-298.5" font-family="Helvetica,sans-Serif" font-size="10.00">cmath</text>
</a>
</g>
</g>
<!-- Node1&#45;&gt;Node31 -->
<g id="edge50_Node000001_Node000031" class="edge">
<title>Node1&#45;&gt;Node31</title>
<g id="a_edge50_Node000001_Node000031"><a xlink:title=" ">
<path fill="none" stroke="#63b8ff" d="M1438.49,-351.95C1472.85,-343.94 1524.33,-330.96 1568,-316 1569.44,-315.51 1570.9,-314.98 1572.36,-314.44"/>
<polygon fill="#63b8ff" stroke="#63b8ff" points="1573.99,-317.56 1581.98,-310.61 1571.4,-311.05 1573.99,-317.56"/>
</a>
</g>
</g>
<!-- Node3 -->
<g id="Node000003" class="node">
<title>Node3</title>
<g id="a_Node000003"><a xlink:title=" ">
<polygon fill="#e0e0e0" stroke="#999999" points="358,-19 308,-19 308,0 358,0 358,-19"/>
<text text-anchor="middle" x="333" y="-7" font-family="Helvetica,sans-Serif" font-size="10.00">cstdint</text>
</a>
</g>
</g>
<!-- Node2&#45;&gt;Node3 -->
<g id="edge2_Node000002_Node000003" class="edge">
<title>Node2&#45;&gt;Node3</title>
<g id="a_edge2_Node000002_Node000003"><a xlink:title=" ">
<path fill="none" stroke="#63b8ff" d="M211.22,-225.42C165.09,-199.28 37.01,-118.58 90,-55 116.03,-23.77 236.82,-14.39 297.71,-11.62"/>
<polygon fill="#63b8ff" stroke="#63b8ff" points="298.15,-15.11 307.99,-11.19 297.85,-8.11 298.15,-15.11"/>
</a>
</g>
</g>
<!-- Node4 -->
<g id="Node000004" class="node">
<title>Node4</title>
<g id="a_Node000004"><a xlink:title=" ">
<polygon fill="#e0e0e0" stroke="#999999" points="44,-184 0,-184 0,-165 44,-165 44,-184"/>
<text text-anchor="middle" x="22" y="-172" font-family="Helvetica,sans-Serif" font-size="10.00">string</text>
</a>
</g>
</g>
<!-- Node2&#45;&gt;Node4 -->
<g id="edge3_Node000002_Node000004" class="edge">
<title>Node2&#45;&gt;Node4</title>
<g id="a_edge3_Node000002_Node000004"><a xlink:title=" ">
<path fill="none" stroke="#63b8ff" d="M197.19,-225.49C159.07,-214.61 93.3,-195.85 54.1,-184.66"/>
<polygon fill="#63b8ff" stroke="#63b8ff" points="54.85,-181.23 44.27,-181.85 52.92,-187.96 54.85,-181.23"/>
</a>
</g>
</g>
<!-- Node5 -->
<g id="Node000005" class="node">
<title>Node5</title>
<g id="a_Node000005"><a xlink:href="tmc51x0__comm__interface_8hpp.html" target="_top" xlink:title="Communication interfaces for TMC51x0 stepper motor driver (TMC5130 &amp; TMC5160) using SPI and UART.">
<polygon fill="white" stroke="#666666" points="656.5,-184 491.5,-184 491.5,-165 656.5,-165 656.5,-184"/>
<text text-anchor="middle" x="574" y="-172" font-family="Helvetica,sans-Serif" font-size="10.00">tmc51x0_comm_interface.hpp</text>
</a>
</g>
</g>
<!-- Node2&#45;&gt;Node5 -->
<g id="edge4_Node000002_Node000005" class="edge">
<title>Node2&#45;&gt;Node5</title>
<g id="a_edge4_Node000002_Node000005"><a xlink:title=" ">
<path fill="none" stroke="#63b8ff" d="M254.57,-225.44C261.52,-223.48 269,-221.52 276,-220 346.92,-204.64 428.49,-192.86 488.33,-185.29"/>
<polygon fill="#63b8ff" stroke="#63b8ff" points="489.01,-188.73 498.5,-184.02 488.14,-181.79 489.01,-188.73"/>
</a>
</g>
</g>
<!-- Node10 -->
<g id="Node000010" class="node">
<title>Node10</title>
<g id="a_Node000010"><a xlink:href="tmc51x0__result_8hpp.html" target="_top" xlink:title="Result type for error handling in TMC51x0 driver.">
<polygon fill="white" stroke="#666666" points="546.5,-129 433.5,-129 433.5,-110 546.5,-110 546.5,-129"/>
<text text-anchor="middle" x="490" y="-117" font-family="Helvetica,sans-Serif" font-size="10.00">tmc51x0_result.hpp</text>
</a>
</g>
</g>
<!-- Node2&#45;&gt;Node10 -->
<g id="edge20_Node000002_Node000010" class="edge">
<title>Node2&#45;&gt;Node10</title>
<g id="a_edge20_Node000002_Node000010"><a xlink:title=" ">
<path fill="none" stroke="#63b8ff" d="M246.77,-225.47C292.65,-205.67 406.58,-156.5 460.64,-133.17"/>
<polygon fill="#63b8ff" stroke="#63b8ff" points="462.21,-136.31 470,-129.13 459.43,-129.88 462.21,-136.31"/>
</a>
</g>
</g>
<!-- Node15 -->
<g id="Node000015" class="node">
<title>Node15</title>
<g id="a_Node000015"><a xlink:href="tmc51x0__registers_8hpp.html" target="_top" xlink:title="Register definitions and bitfield structures for TMC51x0 stepper motor driver (TMC5130 &amp; TMC5160)">
<polygon fill="white" stroke="#666666" points="280,-129 106,-129 106,-110 280,-110 280,-129"/>
<text text-anchor="middle" x="193" y="-117" font-family="Helvetica,sans-Serif" font-size="10.00">registers/tmc51x0_registers.hpp</text>
</a>
</g>
</g>
<!-- Node2&#45;&gt;Node15 -->
<g id="edge16_Node000002_Node000015" class="edge">
<title>Node2&#45;&gt;Node15</title>
<g id="a_edge16_Node000002_Node000015"><a xlink:title=" ">
<path fill="none" stroke="#63b8ff" d="M208.55,-225.49C193.2,-217.28 172.4,-203.26 163,-184 155.2,-168 166.05,-149.59 176.82,-136.73"/>
<polygon fill="#63b8ff" stroke="#63b8ff" points="179.57,-138.92 183.69,-129.16 174.38,-134.21 179.57,-138.92"/>
</a>
</g>
</g>
<!-- Node17 -->
<g id="Node000017" class="node">
<title>Node17</title>
<g id="a_Node000017"><a xlink:href="tmc51x0__types_8hpp.html" target="_top" xlink:title="Type definitions and enumerations for TMC51x0 stepper motor driver (TMC5130 &amp; TMC5160)">
<polygon fill="white" stroke="#666666" points="285.5,-184 172.5,-184 172.5,-165 285.5,-165 285.5,-184"/>
<text text-anchor="middle" x="229" y="-172" font-family="Helvetica,sans-Serif" font-size="10.00">tmc51x0_types.hpp</text>
</a>
</g>
</g>
<!-- Node2&#45;&gt;Node17 -->
<g id="edge21_Node000002_Node000017" class="edge">
<title>Node2&#45;&gt;Node17</title>
<g id="a_edge21_Node000002_Node000017"><a xlink:title=" ">
<path fill="none" stroke="#63b8ff" d="M227.3,-225.37C227.57,-217.25 228,-204.81 228.35,-194.39"/>
<polygon fill="#63b8ff" stroke="#63b8ff" points="231.86,-194.28 228.7,-184.17 224.86,-194.04 231.86,-194.28"/>
</a>
</g>
</g>
<!-- Node5&#45;&gt;Node3 -->
<g id="edge8_Node000005_Node000003" class="edge">
<title>Node5&#45;&gt;Node3</title>
<g id="a_edge8_Node000005_Node000003"><a xlink:title=" ">
<path fill="none" stroke="#63b8ff" d="M586.01,-164.78C596.02,-156.74 609.63,-143.84 616,-129 628.98,-98.75 640.41,-80 619,-55 587.12,-17.78 437.77,-11.44 368.48,-10.54"/>
<polygon fill="#63b8ff" stroke="#63b8ff" points="368.11,-7.03 358.08,-10.43 368.04,-14.03 368.11,-7.03"/>
</a>
</g>
</g>
<!-- Node6 -->
<g id="Node000006" class="node">
<title>Node6</title>
<g id="a_Node000006"><a xlink:title=" ">
<polygon fill="#e0e0e0" stroke="#999999" points="727,-129 663,-129 663,-110 727,-110 727,-129"/>
<text text-anchor="middle" x="695" y="-117" font-family="Helvetica,sans-Serif" font-size="10.00">algorithm</text>
</a>
</g>
</g>
<!-- Node5&#45;&gt;Node6 -->
<g id="edge5_Node000005_Node000006" class="edge">
<title>Node5&#45;&gt;Node6</title>
<g id="a_edge5_Node000005_Node000006"><a xlink:title=" ">
<path fill="none" stroke="#63b8ff" d="M593.44,-164.98C612.99,-156.42 643.38,-143.11 665.82,-133.28"/>
<polygon fill="#63b8ff" stroke="#63b8ff" points="667.45,-136.39 675.21,-129.17 664.64,-129.98 667.45,-136.39"/>
</a>
</g>
</g>
<!-- Node7 -->
<g id="Node000007" class="node">
<title>Node7</title>
<g id="a_Node000007"><a xlink:title=" ">
<polygon fill="#e0e0e0" stroke="#999999" points="607,-129 565,-129 565,-110 607,-110 607,-129"/>
<text text-anchor="middle" x="586" y="-117" font-family="Helvetica,sans-Serif" font-size="10.00">array</text>
</a>
</g>
</g>
<!-- Node5&#45;&gt;Node7 -->
<g id="edge6_Node000005_Node000007" class="edge">
<title>Node5&#45;&gt;Node7</title>
<g id="a_edge6_Node000005_Node000007"><a xlink:title=" ">
<path fill="none" stroke="#63b8ff" d="M575.98,-164.75C577.57,-157.72 579.86,-147.62 581.85,-138.84"/>
<polygon fill="#63b8ff" stroke="#63b8ff" points="585.26,-139.62 584.06,-129.09 578.43,-138.07 585.26,-139.62"/>
</a>
</g>
</g>
<!-- Node8 -->
<g id="Node000008" class="node">
<title>Node8</title>
<g id="a_Node000008"><a xlink:title=" ">
<polygon fill="#e0e0e0" stroke="#999999" points="1131.5,-129 1078.5,-129 1078.5,-110 1131.5,-110 1131.5,-129"/>
<text text-anchor="middle" x="1105" y="-117" font-family="Helvetica,sans-Serif" font-size="10.00">cstdarg</text>
</a>
</g>
</g>
<!-- Node5&#45;&gt;Node8 -->
<g id="edge7_Node000005_Node000008" class="edge">
<title>Node5&#45;&gt;Node8</title>
<g id="a_edge7_Node000005_Node000008"><a xlink:title=" ">
<path fill="none" stroke="#63b8ff" d="M656.68,-165.25C773.94,-153.54 983.71,-132.61 1068.22,-124.17"/>
<polygon fill="#63b8ff" stroke="#63b8ff" points="1068.76,-127.63 1078.36,-123.16 1068.06,-120.67 1068.76,-127.63"/>
</a>
</g>
</g>
<!-- Node9 -->
<g id="Node000009" class="node">
<title>Node9</title>
<g id="a_Node000009"><a xlink:title=" ">
<polygon fill="#e0e0e0" stroke="#999999" points="791,-129 745,-129 745,-110 791,-110 791,-129"/>
<text text-anchor="middle" x="768" y="-117" font-family="Helvetica,sans-Serif" font-size="10.00">cstdio</text>
</a>
</g>
</g>
<!-- Node5&#45;&gt;Node9 -->
<g id="edge9_Node000005_Node000009" class="edge">
<title>Node5&#45;&gt;Node9</title>
<g id="a_edge9_Node000005_Node000009"><a xlink:title=" ">
<path fill="none" stroke="#63b8ff" d="M605.17,-164.98C640.65,-155.29 698.39,-139.52 734.73,-129.59"/>
<polygon fill="#63b8ff" stroke="#63b8ff" points="736.1,-132.84 744.82,-126.83 734.25,-126.09 736.1,-132.84"/>
</a>
</g>
</g>
<!-- Node5&#45;&gt;Node10 -->
<g id="edge10_Node000005_Node000010" class="edge">
<title>Node5&#45;&gt;Node10</title>
<g id="a_edge10_Node000005_Node000010"><a xlink:title=" ">
<path fill="none" stroke="#63b8ff" d="M560.5,-164.98C547.6,-156.84 527.9,-144.41 512.6,-134.76"/>
<polygon fill="#63b8ff" stroke="#63b8ff" points="514.07,-131.55 503.74,-129.17 510.33,-137.47 514.07,-131.55"/>
</a>
</g>
</g>
<!-- Node10&#45;&gt;Node3 -->
<g id="edge12_Node000010_Node000003" class="edge">
<title>Node10&#45;&gt;Node3</title>
<g id="a_edge12_Node000010_Node000003"><a xlink:title=" ">
<path fill="none" stroke="#63b8ff" d="M500.2,-109.61C513.81,-96.68 534.7,-72.32 521,-55 502.34,-31.41 417.56,-19.03 368.46,-13.74"/>
<polygon fill="#63b8ff" stroke="#63b8ff" points="368.57,-10.23 358.27,-12.68 367.85,-17.19 368.57,-10.23"/>
</a>
</g>
</g>
<!-- Node11 -->
<g id="Node000011" class="node">
<title>Node11</title>
<g id="a_Node000011"><a xlink:title=" ">
<polygon fill="#e0e0e0" stroke="#999999" points="783.5,-74 730.5,-74 730.5,-55 783.5,-55 783.5,-74"/>
<text text-anchor="middle" x="757" y="-62" font-family="Helvetica,sans-Serif" font-size="10.00">cstddef</text>
</a>
</g>
</g>
<!-- Node10&#45;&gt;Node11 -->
<g id="edge11_Node000010_Node000011" class="edge">
<title>Node10&#45;&gt;Node11</title>
<g id="a_edge11_Node000010_Node000011"><a xlink:title=" ">
<path fill="none" stroke="#63b8ff" d="M532.9,-109.98C584.92,-99.66 671.69,-82.43 720.6,-72.73"/>
<polygon fill="#63b8ff" stroke="#63b8ff" points="721.31,-76.15 730.43,-70.77 719.94,-69.29 721.31,-76.15"/>
</a>
</g>
</g>
<!-- Node12 -->
<g id="Node000012" class="node">
<title>Node12</title>
<g id="a_Node000012"><a xlink:title=" ">
<polygon fill="#e0e0e0" stroke="#999999" points="610.5,-74 569.5,-74 569.5,-55 610.5,-55 610.5,-74"/>
<text text-anchor="middle" x="590" y="-62" font-family="Helvetica,sans-Serif" font-size="10.00">tuple</text>
</a>
</g>
</g>
<!-- Node10&#45;&gt;Node12 -->
<g id="edge13_Node000010_Node000012" class="edge">
<title>Node10&#45;&gt;Node12</title>
<g id="a_edge13_Node000010_Node000012"><a xlink:title=" ">
<path fill="none" stroke="#63b8ff" d="M506.07,-109.98C521.86,-101.61 546.22,-88.7 564.63,-78.95"/>
<polygon fill="#63b8ff" stroke="#63b8ff" points="566.44,-81.95 573.64,-74.17 563.17,-75.76 566.44,-81.95"/>
</a>
</g>
</g>
<!-- Node13 -->
<g id="Node000013" class="node">
<title>Node13</title>
<g id="a_Node000013"><a xlink:title=" ">
<polygon fill="#e0e0e0" stroke="#999999" points="449.5,-74 380.5,-74 380.5,-55 449.5,-55 449.5,-74"/>
<text text-anchor="middle" x="415" y="-62" font-family="Helvetica,sans-Serif" font-size="10.00">type_traits</text>
</a>
</g>
</g>
<!-- Node10&#45;&gt;Node13 -->
<g id="edge14_Node000010_Node000013" class="edge">
<title>Node10&#45;&gt;Node13</title>
<g id="a_edge14_Node000010_Node000013"><a xlink:title=" ">
<path fill="none" stroke="#63b8ff" d="M477.95,-109.98C466.54,-101.92 449.17,-89.65 435.57,-80.03"/>
<polygon fill="#63b8ff" stroke="#63b8ff" points="437.46,-77.08 427.27,-74.17 433.42,-82.8 437.46,-77.08"/>
</a>
</g>
</g>
<!-- Node14 -->
<g id="Node000014" class="node">
<title>Node14</title>
<g id="a_Node000014"><a xlink:title=" ">
<polygon fill="#e0e0e0" stroke="#999999" points="512.5,-74 467.5,-74 467.5,-55 512.5,-55 512.5,-74"/>
<text text-anchor="middle" x="490" y="-62" font-family="Helvetica,sans-Serif" font-size="10.00">utility</text>
</a>
</g>
</g>
<!-- Node10&#45;&gt;Node14 -->
<g id="edge15_Node000010_Node000014" class="edge">
<title>Node10&#45;&gt;Node14</title>
<g id="a_edge15_Node000010_Node000014"><a xlink:title=" ">
<path fill="none" stroke="#63b8ff" d="M490,-109.75C490,-102.8 490,-92.85 490,-84.13"/>
<polygon fill="#63b8ff" stroke="#63b8ff" points="493.5,-84.09 490,-74.09 486.5,-84.09 493.5,-84.09"/>
</a>
</g>
</g>
<!-- Node15&#45;&gt;Node3 -->
<g id="edge19_Node000015_Node000003" class="edge">
<title>Node15&#45;&gt;Node3</title>
<g id="a_edge19_Node000015_Node000003"><a xlink:title=" ">
<path fill="none" stroke="#63b8ff" d="M205.99,-109.96C219.09,-101.23 239.79,-87.14 257,-74 277.76,-58.16 300.64,-38.76 315.81,-25.61"/>
<polygon fill="#63b8ff" stroke="#63b8ff" points="318.15,-28.21 323.39,-19 313.55,-22.94 318.15,-28.21"/>
</a>
</g>
</g>
<!-- Node16 -->
<g id="Node000016" class="node">
<title>Node16</title>
<g id="a_Node000016"><a xlink:href="tmc51x0__register__defs_8hpp.html" target="_top" xlink:title="X&#45;MACRO definitions for TMC51x0 registers (TMC5130 &amp; TMC5160)">
<polygon fill="white" stroke="#666666" points="248.5,-74 99.5,-74 99.5,-55 248.5,-55 248.5,-74"/>
<text text-anchor="middle" x="174" y="-62" font-family="Helvetica,sans-Serif" font-size="10.00">tmc51x0_register_defs.hpp</text>
</a>
</g>
</g>
<!-- Node15&#45;&gt;Node16 -->
<g id="edge17_Node000015_Node000016" class="edge">
<title>Node15&#45;&gt;Node16</title>
<g id="a_edge17_Node000015_Node000016"><a xlink:title=" ">
<path fill="none" stroke="#63b8ff" d="M189.86,-109.75C187.32,-102.65 183.64,-92.4 180.47,-83.56"/>
<polygon fill="#63b8ff" stroke="#63b8ff" points="183.75,-82.32 177.08,-74.09 177.16,-84.68 183.75,-82.32"/>
</a>
</g>
</g>
<!-- Node16&#45;&gt;Node3 -->
<g id="edge18_Node000016_Node000003" class="edge">
<title>Node16&#45;&gt;Node3</title>
<g id="a_edge18_Node000016_Node000003"><a xlink:title=" ">
<path fill="none" stroke="#63b8ff" d="M199.55,-54.98C226.28,-46.07 268.43,-32.02 298.2,-22.1"/>
<polygon fill="#63b8ff" stroke="#63b8ff" points="299.4,-25.39 307.78,-18.91 297.19,-18.75 299.4,-25.39"/>
</a>
</g>
</g>
<!-- Node17&#45;&gt;Node3 -->
<g id="edge22_Node000017_Node000003" class="edge">
<title>Node17&#45;&gt;Node3</title>
<g id="a_edge22_Node000017_Node000003"><a xlink:title=" ">
<path fill="none" stroke="#63b8ff" d="M245.33,-164.93C258.73,-157.16 277.32,-144.56 289,-129 312.2,-98.11 324.3,-53.67 329.59,-28.92"/>
<polygon fill="#63b8ff" stroke="#63b8ff" points="333.04,-29.55 331.56,-19.05 326.17,-28.17 333.04,-29.55"/>
</a>
</g>
</g>
<!-- Node17&#45;&gt;Node15 -->
<g id="edge23_Node000017_Node000015" class="edge">
<title>Node17&#45;&gt;Node15</title>
<g id="a_edge23_Node000017_Node000015"><a xlink:title=" ">
<path fill="none" stroke="#63b8ff" d="M223.06,-164.75C218.02,-157.34 210.66,-146.5 204.49,-137.41"/>
<polygon fill="#63b8ff" stroke="#63b8ff" points="207.35,-135.39 198.83,-129.09 201.56,-139.33 207.35,-135.39"/>
</a>
</g>
</g>
<!-- Node18&#45;&gt;Node3 -->
<g id="edge36_Node000018_Node000003" class="edge">
<title>Node18&#45;&gt;Node3</title>
<g id="a_edge36_Node000018_Node000003"><a xlink:title=" ">
<path fill="none" stroke="#63b8ff" d="M1235.22,-230.87C1302.03,-225.19 1384.2,-209.31 1350,-165 1288.28,-85.03 541.21,-25.73 368.48,-13.03"/>
<polygon fill="#63b8ff" stroke="#63b8ff" points="368.63,-9.53 358.4,-12.3 368.12,-16.52 368.63,-9.53"/>
</a>
</g>
</g>
<!-- Node18&#45;&gt;Node5 -->
<g id="edge25_Node000018_Node000005" class="edge">
<title>Node18&#45;&gt;Node5</title>
<g id="a_edge25_Node000018_Node000005"><a xlink:title=" ">
<path fill="none" stroke="#63b8ff" d="M1084.89,-226.5C978.16,-215.85 782.77,-196.34 667.02,-184.79"/>
<polygon fill="#63b8ff" stroke="#63b8ff" points="667.06,-181.27 656.76,-183.76 666.37,-188.24 667.06,-181.27"/>
</a>
</g>
</g>
<!-- Node18&#45;&gt;Node8 -->
<g id="edge34_Node000018_Node000008" class="edge">
<title>Node18&#45;&gt;Node8</title>
<g id="a_edge34_Node000018_Node000008"><a xlink:title=" ">
<path fill="none" stroke="#63b8ff" d="M1235,-228.25C1295.17,-220.71 1364.76,-203.56 1333,-165 1309.22,-136.13 1200.24,-125.74 1141.98,-122.2"/>
<polygon fill="#63b8ff" stroke="#63b8ff" points="1141.91,-118.69 1131.72,-121.62 1141.51,-125.68 1141.91,-118.69"/>
</a>
</g>
</g>
<!-- Node18&#45;&gt;Node9 -->
<g id="edge37_Node000018_Node000009" class="edge">
<title>Node18&#45;&gt;Node9</title>
<g id="a_edge37_Node000018_Node000009"><a xlink:title=" ">
<path fill="none" stroke="#63b8ff" d="M1084.77,-231.02C994.41,-226.16 849.43,-213.85 805,-184 789.15,-173.35 779.18,-153.45 773.64,-138.75"/>
<polygon fill="#63b8ff" stroke="#63b8ff" points="776.92,-137.51 770.37,-129.18 770.29,-139.77 776.92,-137.51"/>
</a>
</g>
</g>
<!-- Node18&#45;&gt;Node11 -->
<g id="edge35_Node000018_Node000011" class="edge">
<title>Node18&#45;&gt;Node11</title>
<g id="a_edge35_Node000018_Node000011"><a xlink:title=" ">
<path fill="none" stroke="#63b8ff" d="M1084.93,-230.15C1002.41,-224.58 876.42,-211.73 838,-184 808.02,-162.36 821.52,-140.06 800,-110 792.51,-99.54 782.62,-89.13 774.21,-81.01"/>
<polygon fill="#63b8ff" stroke="#63b8ff" points="776.43,-78.29 766.74,-74 771.64,-83.39 776.43,-78.29"/>
</a>
</g>
</g>
<!-- Node19 -->
<g id="Node000019" class="node">
<title>Node19</title>
<g id="a_Node000019"><a xlink:title=" ">
<polygon fill="#e0e0e0" stroke="#999999" points="753,-184 675,-184 675,-165 753,-165 753,-184"/>
<text text-anchor="middle" x="714" y="-172" font-family="Helvetica,sans-Serif" font-size="10.00">driver/gpio.h</text>
</a>
</g>
</g>
<!-- Node18&#45;&gt;Node19 -->
<g id="edge26_Node000018_Node000019" class="edge">
<title>Node18&#45;&gt;Node19</title>
<g id="a_edge26_Node000018_Node000019"><a xlink:title=" ">
<path fill="none" stroke="#63b8ff" d="M1084.93,-225.18C1005.77,-215.72 877.46,-199.88 767,-184 765.73,-183.82 764.44,-183.63 763.14,-183.44"/>
<polygon fill="#63b8ff" stroke="#63b8ff" points="763.46,-179.95 753.05,-181.91 762.42,-186.87 763.46,-179.95"/>
</a>
</g>
</g>
<!-- Node20 -->
<g id="Node000020" class="node">
<title>Node20</title>
<g id="a_Node000020"><a xlink:title=" ">
<polygon fill="#e0e0e0" stroke="#999999" points="924.5,-184 847.5,-184 847.5,-165 924.5,-165 924.5,-184"/>
<text text-anchor="middle" x="886" y="-172" font-family="Helvetica,sans-Serif" font-size="10.00">driver/ledc.h</text>
</a>
</g>
</g>
<!-- Node18&#45;&gt;Node20 -->
<g id="edge27_Node000018_Node000020" class="edge">
<title>Node18&#45;&gt;Node20</title>
<g id="a_edge27_Node000018_Node000020"><a xlink:title=" ">
<path fill="none" stroke="#63b8ff" d="M1094.37,-219.99C1045.31,-209.51 979.31,-195.42 934.85,-185.93"/>
<polygon fill="#63b8ff" stroke="#63b8ff" points="935.38,-182.46 924.87,-183.8 933.92,-189.31 935.38,-182.46"/>
</a>
</g>
</g>
<!-- Node21 -->
<g id="Node000021" class="node">
<title>Node21</title>
<g id="a_Node000021"><a xlink:title=" ">
<polygon fill="#e0e0e0" stroke="#999999" points="1053,-184 943,-184 943,-165 1053,-165 1053,-184"/>
<text text-anchor="middle" x="998" y="-172" font-family="Helvetica,sans-Serif" font-size="10.00">driver/spi_master.h</text>
</a>
</g>
</g>
<!-- Node18&#45;&gt;Node21 -->
<g id="edge28_Node000018_Node000021" class="edge">
<title>Node18&#45;&gt;Node21</title>
<g id="a_edge28_Node000018_Node000021"><a xlink:title=" ">
<path fill="none" stroke="#63b8ff" d="M1121.2,-219.99C1093.81,-210.1 1057.48,-196.98 1031.39,-187.56"/>
<polygon fill="#63b8ff" stroke="#63b8ff" points="1032.52,-184.24 1021.92,-184.14 1030.14,-190.83 1032.52,-184.24"/>
</a>
</g>
</g>
<!-- Node22 -->
<g id="Node000022" class="node">
<title>Node22</title>
<g id="a_Node000022"><a xlink:title=" ">
<polygon fill="#e0e0e0" stroke="#999999" points="1148.5,-184 1071.5,-184 1071.5,-165 1148.5,-165 1148.5,-184"/>
<text text-anchor="middle" x="1110" y="-172" font-family="Helvetica,sans-Serif" font-size="10.00">driver/uart.h</text>
</a>
</g>
</g>
<!-- Node18&#45;&gt;Node22 -->
<g id="edge29_Node000018_Node000022" class="edge">
<title>Node18&#45;&gt;Node22</title>
<g id="a_edge29_Node000018_Node000022"><a xlink:title=" ">
<path fill="none" stroke="#63b8ff" d="M1147.9,-219.84C1140.71,-211.43 1131.57,-200.74 1124.07,-191.96"/>
<polygon fill="#63b8ff" stroke="#63b8ff" points="1126.65,-189.59 1117.49,-184.27 1121.33,-194.14 1126.65,-189.59"/>
</a>
</g>
</g>
<!-- Node18&#45;&gt;Node23 -->
<g id="edge30_Node000018_Node000023" class="edge">
<title>Node18&#45;&gt;Node23</title>
<g id="a_edge30_Node000018_Node000023"><a xlink:title=" ">
<path fill="none" stroke="#63b8ff" d="M1229.46,-219.99C1285.23,-208.74 1361.69,-193.31 1408.37,-183.9"/>
<polygon fill="#63b8ff" stroke="#63b8ff" points="1409.32,-187.28 1418.43,-181.87 1407.93,-180.42 1409.32,-187.28"/>
</a>
</g>
</g>
<!-- Node24 -->
<g id="Node000024" class="node">
<title>Node24</title>
<g id="a_Node000024"><a xlink:title=" ">
<polygon fill="#e0e0e0" stroke="#999999" points="1255.5,-184 1166.5,-184 1166.5,-165 1255.5,-165 1255.5,-184"/>
<text text-anchor="middle" x="1211" y="-172" font-family="Helvetica,sans-Serif" font-size="10.00">esp_rom_sys.h</text>
</a>
</g>
</g>
<!-- Node18&#45;&gt;Node24 -->
<g id="edge31_Node000018_Node000024" class="edge">
<title>Node18&#45;&gt;Node24</title>
<g id="a_edge31_Node000018_Node000024"><a xlink:title=" ">
<path fill="none" stroke="#63b8ff" d="M1172.35,-219.84C1179.67,-211.43 1189,-200.74 1196.65,-191.96"/>
<polygon fill="#63b8ff" stroke="#63b8ff" points="1199.42,-194.1 1203.36,-184.27 1194.15,-189.5 1199.42,-194.1"/>
</a>
</g>
</g>
<!-- Node18&#45;&gt;Node25 -->
<g id="edge32_Node000018_Node000025" class="edge">
<title>Node18&#45;&gt;Node25</title>
<g id="a_edge32_Node000018_Node000025"><a xlink:title=" ">
<path fill="none" stroke="#63b8ff" d="M1235.42,-222.86C1308.78,-212.02 1419.16,-195.72 1489.37,-185.34"/>
<polygon fill="#63b8ff" stroke="#63b8ff" points="1490.05,-188.78 1499.43,-183.86 1489.03,-181.86 1490.05,-188.78"/>
</a>
</g>
</g>
<!-- Node18&#45;&gt;Node26 -->
<g id="edge33_Node000018_Node000026" class="edge">
<title>Node18&#45;&gt;Node26</title>
<g id="a_edge33_Node000018_Node000026"><a xlink:title=" ">
<path fill="none" stroke="#63b8ff" d="M1235.36,-227.04C1324.79,-218.51 1478.65,-202.99 1620.58,-184.13"/>
<polygon fill="#63b8ff" stroke="#63b8ff" points="1621.33,-187.56 1630.78,-182.77 1620.4,-180.62 1621.33,-187.56"/>
</a>
</g>
</g>
<!-- Node27 -->
<g id="Node000027" class="node">
<title>Node27</title>
<g id="a_Node000027"><a xlink:title=" ">
<polygon fill="#e0e0e0" stroke="#999999" points="1324,-184 1274,-184 1274,-165 1324,-165 1324,-184"/>
<text text-anchor="middle" x="1299" y="-172" font-family="Helvetica,sans-Serif" font-size="10.00">cstring</text>
</a>
</g>
</g>
<!-- Node18&#45;&gt;Node27 -->
<g id="edge38_Node000018_Node000027" class="edge">
<title>Node18&#45;&gt;Node27</title>
<g id="a_edge38_Node000018_Node000027"><a xlink:title=" ">
<path fill="none" stroke="#63b8ff" d="M1193.29,-219.99C1216.38,-210.27 1246.87,-197.44 1269.16,-188.06"/>
<polygon fill="#63b8ff" stroke="#63b8ff" points="1270.61,-191.24 1278.47,-184.14 1267.9,-184.79 1270.61,-191.24"/>
</a>
</g>
</g>
<!-- Node28&#45;&gt;Node5 -->
<g id="edge41_Node000028_Node000005" class="edge">
<title>Node28&#45;&gt;Node5</title>
<g id="a_edge41_Node000028_Node000005"><a xlink:title=" ">
<path fill="none" stroke="#63b8ff" d="M698.21,-285.96C671.77,-262.45 618.74,-215.29 591.31,-190.9"/>
<polygon fill="#63b8ff" stroke="#63b8ff" points="593.48,-188.14 583.68,-184.11 588.83,-193.37 593.48,-188.14"/>
</a>
</g>
</g>
<!-- Node28&#45;&gt;Node18 -->
<g id="edge45_Node000028_Node000018" class="edge">
<title>Node28&#45;&gt;Node18</title>
<g id="a_edge45_Node000028_Node000018"><a xlink:title=" ">
<path fill="none" stroke="#63b8ff" d="M789.15,-289.22C868.15,-277.88 992.21,-260.08 1074.8,-248.23"/>
<polygon fill="#63b8ff" stroke="#63b8ff" points="1075.51,-251.66 1084.91,-246.78 1074.52,-244.73 1075.51,-251.66"/>
</a>
</g>
</g>
<!-- Node28&#45;&gt;Node19 -->
<g id="edge40_Node000028_Node000019" class="edge">
<title>Node28&#45;&gt;Node19</title>
<g id="a_edge40_Node000028_Node000019"><a xlink:title=" ">
<path fill="none" stroke="#63b8ff" d="M714,-285.72C714,-263.12 714,-219.12 714,-194.09"/>
<polygon fill="#63b8ff" stroke="#63b8ff" points="717.5,-194.07 714,-184.07 710.5,-194.07 717.5,-194.07"/>
</a>
</g>
</g>
<!-- Node29 -->
<g id="Node000029" class="node">
<title>Node29</title>
<g id="a_Node000029"><a xlink:href="tmc51x0__config__builder_8hpp.html" target="_top" xlink:title="Fluent configuration builder for TMC51x0 driver.">
<polygon fill="white" stroke="#666666" points="422.5,-250 285.5,-250 285.5,-220 422.5,-220 422.5,-250"/>
<text text-anchor="start" x="293.5" y="-238" font-family="Helvetica,sans-Serif" font-size="10.00">features/tmc51x0_config</text>
<text text-anchor="middle" x="354" y="-227" font-family="Helvetica,sans-Serif" font-size="10.00">_builder.hpp</text>
</a>
</g>
</g>
<!-- Node28&#45;&gt;Node29 -->
<g id="edge42_Node000028_Node000029" class="edge">
<title>Node28&#45;&gt;Node29</title>
<g id="a_edge42_Node000028_Node000029"><a xlink:title=" ">
<path fill="none" stroke="#63b8ff" d="M638.97,-286.66C578.56,-275.92 493.89,-260.87 432.56,-249.97"/>
<polygon fill="#63b8ff" stroke="#63b8ff" points="433,-246.49 422.54,-248.18 431.77,-253.38 433,-246.49"/>
</a>
</g>
</g>
<!-- Node29&#45;&gt;Node3 -->
<g id="edge43_Node000029_Node000003" class="edge">
<title>Node29&#45;&gt;Node3</title>
<g id="a_edge43_Node000029_Node000003"><a xlink:title=" ">
<path fill="none" stroke="#63b8ff" d="M352.65,-219.68C349,-180.76 338.88,-73.07 334.77,-29.33"/>
<polygon fill="#63b8ff" stroke="#63b8ff" points="338.24,-28.86 333.82,-19.23 331.27,-29.52 338.24,-28.86"/>
</a>
</g>
</g>
<!-- Node29&#45;&gt;Node17 -->
<g id="edge44_Node000029_Node000017" class="edge">
<title>Node29&#45;&gt;Node17</title>
<g id="a_edge44_Node000029_Node000017"><a xlink:title=" ">
<path fill="none" stroke="#63b8ff" d="M324.06,-219.99C303.58,-210.4 276.62,-197.79 256.65,-188.44"/>
<polygon fill="#63b8ff" stroke="#63b8ff" points="258,-185.21 247.46,-184.14 255.03,-191.55 258,-185.21"/>
</a>
</g>
</g>
</g>
</svg>
