<?xml version="1.0" encoding="UTF-8" standalone="no"?>
<!DOCTYPE svg PUBLIC "-//W3C//DTD SVG 1.1//EN"
 "http://www.w3.org/Graphics/SVG/1.1/DTD/svg11.dtd">
<!-- Generated by graphviz version 2.43.0 (0)
 -->
<!-- Title: EspNowReceiver::send_status_update Pages: 1 -->
<svg width="1172pt" height="245pt"
 viewBox="0.00 0.00 1172.00 244.90" xmlns="http://www.w3.org/2000/svg" xmlns:xlink="http://www.w3.org/1999/xlink">
<g id="graph0" class="graph" transform="scale(1 1) rotate(0) translate(4 240.9)">
<title>EspNowReceiver::send_status_update</title>
<!-- Node1 -->
<g id="Node000001" class="node">
<title>Node1</title>
<g id="a_Node000001"><a xlink:title="Send STATUS_UPDATE with cycle count and state.">
<polygon fill="#999999" stroke="#666666" points="1164,-138.5 1036,-138.5 1036,-108.5 1164,-108.5 1164,-138.5"/>
<text text-anchor="start" x="1044" y="-126.5" font-family="Helvetica,sans-Serif" font-size="10.00">EspNowReceiver::send</text>
<text text-anchor="middle" x="1100" y="-115.5" font-family="Helvetica,sans-Serif" font-size="10.00">_status_update</text>
</a>
</g>
</g>
<!-- Node2 -->
<g id="Node000002" class="node">
<title>Node2</title>
<g id="a_Node000002"><a xlink:href="main_8cpp.html#aad11fcee042534d6e42aa0b3f79f5b0f" target="_top" xlink:title="FreeRTOS task: perform bounds finding, then start motion.">
<polygon fill="white" stroke="#666666" points="991,-207 875,-207 875,-188 991,-188 991,-207"/>
<text text-anchor="middle" x="933" y="-195" font-family="Helvetica,sans-Serif" font-size="10.00">bounds_finding_task</text>
</a>
</g>
</g>
<!-- Node1&#45;&gt;Node2 -->
<g id="edge1_Node000001_Node000002" class="edge">
<title>Node1&#45;&gt;Node2</title>
<g id="a_edge1_Node000001_Node000002"><a xlink:title=" ">
<path fill="none" stroke="#63b8ff" d="M1067.69,-143.88C1048.7,-155.55 1023.65,-169.77 1000,-179.5 992.2,-182.71 983.65,-185.52 975.37,-187.91"/>
<polygon fill="#63b8ff" stroke="#63b8ff" points="1069.59,-146.82 1076.22,-138.55 1065.89,-140.88 1069.59,-146.82"/>
</a>
</g>
</g>
<!-- Node4 -->
<g id="Node000004" class="node">
<title>Node4</title>
<g id="a_Node000004"><a xlink:href="main_8cpp.html#a282cbb4958ae3bf0285b9be28ecb1d79" target="_top" xlink:title="FreeRTOS task: process inbound ESP&#45;NOW protocol events.">
<polygon fill="white" stroke="#666666" points="714,-199 580,-199 580,-180 714,-180 714,-199"/>
<text text-anchor="middle" x="647" y="-187" font-family="Helvetica,sans-Serif" font-size="10.00">espnow_command_task</text>
</a>
</g>
</g>
<!-- Node1&#45;&gt;Node4 -->
<g id="edge12_Node000001_Node000004" class="edge">
<title>Node1&#45;&gt;Node4</title>
<g id="a_edge12_Node000001_Node000004"><a xlink:title=" ">
<path fill="none" stroke="#63b8ff" d="M1082.64,-146.85C1065.17,-169.55 1035.19,-202.56 1000,-216.5 885.75,-261.75 734.54,-219.56 674.35,-199.14"/>
<polygon fill="#63b8ff" stroke="#63b8ff" points="1085.53,-148.83 1088.71,-138.72 1079.92,-144.64 1085.53,-148.83"/>
</a>
</g>
</g>
<!-- Node10 -->
<g id="Node000010" class="node">
<title>Node10</title>
<g id="a_Node000010"><a xlink:href="espnow__protocol__test__unit_8cpp.html#a282cbb4958ae3bf0285b9be28ecb1d79" target="_top" xlink:title="FreeRTOS task: handle incoming ESP&#45;NOW protocol events (test&#45;unit simulator).">
<polygon fill="white" stroke="#666666" points="1000,-133 866,-133 866,-114 1000,-114 1000,-133"/>
<text text-anchor="middle" x="933" y="-121" font-family="Helvetica,sans-Serif" font-size="10.00">espnow_command_task</text>
</a>
</g>
</g>
<!-- Node1&#45;&gt;Node10 -->
<g id="edge10_Node000001_Node000010" class="edge">
<title>Node1&#45;&gt;Node10</title>
<g id="a_edge10_Node000001_Node000010"><a xlink:title=" ">
<path fill="none" stroke="#63b8ff" d="M1025.48,-123.5C1017.05,-123.5 1008.49,-123.5 1000.16,-123.5"/>
<polygon fill="#63b8ff" stroke="#63b8ff" points="1025.68,-127 1035.68,-123.5 1025.68,-120 1025.68,-127"/>
</a>
</g>
</g>
<!-- Node12 -->
<g id="Node000012" class="node">
<title>Node12</title>
<g id="a_Node000012"><a xlink:href="main_8cpp.html#a39ccc4c53283879fb74a5a5538daa92b" target="_top" xlink:title="Handle STOP command.">
<polygon fill="white" stroke="#666666" points="826.5,-97 753.5,-97 753.5,-78 826.5,-78 826.5,-97"/>
<text text-anchor="middle" x="790" y="-85" font-family="Helvetica,sans-Serif" font-size="10.00">HandleStop</text>
</a>
</g>
</g>
<!-- Node1&#45;&gt;Node12 -->
<g id="edge13_Node000001_Node000012" class="edge">
<title>Node1&#45;&gt;Node12</title>
<g id="a_edge13_Node000001_Node000012"><a xlink:title=" ">
<path fill="none" stroke="#63b8ff" d="M1025.71,-108.51C1017.06,-107.02 1008.35,-105.64 1000,-104.5 939.4,-96.25 868.33,-91.5 826.63,-89.22"/>
<polygon fill="#63b8ff" stroke="#63b8ff" points="1025.33,-112 1035.79,-110.31 1026.56,-105.11 1025.33,-112"/>
</a>
</g>
</g>
<!-- Node13 -->
<g id="Node000013" class="node">
<title>Node13</title>
<g id="a_Node000013"><a xlink:href="main_8cpp.html#a30da369114ee453fe81be5a919262abf" target="_top" xlink:title="FreeRTOS task: drive the motion update loop and detect completion.">
<polygon fill="white" stroke="#666666" points="540,-57 424,-57 424,-38 540,-38 540,-57"/>
<text text-anchor="middle" x="482" y="-45" font-family="Helvetica,sans-Serif" font-size="10.00">motion_control_task</text>
</a>
</g>
</g>
<!-- Node1&#45;&gt;Node13 -->
<g id="edge15_Node000001_Node000013" class="edge">
<title>Node1&#45;&gt;Node13</title>
<g id="a_edge15_Node000001_Node000013"><a xlink:title=" ">
<path fill="none" stroke="#63b8ff" d="M1053.04,-104.85C1036.55,-98.81 1017.66,-92.61 1000,-88.5 836.22,-50.42 636.27,-46.08 540.07,-46.52"/>
<polygon fill="#63b8ff" stroke="#63b8ff" points="1051.85,-108.15 1062.44,-108.38 1054.31,-101.59 1051.85,-108.15"/>
</a>
</g>
</g>
<!-- Node14 -->
<g id="Node000014" class="node">
<title>Node14</title>
<g id="a_Node000014"><a xlink:href="espnow__protocol__test__unit_8cpp.html#a087fdcdd7d4c34c0c22196a7223d96f5" target="_top" xlink:title="FreeRTOS task: periodically send simulated STATUS_UPDATE messages.">
<polygon fill="white" stroke="#666666" points="989,-170 877,-170 877,-151 989,-151 989,-170"/>
<text text-anchor="middle" x="933" y="-158" font-family="Helvetica,sans-Serif" font-size="10.00">status_update_task</text>
</a>
</g>
</g>
<!-- Node1&#45;&gt;Node14 -->
<g id="edge17_Node000001_Node000014" class="edge">
<title>Node1&#45;&gt;Node14</title>
<g id="a_edge17_Node000001_Node000014"><a xlink:title=" ">
<path fill="none" stroke="#63b8ff" d="M1025.82,-139.91C1008.94,-143.69 991.54,-147.6 976.48,-150.97"/>
<polygon fill="#63b8ff" stroke="#63b8ff" points="1026.69,-143.3 1035.68,-137.7 1025.16,-136.47 1026.69,-143.3"/>
</a>
</g>
</g>
<!-- Node15 -->
<g id="Node000015" class="node">
<title>Node15</title>
<g id="a_Node000015"><a xlink:href="main_8cpp.html#a087fdcdd7d4c34c0c22196a7223d96f5" target="_top" xlink:title="FreeRTOS task: periodically send STATUS_UPDATE to the remote controller.">
<polygon fill="white" stroke="#666666" points="374.5,-19 262.5,-19 262.5,0 374.5,0 374.5,-19"/>
<text text-anchor="middle" x="318.5" y="-7" font-family="Helvetica,sans-Serif" font-size="10.00">status_update_task</text>
</a>
</g>
</g>
<!-- Node1&#45;&gt;Node15 -->
<g id="edge19_Node000001_Node000015" class="edge">
<title>Node1&#45;&gt;Node15</title>
<g id="a_edge19_Node000001_Node000015"><a xlink:title=" ">
<path fill="none" stroke="#63b8ff" d="M1070.93,-102.55C1051.8,-89.14 1025.41,-72.29 1000,-61.5 911.9,-24.08 886.72,-9.5 791,-9.5 791,-9.5 791,-9.5 646,-9.5 550.63,-9.5 439.59,-9.5 374.67,-9.5"/>
<polygon fill="#63b8ff" stroke="#63b8ff" points="1069.01,-105.48 1079.18,-108.44 1073.07,-99.78 1069.01,-105.48"/>
</a>
</g>
</g>
<!-- Node3 -->
<g id="Node000003" class="node">
<title>Node3</title>
<g id="a_Node000003"><a xlink:href="main_8cpp.html#a05b979a9e80a20ecf074106e268da672" target="_top" xlink:title="Pretty&#45;print motor&#45;current calculated and cached register values under the FatigueTestUnit tag.">
<polygon fill="white" stroke="#666666" points="830,-199 750,-199 750,-180 830,-180 830,-199"/>
<text text-anchor="middle" x="790" y="-187" font-family="Helvetica,sans-Serif" font-size="10.00">RequestStart</text>
</a>
</g>
</g>
<!-- Node2&#45;&gt;Node3 -->
<g id="edge2_Node000002_Node000003" class="edge">
<title>Node2&#45;&gt;Node3</title>
<g id="a_edge2_Node000002_Node000003"><a xlink:title=" ">
<path fill="none" stroke="#63b8ff" d="M864.4,-193.66C852.67,-193 840.83,-192.33 830.18,-191.72"/>
<polygon fill="#63b8ff" stroke="#63b8ff" points="864.47,-197.17 874.65,-194.25 864.86,-190.19 864.47,-197.17"/>
</a>
</g>
</g>
<!-- Node3&#45;&gt;Node4 -->
<g id="edge3_Node000003_Node000004" class="edge">
<title>Node3&#45;&gt;Node4</title>
<g id="a_edge3_Node000003_Node000004"><a xlink:title=" ">
<path fill="none" stroke="#63b8ff" d="M739.55,-189.5C731.31,-189.5 722.65,-189.5 714.07,-189.5"/>
<polygon fill="#63b8ff" stroke="#63b8ff" points="739.72,-193 749.72,-189.5 739.72,-186 739.72,-193"/>
</a>
</g>
</g>
<!-- Node6 -->
<g id="Node000006" class="node">
<title>Node6</title>
<g id="a_Node000006"><a xlink:href="main_8cpp.html#af9a61f18ec0bf52c35280fd8748a0679" target="_top" xlink:title="Handle START command.">
<polygon fill="white" stroke="#666666" points="684,-144 610,-144 610,-125 684,-125 684,-144"/>
<text text-anchor="middle" x="647" y="-132" font-family="Helvetica,sans-Serif" font-size="10.00">HandleStart</text>
</a>
</g>
</g>
<!-- Node3&#45;&gt;Node6 -->
<g id="edge5_Node000003_Node000006" class="edge">
<title>Node3&#45;&gt;Node6</title>
<g id="a_edge5_Node000003_Node000006"><a xlink:title=" ">
<path fill="none" stroke="#63b8ff" d="M754.85,-176.18C729.5,-166.29 695.52,-153.04 672.75,-144.16"/>
<polygon fill="#63b8ff" stroke="#63b8ff" points="753.85,-179.55 764.44,-179.92 756.4,-173.02 753.85,-179.55"/>
</a>
</g>
</g>
<!-- Node5 -->
<g id="Node000005" class="node">
<title>Node5</title>
<g id="a_Node000005"><a xlink:href="main_8cpp.html#abce06be17fc37d675118a678a8100a36" target="_top" xlink:title=" ">
<polygon fill="white" stroke="#666666" points="65,-78 0,-78 0,-59 65,-59 65,-78"/>
<text text-anchor="middle" x="32.5" y="-66" font-family="Helvetica,sans-Serif" font-size="10.00">app_main</text>
</a>
</g>
</g>
<!-- Node4&#45;&gt;Node5 -->
<g id="edge4_Node000004_Node000005" class="edge">
<title>Node4&#45;&gt;Node5</title>
<g id="a_edge4_Node000004_Node000005"><a xlink:title=" ">
<path fill="none" stroke="#63b8ff" d="M569.48,-186.52C462.1,-180.41 261.85,-161.94 101,-106.5 81.04,-99.62 60.17,-86.89 47.02,-78.07"/>
<polygon fill="#63b8ff" stroke="#63b8ff" points="569.4,-190.02 579.58,-187.07 569.78,-183.03 569.4,-190.02"/>
</a>
</g>
</g>
<!-- Node7 -->
<g id="Node000007" class="node">
<title>Node7</title>
<g id="a_Node000007"><a xlink:href="classUartCommandParser.html#a2b7090fe7118485c639dce94074b6e68" target="_top" xlink:title="Parse and execute a single command line.">
<polygon fill="white" stroke="#666666" points="544,-105.5 420,-105.5 420,-75.5 544,-75.5 544,-105.5"/>
<text text-anchor="start" x="428" y="-93.5" font-family="Helvetica,sans-Serif" font-size="10.00">UartCommandParser::</text>
<text text-anchor="middle" x="482" y="-82.5" font-family="Helvetica,sans-Serif" font-size="10.00">ProcessCommand</text>
</a>
</g>
</g>
<!-- Node6&#45;&gt;Node7 -->
<g id="edge6_Node000006_Node000007" class="edge">
<title>Node6&#45;&gt;Node7</title>
<g id="a_edge6_Node000006_Node000007"><a xlink:title=" ">
<path fill="none" stroke="#63b8ff" d="M600.92,-122.33C581.7,-117.14 559.07,-111.04 538.81,-105.57"/>
<polygon fill="#63b8ff" stroke="#63b8ff" points="600.06,-125.73 610.63,-124.95 601.89,-118.97 600.06,-125.73"/>
</a>
</g>
</g>
<!-- Node8 -->
<g id="Node000008" class="node">
<title>Node8</title>
<g id="a_Node000008"><a xlink:href="classUartCommandParser.html#a867cccdf009c2a69f1edf9a02f50c984" target="_top" xlink:title="Poll the UART for input and process complete lines.">
<polygon fill="white" stroke="#666666" points="384,-105.5 253,-105.5 253,-75.5 384,-75.5 384,-105.5"/>
<text text-anchor="start" x="261" y="-93.5" font-family="Helvetica,sans-Serif" font-size="10.00">UartCommandParser::</text>
<text text-anchor="middle" x="318.5" y="-82.5" font-family="Helvetica,sans-Serif" font-size="10.00">ProcessUartCommands</text>
</a>
</g>
</g>
<!-- Node7&#45;&gt;Node8 -->
<g id="edge7_Node000007_Node000008" class="edge">
<title>Node7&#45;&gt;Node8</title>
<g id="a_edge7_Node000007_Node000008"><a xlink:title=" ">
<path fill="none" stroke="#63b8ff" d="M409.67,-90.5C401.18,-90.5 392.54,-90.5 384.14,-90.5"/>
<polygon fill="#63b8ff" stroke="#63b8ff" points="409.94,-94 419.94,-90.5 409.94,-87 409.94,-94"/>
</a>
</g>
</g>
<!-- Node9 -->
<g id="Node000009" class="node">
<title>Node9</title>
<g id="a_Node000009"><a xlink:href="main_8cpp.html#a5a8d7cdba17444119b8f942be87ffe68" target="_top" xlink:title="FreeRTOS task: poll UART and process commands.">
<polygon fill="white" stroke="#666666" points="217,-98 101,-98 101,-79 217,-79 217,-98"/>
<text text-anchor="middle" x="159" y="-86" font-family="Helvetica,sans-Serif" font-size="10.00">uart_command_task</text>
</a>
</g>
</g>
<!-- Node8&#45;&gt;Node9 -->
<g id="edge8_Node000008_Node000009" class="edge">
<title>Node8&#45;&gt;Node9</title>
<g id="a_edge8_Node000008_Node000009"><a xlink:title=" ">
<path fill="none" stroke="#63b8ff" d="M242.87,-89.55C234.2,-89.44 225.47,-89.33 217.09,-89.23"/>
<polygon fill="#63b8ff" stroke="#63b8ff" points="242.94,-93.05 252.98,-89.68 243.03,-86.05 242.94,-93.05"/>
</a>
</g>
</g>
<!-- Node9&#45;&gt;Node5 -->
<g id="edge9_Node000009_Node000005" class="edge">
<title>Node9&#45;&gt;Node5</title>
<g id="a_edge9_Node000009_Node000005"><a xlink:title=" ">
<path fill="none" stroke="#63b8ff" d="M90.76,-77.7C81.84,-76.27 73.06,-74.86 65.16,-73.59"/>
<polygon fill="#63b8ff" stroke="#63b8ff" points="90.42,-81.19 100.85,-79.32 91.53,-74.28 90.42,-81.19"/>
</a>
</g>
</g>
<!-- Node11 -->
<g id="Node000011" class="node">
<title>Node11</title>
<g id="a_Node000011"><a xlink:href="espnow__protocol__test__unit_8cpp.html#abce06be17fc37d675118a678a8100a36" target="_top" xlink:title=" ">
<polygon fill="white" stroke="#666666" points="822.5,-134 757.5,-134 757.5,-115 822.5,-115 822.5,-134"/>
<text text-anchor="middle" x="790" y="-122" font-family="Helvetica,sans-Serif" font-size="10.00">app_main</text>
</a>
</g>
</g>
<!-- Node10&#45;&gt;Node11 -->
<g id="edge11_Node000010_Node000011" class="edge">
<title>Node10&#45;&gt;Node11</title>
<g id="a_edge11_Node000010_Node000011"><a xlink:title=" ">
<path fill="none" stroke="#63b8ff" d="M855.43,-124.04C843.85,-124.13 832.49,-124.21 822.61,-124.28"/>
<polygon fill="#63b8ff" stroke="#63b8ff" points="855.65,-127.54 865.63,-123.97 855.6,-120.54 855.65,-127.54"/>
</a>
</g>
</g>
<!-- Node12&#45;&gt;Node7 -->
<g id="edge14_Node000012_Node000007" class="edge">
<title>Node12&#45;&gt;Node7</title>
<g id="a_edge14_Node000012_Node000007"><a xlink:title=" ">
<path fill="none" stroke="#63b8ff" d="M743.18,-87.95C690.2,-88.47 602.75,-89.33 544.04,-89.9"/>
<polygon fill="#63b8ff" stroke="#63b8ff" points="743.33,-91.45 753.3,-87.85 743.27,-84.45 743.33,-91.45"/>
</a>
</g>
</g>
<!-- Node13&#45;&gt;Node5 -->
<g id="edge16_Node000013_Node000005" class="edge">
<title>Node13&#45;&gt;Node5</title>
<g id="a_edge16_Node000013_Node000005"><a xlink:title=" ">
<path fill="none" stroke="#63b8ff" d="M413.77,-50.66C315.67,-55.26 137.17,-63.63 65.02,-67.02"/>
<polygon fill="#63b8ff" stroke="#63b8ff" points="414.04,-54.15 423.87,-50.18 413.72,-47.15 414.04,-54.15"/>
</a>
</g>
</g>
<!-- Node14&#45;&gt;Node11 -->
<g id="edge18_Node000014_Node000011" class="edge">
<title>Node14&#45;&gt;Node11</title>
<g id="a_edge18_Node000014_Node000011"><a xlink:title=" ">
<path fill="none" stroke="#63b8ff" d="M884.85,-148.46C864.46,-143.26 841.14,-137.3 822.85,-132.63"/>
<polygon fill="#63b8ff" stroke="#63b8ff" points="884.03,-151.86 894.58,-150.95 885.76,-145.08 884.03,-151.86"/>
</a>
</g>
</g>
<!-- Node15&#45;&gt;Node5 -->
<g id="edge20_Node000015_Node000005" class="edge">
<title>Node15&#45;&gt;Node5</title>
<g id="a_edge20_Node000015_Node000005"><a xlink:title=" ">
<path fill="none" stroke="#63b8ff" d="M251.92,-10.54C208.32,-12.73 150.25,-18.57 101,-33.5 81.67,-39.36 61.34,-50.72 48.1,-58.91"/>
<polygon fill="#63b8ff" stroke="#63b8ff" points="252.28,-14.02 262.11,-10.08 251.96,-7.03 252.28,-14.02"/>
</a>
</g>
</g>
</g>
</svg>
