<?xml version="1.0" encoding="UTF-8" standalone="no"?>
<!DOCTYPE svg PUBLIC "-//W3C//DTD SVG 1.1//EN"
 "http://www.w3.org/Graphics/SVG/1.1/DTD/svg11.dtd">
<!-- Generated by graphviz version 2.43.0 (0)
 -->
<!-- Title: CommandOutput::PrintEmptyLine Pages: 1 -->
<svg width="466pt" height="70pt"
 viewBox="0.00 0.00 466.00 69.50" xmlns="http://www.w3.org/2000/svg" xmlns:xlink="http://www.w3.org/1999/xlink">
<g id="graph0" class="graph" transform="scale(1 1) rotate(0) translate(4 65.5)">
<title>CommandOutput::PrintEmptyLine</title>
<!-- Node1 -->
<g id="Node000001" class="node">
<title>Node1</title>
<g id="a_Node000001"><a xlink:title=" ">
<polygon fill="#999999" stroke="#666666" points="458,-37 278,-37 278,-18 458,-18 458,-37"/>
<text text-anchor="middle" x="368" y="-25" font-family="Helvetica,sans-Serif" font-size="10.00">CommandOutput::PrintEmptyLine</text>
</a>
</g>
</g>
<!-- Node2 -->
<g id="Node000002" class="node">
<title>Node2</title>
<g id="a_Node000002"><a xlink:href="main_8cpp.html#abda5ef2605b311dad7dc06cc34373d11" target="_top" xlink:title="Handle HELP command.">
<polygon fill="white" stroke="#666666" points="238,-56 164,-56 164,-37 238,-37 238,-56"/>
<text text-anchor="middle" x="201" y="-44" font-family="Helvetica,sans-Serif" font-size="10.00">HandleHelp</text>
</a>
</g>
</g>
<!-- Node1&#45;&gt;Node2 -->
<g id="edge1_Node000001_Node000002" class="edge">
<title>Node1&#45;&gt;Node2</title>
<g id="a_edge1_Node000001_Node000002"><a xlink:title=" ">
<path fill="none" stroke="#63b8ff" d="M273.89,-38.22C261.31,-39.67 249.08,-41.08 238.37,-42.31"/>
<polygon fill="#63b8ff" stroke="#63b8ff" points="274.48,-41.68 284.02,-37.06 273.68,-34.72 274.48,-41.68"/>
</a>
</g>
</g>
<!-- Node4 -->
<g id="Node000004" class="node">
<title>Node4</title>
<g id="a_Node000004"><a xlink:href="main_8cpp.html#ac11dd858f48b436538b6a2bb4981db1c" target="_top" xlink:title="Handle STATUS command.">
<polygon fill="white" stroke="#666666" points="242,-19 160,-19 160,0 242,0 242,-19"/>
<text text-anchor="middle" x="201" y="-7" font-family="Helvetica,sans-Serif" font-size="10.00">HandleStatus</text>
</a>
</g>
</g>
<!-- Node1&#45;&gt;Node4 -->
<g id="edge3_Node000001_Node000004" class="edge">
<title>Node1&#45;&gt;Node4</title>
<g id="a_edge3_Node000001_Node000004"><a xlink:title=" ">
<path fill="none" stroke="#63b8ff" d="M269.56,-16.87C259.94,-15.82 250.59,-14.8 242.08,-13.87"/>
<polygon fill="#63b8ff" stroke="#63b8ff" points="269.35,-20.37 279.67,-17.97 270.11,-13.41 269.35,-20.37"/>
</a>
</g>
</g>
<!-- Node3 -->
<g id="Node000003" class="node">
<title>Node3</title>
<g id="a_Node000003"><a xlink:href="classUartCommandParser.html#a2b7090fe7118485c639dce94074b6e68" target="_top" xlink:title="Process a command line.">
<polygon fill="white" stroke="#666666" points="124,-61.5 0,-61.5 0,-31.5 124,-31.5 124,-61.5"/>
<text text-anchor="start" x="8" y="-49.5" font-family="Helvetica,sans-Serif" font-size="10.00">UartCommandParser::</text>
<text text-anchor="middle" x="62" y="-38.5" font-family="Helvetica,sans-Serif" font-size="10.00">ProcessCommand</text>
</a>
</g>
</g>
<!-- Node2&#45;&gt;Node3 -->
<g id="edge2_Node000002_Node000003" class="edge">
<title>Node2&#45;&gt;Node3</title>
<g id="a_edge2_Node000002_Node000003"><a xlink:title=" ">
<path fill="none" stroke="#63b8ff" d="M153.35,-46.5C143.96,-46.5 133.96,-46.5 124.17,-46.5"/>
<polygon fill="#63b8ff" stroke="#63b8ff" points="153.65,-50 163.65,-46.5 153.65,-43 153.65,-50"/>
</a>
</g>
</g>
</g>
</svg>
