<?xml version="1.0" encoding="UTF-8" standalone="no"?>
<!DOCTYPE svg PUBLIC "-//W3C//DTD SVG 1.1//EN"
 "http://www.w3.org/Graphics/SVG/1.1/DTD/svg11.dtd">
<!-- Generated by graphviz version 2.43.0 (0)
 -->
<!-- Title: ramp_control_comprehensive_test.cpp Pages: 1 -->
<svg width="2138pt" height="313pt"
 viewBox="0.00 0.00 2138.00 313.00" xmlns="http://www.w3.org/2000/svg" xmlns:xlink="http://www.w3.org/1999/xlink">
<g id="graph0" class="graph" transform="scale(1 1) rotate(0) translate(4 309)">
<title>ramp_control_comprehensive_test.cpp</title>
<!-- Node1 -->
<g id="Node000001" class="node">
<title>Node1</title>
<g id="a_Node000001"><a xlink:title="Comprehensive Ramp Control testing suite for TMC5160 (single motor)">
<polygon fill="#999999" stroke="#666666" points="1089,-305 928,-305 928,-275 1089,-275 1089,-305"/>
<text text-anchor="start" x="936" y="-293" font-family="Helvetica,sans-Serif" font-size="10.00">ramp_control_comprehensive</text>
<text text-anchor="middle" x="1008.5" y="-282" font-family="Helvetica,sans-Serif" font-size="10.00">_test.cpp</text>
</a>
</g>
</g>
<!-- Node2 -->
<g id="Node000002" class="node">
<title>Node2</title>
<g id="a_Node000002"><a xlink:href="tmc5160_8hpp.html" target="_top" xlink:title="Main TMC5160 stepper motor driver interface and subsystem classes.">
<polygon fill="white" stroke="#666666" points="401,-239 276,-239 276,-220 401,-220 401,-239"/>
<text text-anchor="middle" x="338.5" y="-227" font-family="Helvetica,sans-Serif" font-size="10.00">../../../inc/tmc5160.hpp</text>
</a>
</g>
</g>
<!-- Node1&#45;&gt;Node2 -->
<g id="edge1_Node000001_Node000002" class="edge">
<title>Node1&#45;&gt;Node2</title>
<g id="a_edge1_Node000001_Node000002"><a xlink:title=" ">
<path fill="none" stroke="#63b8ff" d="M927.68,-281.94C796.16,-270.46 537.85,-247.91 411.54,-236.88"/>
<polygon fill="#63b8ff" stroke="#63b8ff" points="411.47,-233.36 401.2,-235.97 410.86,-240.33 411.47,-233.36"/>
</a>
</g>
</g>
<!-- Node20 -->
<g id="Node000020" class="node">
<title>Node20</title>
<g id="a_Node000020"><a xlink:href="tmc5160__units_8hpp.html" target="_top" xlink:title="Unit conversion functions for TMC5160 driver.">
<polygon fill="white" stroke="#666666" points="459.5,-129 323.5,-129 323.5,-110 459.5,-110 459.5,-129"/>
<text text-anchor="middle" x="391.5" y="-117" font-family="Helvetica,sans-Serif" font-size="10.00">../inc/tmc5160_units.hpp</text>
</a>
</g>
</g>
<!-- Node1&#45;&gt;Node20 -->
<g id="edge31_Node000001_Node000020" class="edge">
<title>Node1&#45;&gt;Node20</title>
<g id="a_edge31_Node000001_Node000020"><a xlink:title=" ">
<path fill="none" stroke="#63b8ff" d="M950.17,-274.96C910.21,-265.21 856.04,-251.73 808.5,-239 692.86,-208.03 664.67,-197.67 549.5,-165 509.55,-153.67 463.88,-140.82 431.95,-131.85"/>
<polygon fill="#63b8ff" stroke="#63b8ff" points="432.67,-128.41 422.09,-129.08 430.78,-135.15 432.67,-128.41"/>
</a>
</g>
</g>
<!-- Node21 -->
<g id="Node000021" class="node">
<title>Node21</title>
<g id="a_Node000021"><a xlink:href="esp32__tmc5160__bus_8hpp.html" target="_top" xlink:title="ESP32&#45;specific communication interfaces for TMC5160 using SPI and UART.">
<polygon fill="white" stroke="#666666" points="1182,-239 1045,-239 1045,-220 1182,-220 1182,-239"/>
<text text-anchor="middle" x="1113.5" y="-227" font-family="Helvetica,sans-Serif" font-size="10.00">esp32_tmc5160_bus.hpp</text>
</a>
</g>
</g>
<!-- Node1&#45;&gt;Node21 -->
<g id="edge32_Node000001_Node000021" class="edge">
<title>Node1&#45;&gt;Node21</title>
<g id="a_edge32_Node000001_Node000021"><a xlink:title=" ">
<path fill="none" stroke="#63b8ff" d="M1033.65,-274.99C1050.39,-265.66 1072.27,-253.47 1088.89,-244.21"/>
<polygon fill="#63b8ff" stroke="#63b8ff" points="1090.96,-247.06 1097.99,-239.14 1087.55,-240.95 1090.96,-247.06"/>
</a>
</g>
</g>
<!-- Node30 -->
<g id="Node000030" class="node">
<title>Node30</title>
<g id="a_Node000030"><a xlink:href="esp32__tmc5160__bus__config_8hpp.html" target="_top" xlink:title="ESP32 GPIO pin configuration for TMC5160 driver tests.">
<polygon fill="white" stroke="#666666" points="989.5,-239 817.5,-239 817.5,-220 989.5,-220 989.5,-239"/>
<text text-anchor="middle" x="903.5" y="-227" font-family="Helvetica,sans-Serif" font-size="10.00">esp32_tmc5160_bus_config.hpp</text>
</a>
</g>
</g>
<!-- Node1&#45;&gt;Node30 -->
<g id="edge45_Node000001_Node000030" class="edge">
<title>Node1&#45;&gt;Node30</title>
<g id="a_edge45_Node000001_Node000030"><a xlink:title=" ">
<path fill="none" stroke="#63b8ff" d="M983.35,-274.99C966.61,-265.66 944.73,-253.47 928.11,-244.21"/>
<polygon fill="#63b8ff" stroke="#63b8ff" points="929.45,-240.95 919.01,-239.14 926.04,-247.06 929.45,-240.95"/>
</a>
</g>
</g>
<!-- Node31 -->
<g id="Node000031" class="node">
<title>Node31</title>
<g id="a_Node000031"><a xlink:href="TestFramework_8h.html" target="_top" xlink:title="Shared testing framework for ESP32&#45;C6 comprehensive test suites.">
<polygon fill="white" stroke="#666666" points="1688.5,-239 1588.5,-239 1588.5,-220 1688.5,-220 1688.5,-239"/>
<text text-anchor="middle" x="1638.5" y="-227" font-family="Helvetica,sans-Serif" font-size="10.00">TestFramework.h</text>
</a>
</g>
</g>
<!-- Node1&#45;&gt;Node31 -->
<g id="edge48_Node000001_Node000031" class="edge">
<title>Node1&#45;&gt;Node31</title>
<g id="a_edge48_Node000001_Node000031"><a xlink:title=" ">
<path fill="none" stroke="#63b8ff" d="M1089.25,-281.5C1217.24,-269.62 1463.83,-246.72 1577.89,-236.13"/>
<polygon fill="#63b8ff" stroke="#63b8ff" points="1578.55,-239.58 1588.18,-235.17 1577.9,-232.61 1578.55,-239.58"/>
</a>
</g>
</g>
<!-- Node35 -->
<g id="Node000035" class="node">
<title>Node35</title>
<g id="a_Node000035"><a xlink:title=" ">
<polygon fill="#e0e0e0" stroke="#999999" points="1764.5,-239 1706.5,-239 1706.5,-220 1764.5,-220 1764.5,-239"/>
<text text-anchor="middle" x="1735.5" y="-227" font-family="Helvetica,sans-Serif" font-size="10.00">memory</text>
</a>
</g>
</g>
<!-- Node1&#45;&gt;Node35 -->
<g id="edge56_Node000001_Node000035" class="edge">
<title>Node1&#45;&gt;Node35</title>
<g id="a_edge56_Node000001_Node000035"><a xlink:title=" ">
<path fill="none" stroke="#63b8ff" d="M1089.01,-287.01C1216.16,-283.01 1471.27,-271.55 1696.11,-238.99"/>
<polygon fill="#63b8ff" stroke="#63b8ff" points="1696.73,-242.43 1706.12,-237.52 1695.72,-235.51 1696.73,-242.43"/>
</a>
</g>
</g>
<!-- Node3 -->
<g id="Node000003" class="node">
<title>Node3</title>
<g id="a_Node000003"><a xlink:title=" ">
<polygon fill="#e0e0e0" stroke="#999999" points="319,-74 272,-74 272,-55 319,-55 319,-74"/>
<text text-anchor="middle" x="295.5" y="-62" font-family="Helvetica,sans-Serif" font-size="10.00">cmath</text>
</a>
</g>
</g>
<!-- Node2&#45;&gt;Node3 -->
<g id="edge2_Node000002_Node000003" class="edge">
<title>Node2&#45;&gt;Node3</title>
<g id="a_edge2_Node000002_Node000003"><a xlink:title=" ">
<path fill="none" stroke="#63b8ff" d="M317.98,-220C303.48,-212.77 285.15,-200.86 276.5,-184 259.69,-151.24 275.15,-107.23 286.33,-83.12"/>
<polygon fill="#63b8ff" stroke="#63b8ff" points="289.49,-84.61 290.76,-74.1 283.21,-81.53 289.49,-84.61"/>
</a>
</g>
</g>
<!-- Node4 -->
<g id="Node000004" class="node">
<title>Node4</title>
<g id="a_Node000004"><a xlink:title=" ">
<polygon fill="#e0e0e0" stroke="#999999" points="258.5,-19 208.5,-19 208.5,0 258.5,0 258.5,-19"/>
<text text-anchor="middle" x="233.5" y="-7" font-family="Helvetica,sans-Serif" font-size="10.00">cstdint</text>
</a>
</g>
</g>
<!-- Node2&#45;&gt;Node4 -->
<g id="edge3_Node000002_Node000004" class="edge">
<title>Node2&#45;&gt;Node4</title>
<g id="a_edge3_Node000002_Node000004"><a xlink:title=" ">
<path fill="none" stroke="#63b8ff" d="M315.42,-219.86C299.48,-212.69 279.12,-200.9 267.5,-184 234.53,-136.03 231.75,-63.92 232.52,-29.76"/>
<polygon fill="#63b8ff" stroke="#63b8ff" points="236.03,-29.48 232.9,-19.36 229.04,-29.23 236.03,-29.48"/>
</a>
</g>
</g>
<!-- Node5 -->
<g id="Node000005" class="node">
<title>Node5</title>
<g id="a_Node000005"><a xlink:title=" ">
<polygon fill="#e0e0e0" stroke="#999999" points="453.5,-184 409.5,-184 409.5,-165 453.5,-165 453.5,-184"/>
<text text-anchor="middle" x="431.5" y="-172" font-family="Helvetica,sans-Serif" font-size="10.00">limits</text>
</a>
</g>
</g>
<!-- Node2&#45;&gt;Node5 -->
<g id="edge4_Node000002_Node000005" class="edge">
<title>Node2&#45;&gt;Node5</title>
<g id="a_edge4_Node000002_Node000005"><a xlink:title=" ">
<path fill="none" stroke="#63b8ff" d="M353.44,-219.98C368,-211.69 390.37,-198.94 407.43,-189.22"/>
<polygon fill="#63b8ff" stroke="#63b8ff" points="409.33,-192.16 416.29,-184.17 405.86,-186.08 409.33,-192.16"/>
</a>
</g>
</g>
<!-- Node6 -->
<g id="Node000006" class="node">
<title>Node6</title>
<g id="a_Node000006"><a xlink:title=" ">
<polygon fill="#e0e0e0" stroke="#999999" points="541,-184 472,-184 472,-165 541,-165 541,-184"/>
<text text-anchor="middle" x="506.5" y="-172" font-family="Helvetica,sans-Serif" font-size="10.00">type_traits</text>
</a>
</g>
</g>
<!-- Node2&#45;&gt;Node6 -->
<g id="edge5_Node000002_Node000006" class="edge">
<title>Node2&#45;&gt;Node6</title>
<g id="a_edge5_Node000002_Node000006"><a xlink:title=" ">
<path fill="none" stroke="#63b8ff" d="M365.49,-219.98C393.7,-211.09 438.14,-197.07 469.58,-187.15"/>
<polygon fill="#63b8ff" stroke="#63b8ff" points="470.81,-190.43 479.3,-184.08 468.71,-183.75 470.81,-190.43"/>
</a>
</g>
</g>
<!-- Node7 -->
<g id="Node000007" class="node">
<title>Node7</title>
<g id="a_Node000007"><a xlink:href="tmc5160__comm__interface_8hpp.html" target="_top" xlink:title="Communication interfaces for TMC5160 stepper motor driver using SPI and UART.">
<polygon fill="white" stroke="#666666" points="835,-184 670,-184 670,-165 835,-165 835,-184"/>
<text text-anchor="middle" x="752.5" y="-172" font-family="Helvetica,sans-Serif" font-size="10.00">tmc5160_comm_interface.hpp</text>
</a>
</g>
</g>
<!-- Node2&#45;&gt;Node7 -->
<g id="edge6_Node000002_Node000007" class="edge">
<title>Node2&#45;&gt;Node7</title>
<g id="a_edge6_Node000002_Node000007"><a xlink:title=" ">
<path fill="none" stroke="#63b8ff" d="M401.38,-220.45C474.87,-211.04 596.49,-195.47 675.55,-185.35"/>
<polygon fill="#63b8ff" stroke="#63b8ff" points="676.46,-188.76 685.94,-184.02 675.58,-181.82 676.46,-188.76"/>
</a>
</g>
</g>
<!-- Node16 -->
<g id="Node000016" class="node">
<title>Node16</title>
<g id="a_Node000016"><a xlink:href="tmc5160__config_8hpp.html" target="_top" xlink:title="Configuration structures for TMC5160 stepper motor driver.">
<polygon fill="white" stroke="#666666" points="115,-184 0,-184 0,-165 115,-165 115,-184"/>
<text text-anchor="middle" x="57.5" y="-172" font-family="Helvetica,sans-Serif" font-size="10.00">tmc5160_config.hpp</text>
</a>
</g>
</g>
<!-- Node2&#45;&gt;Node16 -->
<g id="edge16_Node000002_Node000016" class="edge">
<title>Node2&#45;&gt;Node16</title>
<g id="a_edge16_Node000002_Node000016"><a xlink:title=" ">
<path fill="none" stroke="#63b8ff" d="M293.35,-219.98C244.24,-210.72 165.68,-195.9 112.88,-185.94"/>
<polygon fill="#63b8ff" stroke="#63b8ff" points="113.48,-182.5 103,-184.08 112.18,-189.37 113.48,-182.5"/>
</a>
</g>
</g>
<!-- Node17 -->
<g id="Node000017" class="node">
<title>Node17</title>
<g id="a_Node000017"><a xlink:href="tmc5160__types_8hpp.html" target="_top" xlink:title="Type definitions and enumerations for TMC5160 stepper motor driver.">
<polygon fill="white" stroke="#666666" points="153,-129 40,-129 40,-110 153,-110 153,-129"/>
<text text-anchor="middle" x="96.5" y="-117" font-family="Helvetica,sans-Serif" font-size="10.00">tmc5160_types.hpp</text>
</a>
</g>
</g>
<!-- Node2&#45;&gt;Node17 -->
<g id="edge23_Node000002_Node000017" class="edge">
<title>Node2&#45;&gt;Node17</title>
<g id="a_edge23_Node000002_Node000017"><a xlink:title=" ">
<path fill="none" stroke="#63b8ff" d="M277.75,-219.94C243.85,-213.42 201.7,-202.34 167.5,-184 145.08,-171.98 123.97,-151.48 110.69,-137.03"/>
<polygon fill="#63b8ff" stroke="#63b8ff" points="113.09,-134.47 103.83,-129.33 107.87,-139.12 113.09,-134.47"/>
</a>
</g>
</g>
<!-- Node18 -->
<g id="Node000018" class="node">
<title>Node18</title>
<g id="a_Node000018"><a xlink:href="tmc5160__registers_8hpp.html" target="_top" xlink:title="Register definitions and bitfield structures for TMC5160 stepper motor driver.">
<polygon fill="white" stroke="#666666" points="205.5,-74 77.5,-74 77.5,-55 205.5,-55 205.5,-74"/>
<text text-anchor="middle" x="141.5" y="-62" font-family="Helvetica,sans-Serif" font-size="10.00">tmc5160_registers.hpp</text>
</a>
</g>
</g>
<!-- Node2&#45;&gt;Node18 -->
<g id="edge22_Node000002_Node000018" class="edge">
<title>Node2&#45;&gt;Node18</title>
<g id="a_edge22_Node000002_Node000018"><a xlink:title=" ">
<path fill="none" stroke="#63b8ff" d="M284.05,-219.93C257.97,-213.58 227.68,-202.65 205.5,-184 196.98,-176.83 165.71,-114.73 150.26,-83.41"/>
<polygon fill="#63b8ff" stroke="#63b8ff" points="153.23,-81.52 145.68,-74.09 146.95,-84.61 153.23,-81.52"/>
</a>
</g>
</g>
<!-- Node19 -->
<g id="Node000019" class="node">
<title>Node19</title>
<g id="a_Node000019"><a xlink:href="tmc5160_8cpp.html" target="_top" xlink:title="Implementation of TMC5160 driver methods.">
<polygon fill="white" stroke="#666666" points="391.5,-184 285.5,-184 285.5,-165 391.5,-165 391.5,-184"/>
<text text-anchor="middle" x="338.5" y="-172" font-family="Helvetica,sans-Serif" font-size="10.00">../src/tmc5160.cpp</text>
</a>
</g>
</g>
<!-- Node2&#45;&gt;Node19 -->
<g id="edge24_Node000002_Node000019" class="edge">
<title>Node2&#45;&gt;Node19</title>
<g id="a_edge24_Node000002_Node000019"><a xlink:title=" ">
<path fill="none" stroke="#63b8ff" d="M333.33,-219.75C331.84,-212.8 331.4,-202.85 332.02,-194.13"/>
<polygon fill="#63b8ff" stroke="#63b8ff" points="335.51,-194.47 333.37,-184.09 328.57,-193.53 335.51,-194.47"/>
</a>
</g>
</g>
<!-- Node7&#45;&gt;Node4 -->
<g id="edge10_Node000007_Node000004" class="edge">
<title>Node7&#45;&gt;Node4</title>
<g id="a_edge10_Node000007_Node000004"><a xlink:title=" ">
<path fill="none" stroke="#63b8ff" d="M744.58,-164.58C731.72,-150.68 704.87,-124 676.5,-110 536.08,-40.69 346.83,-19.03 269.09,-12.81"/>
<polygon fill="#63b8ff" stroke="#63b8ff" points="269.11,-9.3 258.88,-12.03 268.58,-16.28 269.11,-9.3"/>
</a>
</g>
</g>
<!-- Node8 -->
<g id="Node000008" class="node">
<title>Node8</title>
<g id="a_Node000008"><a xlink:title=" ">
<polygon fill="#e0e0e0" stroke="#999999" points="541.5,-129 477.5,-129 477.5,-110 541.5,-110 541.5,-129"/>
<text text-anchor="middle" x="509.5" y="-117" font-family="Helvetica,sans-Serif" font-size="10.00">algorithm</text>
</a>
</g>
</g>
<!-- Node7&#45;&gt;Node8 -->
<g id="edge7_Node000007_Node000008" class="edge">
<title>Node7&#45;&gt;Node8</title>
<g id="a_edge7_Node000007_Node000008"><a xlink:title=" ">
<path fill="none" stroke="#63b8ff" d="M713.46,-164.98C669.18,-155.33 597.24,-139.64 551.69,-129.7"/>
<polygon fill="#63b8ff" stroke="#63b8ff" points="552.35,-126.26 541.84,-127.55 550.86,-133.1 552.35,-126.26"/>
</a>
</g>
</g>
<!-- Node9 -->
<g id="Node000009" class="node">
<title>Node9</title>
<g id="a_Node000009"><a xlink:title=" ">
<polygon fill="#e0e0e0" stroke="#999999" points="667.5,-129 625.5,-129 625.5,-110 667.5,-110 667.5,-129"/>
<text text-anchor="middle" x="646.5" y="-117" font-family="Helvetica,sans-Serif" font-size="10.00">array</text>
</a>
</g>
</g>
<!-- Node7&#45;&gt;Node9 -->
<g id="edge8_Node000007_Node000009" class="edge">
<title>Node7&#45;&gt;Node9</title>
<g id="a_edge8_Node000007_Node000009"><a xlink:title=" ">
<path fill="none" stroke="#63b8ff" d="M735.47,-164.98C718.57,-156.54 692.44,-143.47 672.86,-133.68"/>
<polygon fill="#63b8ff" stroke="#63b8ff" points="674.35,-130.51 663.84,-129.17 671.22,-136.77 674.35,-130.51"/>
</a>
</g>
</g>
<!-- Node10 -->
<g id="Node000010" class="node">
<title>Node10</title>
<g id="a_Node000010"><a xlink:title=" ">
<polygon fill="#e0e0e0" stroke="#999999" points="971,-129 918,-129 918,-110 971,-110 971,-129"/>
<text text-anchor="middle" x="944.5" y="-117" font-family="Helvetica,sans-Serif" font-size="10.00">cstdarg</text>
</a>
</g>
</g>
<!-- Node7&#45;&gt;Node10 -->
<g id="edge9_Node000007_Node000010" class="edge">
<title>Node7&#45;&gt;Node10</title>
<g id="a_edge9_Node000007_Node000010"><a xlink:title=" ">
<path fill="none" stroke="#63b8ff" d="M783.35,-164.98C817.36,-155.6 872.02,-140.51 908.1,-130.55"/>
<polygon fill="#63b8ff" stroke="#63b8ff" points="909.05,-133.92 917.75,-127.88 907.18,-127.17 909.05,-133.92"/>
</a>
</g>
</g>
<!-- Node11 -->
<g id="Node000011" class="node">
<title>Node11</title>
<g id="a_Node000011"><a xlink:title=" ">
<polygon fill="#e0e0e0" stroke="#999999" points="769.5,-129 723.5,-129 723.5,-110 769.5,-110 769.5,-129"/>
<text text-anchor="middle" x="746.5" y="-117" font-family="Helvetica,sans-Serif" font-size="10.00">cstdio</text>
</a>
</g>
</g>
<!-- Node7&#45;&gt;Node11 -->
<g id="edge11_Node000007_Node000011" class="edge">
<title>Node7&#45;&gt;Node11</title>
<g id="a_edge11_Node000007_Node000011"><a xlink:title=" ">
<path fill="none" stroke="#63b8ff" d="M751.51,-164.75C750.72,-157.8 749.6,-147.85 748.61,-139.13"/>
<polygon fill="#63b8ff" stroke="#63b8ff" points="752.08,-138.63 747.47,-129.09 745.12,-139.42 752.08,-138.63"/>
</a>
</g>
</g>
<!-- Node12 -->
<g id="Node000012" class="node">
<title>Node12</title>
<g id="a_Node000012"><a xlink:title=" ">
<polygon fill="#e0e0e0" stroke="#999999" points="837,-129 788,-129 788,-110 837,-110 837,-129"/>
<text text-anchor="middle" x="812.5" y="-117" font-family="Helvetica,sans-Serif" font-size="10.00">cstdlib</text>
</a>
</g>
</g>
<!-- Node7&#45;&gt;Node12 -->
<g id="edge12_Node000007_Node000012" class="edge">
<title>Node7&#45;&gt;Node12</title>
<g id="a_edge12_Node000007_Node000012"><a xlink:title=" ">
<path fill="none" stroke="#63b8ff" d="M762.14,-164.98C771.01,-157.15 784.37,-145.34 795.11,-135.86"/>
<polygon fill="#63b8ff" stroke="#63b8ff" points="797.51,-138.41 802.68,-129.17 792.87,-133.17 797.51,-138.41"/>
</a>
</g>
</g>
<!-- Node13 -->
<g id="Node000013" class="node">
<title>Node13</title>
<g id="a_Node000013"><a xlink:title=" ">
<polygon fill="#e0e0e0" stroke="#999999" points="1039.5,-129 989.5,-129 989.5,-110 1039.5,-110 1039.5,-129"/>
<text text-anchor="middle" x="1014.5" y="-117" font-family="Helvetica,sans-Serif" font-size="10.00">cstring</text>
</a>
</g>
</g>
<!-- Node7&#45;&gt;Node13 -->
<g id="edge13_Node000007_Node000013" class="edge">
<title>Node7&#45;&gt;Node13</title>
<g id="a_edge13_Node000007_Node000013"><a xlink:title=" ">
<path fill="none" stroke="#63b8ff" d="M799.14,-164.99C845.12,-156.45 917.32,-142.64 979.5,-129 979.6,-128.98 979.7,-128.96 979.8,-128.93"/>
<polygon fill="#63b8ff" stroke="#63b8ff" points="980.33,-132.4 989.3,-126.76 978.77,-125.58 980.33,-132.4"/>
</a>
</g>
</g>
<!-- Node14 -->
<g id="Node000014" class="node">
<title>Node14</title>
<g id="a_Node000014"><a xlink:title=" ">
<polygon fill="#e0e0e0" stroke="#999999" points="899.5,-129 855.5,-129 855.5,-110 899.5,-110 899.5,-129"/>
<text text-anchor="middle" x="877.5" y="-117" font-family="Helvetica,sans-Serif" font-size="10.00">string</text>
</a>
</g>
</g>
<!-- Node7&#45;&gt;Node14 -->
<g id="edge14_Node000007_Node000014" class="edge">
<title>Node7&#45;&gt;Node14</title>
<g id="a_edge14_Node000007_Node000014"><a xlink:title=" ">
<path fill="none" stroke="#63b8ff" d="M772.58,-164.98C792.87,-156.38 824.46,-142.99 847.67,-133.15"/>
<polygon fill="#63b8ff" stroke="#63b8ff" points="849.21,-136.3 857.05,-129.17 846.48,-129.85 849.21,-136.3"/>
</a>
</g>
</g>
<!-- Node15 -->
<g id="Node000015" class="node">
<title>Node15</title>
<g id="a_Node000015"><a xlink:title=" ">
<polygon fill="#e0e0e0" stroke="#999999" points="607,-129 560,-129 560,-110 607,-110 607,-129"/>
<text text-anchor="middle" x="583.5" y="-117" font-family="Helvetica,sans-Serif" font-size="10.00">vector</text>
</a>
</g>
</g>
<!-- Node7&#45;&gt;Node15 -->
<g id="edge15_Node000007_Node000015" class="edge">
<title>Node7&#45;&gt;Node15</title>
<g id="a_edge15_Node000007_Node000015"><a xlink:title=" ">
<path fill="none" stroke="#63b8ff" d="M725.35,-164.98C695.8,-155.72 648.53,-140.89 616.77,-130.93"/>
<polygon fill="#63b8ff" stroke="#63b8ff" points="617.63,-127.54 607.04,-127.88 615.54,-134.22 617.63,-127.54"/>
</a>
</g>
</g>
<!-- Node16&#45;&gt;Node4 -->
<g id="edge21_Node000016_Node000004" class="edge">
<title>Node16&#45;&gt;Node4</title>
<g id="a_edge21_Node000016_Node000004"><a xlink:title=" ">
<path fill="none" stroke="#63b8ff" d="M50.35,-164.97C43.73,-156.48 34.35,-142.75 30.5,-129 20.94,-94.82 32.5,-76.8 60.5,-55 100.76,-23.65 160.73,-14.22 198.44,-11.48"/>
<polygon fill="#63b8ff" stroke="#63b8ff" points="198.69,-14.97 208.46,-10.87 198.26,-7.98 198.69,-14.97"/>
</a>
</g>
</g>
<!-- Node16&#45;&gt;Node17 -->
<g id="edge17_Node000016_Node000017" class="edge">
<title>Node16&#45;&gt;Node17</title>
<g id="a_edge17_Node000016_Node000017"><a xlink:title=" ">
<path fill="none" stroke="#63b8ff" d="M63.94,-164.75C69.39,-157.34 77.36,-146.5 84.06,-137.41"/>
<polygon fill="#63b8ff" stroke="#63b8ff" points="87.07,-139.22 90.18,-129.09 81.43,-135.07 87.07,-139.22"/>
</a>
</g>
</g>
<!-- Node17&#45;&gt;Node4 -->
<g id="edge18_Node000017_Node000004" class="edge">
<title>Node17&#45;&gt;Node4</title>
<g id="a_edge18_Node000017_Node000004"><a xlink:title=" ">
<path fill="none" stroke="#63b8ff" d="M87.07,-109.59C74.51,-96.62 55.31,-72.22 68.5,-55 84.2,-34.5 154.82,-21.31 198.42,-14.96"/>
<polygon fill="#63b8ff" stroke="#63b8ff" points="198.93,-18.42 208.35,-13.56 197.96,-11.49 198.93,-18.42"/>
</a>
</g>
</g>
<!-- Node17&#45;&gt;Node18 -->
<g id="edge19_Node000017_Node000018" class="edge">
<title>Node17&#45;&gt;Node18</title>
<g id="a_edge19_Node000017_Node000018"><a xlink:title=" ">
<path fill="none" stroke="#63b8ff" d="M103.93,-109.75C110.35,-102.18 119.81,-91.05 127.62,-81.84"/>
<polygon fill="#63b8ff" stroke="#63b8ff" points="130.4,-83.98 134.21,-74.09 125.07,-79.45 130.4,-83.98"/>
</a>
</g>
</g>
<!-- Node18&#45;&gt;Node4 -->
<g id="edge20_Node000018_Node000004" class="edge">
<title>Node18&#45;&gt;Node4</title>
<g id="a_edge20_Node000018_Node000004"><a xlink:title=" ">
<path fill="none" stroke="#63b8ff" d="M156.28,-54.98C170.68,-46.69 192.81,-33.94 209.69,-24.22"/>
<polygon fill="#63b8ff" stroke="#63b8ff" points="211.53,-27.19 218.45,-19.17 208.04,-21.13 211.53,-27.19"/>
</a>
</g>
</g>
<!-- Node19&#45;&gt;Node2 -->
<g id="edge25_Node000019_Node000002" class="edge">
<title>Node19&#45;&gt;Node2</title>
<g id="a_edge25_Node000019_Node000002"><a xlink:title=" ">
<path fill="none" stroke="#63b8ff" d="M343.63,-184.09C345.14,-190.99 345.59,-200.93 344.99,-209.66"/>
<polygon fill="#63b8ff" stroke="#63b8ff" points="341.5,-209.38 343.67,-219.75 348.44,-210.29 341.5,-209.38"/>
</a>
</g>
</g>
<!-- Node19&#45;&gt;Node3 -->
<g id="edge27_Node000019_Node000003" class="edge">
<title>Node19&#45;&gt;Node3</title>
<g id="a_edge27_Node000019_Node000003"><a xlink:title=" ">
<path fill="none" stroke="#63b8ff" d="M333.17,-164.89C327.91,-156.11 319.87,-141.98 314.5,-129 308.44,-114.36 303.4,-97.1 300.04,-84.28"/>
<polygon fill="#63b8ff" stroke="#63b8ff" points="303.37,-83.17 297.53,-74.32 296.58,-84.87 303.37,-83.17"/>
</a>
</g>
</g>
<!-- Node19&#45;&gt;Node8 -->
<g id="edge26_Node000019_Node000008" class="edge">
<title>Node19&#45;&gt;Node8</title>
<g id="a_edge26_Node000019_Node000008"><a xlink:title=" ">
<path fill="none" stroke="#63b8ff" d="M365.97,-164.98C394.68,-156.09 439.92,-142.07 471.92,-132.15"/>
<polygon fill="#63b8ff" stroke="#63b8ff" points="473.3,-135.39 481.81,-129.08 471.22,-128.7 473.3,-135.39"/>
</a>
</g>
</g>
<!-- Node19&#45;&gt;Node20 -->
<g id="edge28_Node000019_Node000020" class="edge">
<title>Node19&#45;&gt;Node20</title>
<g id="a_edge28_Node000019_Node000020"><a xlink:title=" ">
<path fill="none" stroke="#63b8ff" d="M347.25,-164.75C354.97,-157.03 366.4,-145.6 375.72,-136.28"/>
<polygon fill="#63b8ff" stroke="#63b8ff" points="378.31,-138.64 382.91,-129.09 373.36,-133.69 378.31,-138.64"/>
</a>
</g>
</g>
<!-- Node20&#45;&gt;Node3 -->
<g id="edge29_Node000020_Node000003" class="edge">
<title>Node20&#45;&gt;Node3</title>
<g id="a_edge29_Node000020_Node000003"><a xlink:title=" ">
<path fill="none" stroke="#63b8ff" d="M376.08,-109.98C361.05,-101.69 337.96,-88.94 320.34,-79.22"/>
<polygon fill="#63b8ff" stroke="#63b8ff" points="321.65,-75.94 311.2,-74.17 318.27,-82.07 321.65,-75.94"/>
</a>
</g>
</g>
<!-- Node20&#45;&gt;Node4 -->
<g id="edge30_Node000020_Node000004" class="edge">
<title>Node20&#45;&gt;Node4</title>
<g id="a_edge30_Node000020_Node000004"><a xlink:title=" ">
<path fill="none" stroke="#63b8ff" d="M384.39,-109.75C373.33,-96.55 350.82,-71.36 327.5,-55 308.62,-41.75 285.18,-30.65 266.43,-22.84"/>
<polygon fill="#63b8ff" stroke="#63b8ff" points="267.68,-19.57 257.1,-19.07 265.06,-26.06 267.68,-19.57"/>
</a>
</g>
</g>
<!-- Node21&#45;&gt;Node4 -->
<g id="edge43_Node000021_Node000004" class="edge">
<title>Node21&#45;&gt;Node4</title>
<g id="a_edge43_Node000021_Node000004"><a xlink:title=" ">
<path fill="none" stroke="#63b8ff" d="M1100.45,-219.84C1089.45,-211.84 1074.15,-198.95 1065.5,-184 1048.6,-154.79 1073.57,-132.59 1048.5,-110 989.61,-56.95 417.88,-20.98 268.87,-12.45"/>
<polygon fill="#63b8ff" stroke="#63b8ff" points="269.06,-8.96 258.88,-11.88 268.67,-15.94 269.06,-8.96"/>
</a>
</g>
</g>
<!-- Node21&#45;&gt;Node7 -->
<g id="edge33_Node000021_Node000007" class="edge">
<title>Node21&#45;&gt;Node7</title>
<g id="a_edge33_Node000021_Node000007"><a xlink:title=" ">
<path fill="none" stroke="#63b8ff" d="M1055.5,-219.98C991.52,-210.59 888.65,-195.49 820.82,-185.53"/>
<polygon fill="#63b8ff" stroke="#63b8ff" points="821.06,-182.03 810.66,-184.04 820.04,-188.95 821.06,-182.03"/>
</a>
</g>
</g>
<!-- Node21&#45;&gt;Node10 -->
<g id="edge42_Node000021_Node000010" class="edge">
<title>Node21&#45;&gt;Node10</title>
<g id="a_edge42_Node000021_Node000010"><a xlink:title=" ">
<path fill="none" stroke="#63b8ff" d="M1090.72,-219.87C1070.88,-211.89 1041.75,-199.02 1018.5,-184 996.87,-170.02 974.81,-150.23 960.47,-136.47"/>
<polygon fill="#63b8ff" stroke="#63b8ff" points="962.59,-133.64 952.99,-129.16 957.7,-138.65 962.59,-133.64"/>
</a>
</g>
</g>
<!-- Node21&#45;&gt;Node13 -->
<g id="edge44_Node000021_Node000013" class="edge">
<title>Node21&#45;&gt;Node13</title>
<g id="a_edge44_Node000021_Node000013"><a xlink:title=" ">
<path fill="none" stroke="#63b8ff" d="M1086.53,-219.89C1068.75,-212.9 1046.29,-201.32 1032.5,-184 1022.35,-171.25 1017.92,-153.08 1015.99,-139.43"/>
<polygon fill="#63b8ff" stroke="#63b8ff" points="1019.45,-138.82 1014.89,-129.26 1012.49,-139.58 1019.45,-138.82"/>
</a>
</g>
</g>
<!-- Node22 -->
<g id="Node000022" class="node">
<title>Node22</title>
<g id="a_Node000022"><a xlink:title=" ">
<polygon fill="#e0e0e0" stroke="#999999" points="942.5,-184 864.5,-184 864.5,-165 942.5,-165 942.5,-184"/>
<text text-anchor="middle" x="903.5" y="-172" font-family="Helvetica,sans-Serif" font-size="10.00">driver/gpio.h</text>
</a>
</g>
</g>
<!-- Node21&#45;&gt;Node22 -->
<g id="edge34_Node000021_Node000022" class="edge">
<title>Node21&#45;&gt;Node22</title>
<g id="a_edge34_Node000021_Node000022"><a xlink:title=" ">
<path fill="none" stroke="#63b8ff" d="M1079.76,-219.98C1043.82,-210.91 986.78,-196.52 947.37,-186.57"/>
<polygon fill="#63b8ff" stroke="#63b8ff" points="948.06,-183.14 937.5,-184.08 946.34,-189.92 948.06,-183.14"/>
</a>
</g>
</g>
<!-- Node23 -->
<g id="Node000023" class="node">
<title>Node23</title>
<g id="a_Node000023"><a xlink:title=" ">
<polygon fill="#e0e0e0" stroke="#999999" points="1152,-184 1075,-184 1075,-165 1152,-165 1152,-184"/>
<text text-anchor="middle" x="1113.5" y="-172" font-family="Helvetica,sans-Serif" font-size="10.00">driver/ledc.h</text>
</a>
</g>
</g>
<!-- Node21&#45;&gt;Node23 -->
<g id="edge35_Node000021_Node000023" class="edge">
<title>Node21&#45;&gt;Node23</title>
<g id="a_edge35_Node000021_Node000023"><a xlink:title=" ">
<path fill="none" stroke="#63b8ff" d="M1113.5,-219.75C1113.5,-212.8 1113.5,-202.85 1113.5,-194.13"/>
<polygon fill="#63b8ff" stroke="#63b8ff" points="1117,-194.09 1113.5,-184.09 1110,-194.09 1117,-194.09"/>
</a>
</g>
</g>
<!-- Node24 -->
<g id="Node000024" class="node">
<title>Node24</title>
<g id="a_Node000024"><a xlink:title=" ">
<polygon fill="#e0e0e0" stroke="#999999" points="1280.5,-184 1170.5,-184 1170.5,-165 1280.5,-165 1280.5,-184"/>
<text text-anchor="middle" x="1225.5" y="-172" font-family="Helvetica,sans-Serif" font-size="10.00">driver/spi_master.h</text>
</a>
</g>
</g>
<!-- Node21&#45;&gt;Node24 -->
<g id="edge36_Node000021_Node000024" class="edge">
<title>Node21&#45;&gt;Node24</title>
<g id="a_edge36_Node000021_Node000024"><a xlink:title=" ">
<path fill="none" stroke="#63b8ff" d="M1131.49,-219.98C1149.43,-211.5 1177.22,-198.35 1197.93,-188.54"/>
<polygon fill="#63b8ff" stroke="#63b8ff" points="1199.64,-191.61 1207.18,-184.17 1196.64,-185.28 1199.64,-191.61"/>
</a>
</g>
</g>
<!-- Node25 -->
<g id="Node000025" class="node">
<title>Node25</title>
<g id="a_Node000025"><a xlink:title=" ">
<polygon fill="#e0e0e0" stroke="#999999" points="1376,-184 1299,-184 1299,-165 1376,-165 1376,-184"/>
<text text-anchor="middle" x="1337.5" y="-172" font-family="Helvetica,sans-Serif" font-size="10.00">driver/uart.h</text>
</a>
</g>
</g>
<!-- Node21&#45;&gt;Node25 -->
<g id="edge37_Node000021_Node000025" class="edge">
<title>Node21&#45;&gt;Node25</title>
<g id="a_edge37_Node000021_Node000025"><a xlink:title=" ">
<path fill="none" stroke="#63b8ff" d="M1149.49,-219.98C1187.99,-210.87 1249.19,-196.4 1291.24,-186.45"/>
<polygon fill="#63b8ff" stroke="#63b8ff" points="1292.3,-189.79 1301.23,-184.08 1290.69,-182.98 1292.3,-189.79"/>
</a>
</g>
</g>
<!-- Node26 -->
<g id="Node000026" class="node">
<title>Node26</title>
<g id="a_Node000026"><a xlink:title=" ">
<polygon fill="#e0e0e0" stroke="#999999" points="1670,-184 1607,-184 1607,-165 1670,-165 1670,-184"/>
<text text-anchor="middle" x="1638.5" y="-172" font-family="Helvetica,sans-Serif" font-size="10.00">esp_log.h</text>
</a>
</g>
</g>
<!-- Node21&#45;&gt;Node26 -->
<g id="edge38_Node000021_Node000026" class="edge">
<title>Node21&#45;&gt;Node26</title>
<g id="a_edge38_Node000021_Node000026"><a xlink:title=" ">
<path fill="none" stroke="#63b8ff" d="M1182.32,-224.62C1274.41,-218.89 1442.97,-206.49 1596.68,-183.94"/>
<polygon fill="#63b8ff" stroke="#63b8ff" points="1597.4,-187.37 1606.78,-182.44 1596.37,-180.45 1597.4,-187.37"/>
</a>
</g>
</g>
<!-- Node27 -->
<g id="Node000027" class="node">
<title>Node27</title>
<g id="a_Node000027"><a xlink:title=" ">
<polygon fill="#e0e0e0" stroke="#999999" points="1483,-184 1394,-184 1394,-165 1483,-165 1483,-184"/>
<text text-anchor="middle" x="1438.5" y="-172" font-family="Helvetica,sans-Serif" font-size="10.00">esp_rom_sys.h</text>
</a>
</g>
</g>
<!-- Node21&#45;&gt;Node27 -->
<g id="edge39_Node000021_Node000027" class="edge">
<title>Node21&#45;&gt;Node27</title>
<g id="a_edge39_Node000021_Node000027"><a xlink:title=" ">
<path fill="none" stroke="#63b8ff" d="M1165.72,-219.98C1225.51,-210.23 1323.02,-194.33 1383.82,-184.42"/>
<polygon fill="#63b8ff" stroke="#63b8ff" points="1384.68,-187.82 1393.99,-182.76 1383.56,-180.91 1384.68,-187.82"/>
</a>
</g>
</g>
<!-- Node28 -->
<g id="Node000028" class="node">
<title>Node28</title>
<g id="a_Node000028"><a xlink:title=" ">
<polygon fill="#e0e0e0" stroke="#999999" points="1801,-184 1688,-184 1688,-165 1801,-165 1801,-184"/>
<text text-anchor="middle" x="1744.5" y="-172" font-family="Helvetica,sans-Serif" font-size="10.00">freertos/FreeRTOS.h</text>
</a>
</g>
</g>
<!-- Node21&#45;&gt;Node28 -->
<g id="edge40_Node000021_Node000028" class="edge">
<title>Node21&#45;&gt;Node28</title>
<g id="a_edge40_Node000021_Node000028"><a xlink:title=" ">
<path fill="none" stroke="#63b8ff" d="M1182.43,-224.23C1287.19,-217.49 1492.98,-203.24 1677.63,-184.15"/>
<polygon fill="#63b8ff" stroke="#63b8ff" points="1678.22,-187.61 1687.8,-183.09 1677.49,-180.64 1678.22,-187.61"/>
</a>
</g>
</g>
<!-- Node29 -->
<g id="Node000029" class="node">
<title>Node29</title>
<g id="a_Node000029"><a xlink:title=" ">
<polygon fill="#e0e0e0" stroke="#999999" points="1588.5,-184 1500.5,-184 1500.5,-165 1588.5,-165 1588.5,-184"/>
<text text-anchor="middle" x="1544.5" y="-172" font-family="Helvetica,sans-Serif" font-size="10.00">freertos/task.h</text>
</a>
</g>
</g>
<!-- Node21&#45;&gt;Node29 -->
<g id="edge41_Node000021_Node000029" class="edge">
<title>Node21&#45;&gt;Node29</title>
<g id="a_edge41_Node000021_Node000029"><a xlink:title=" ">
<path fill="none" stroke="#63b8ff" d="M1182.24,-221.28C1255.93,-213.35 1376.6,-199.78 1490.35,-184.11"/>
<polygon fill="#63b8ff" stroke="#63b8ff" points="1490.85,-187.57 1500.27,-182.73 1489.89,-180.64 1490.85,-187.57"/>
</a>
</g>
</g>
<!-- Node30&#45;&gt;Node7 -->
<g id="edge47_Node000030_Node000007" class="edge">
<title>Node30&#45;&gt;Node7</title>
<g id="a_edge47_Node000030_Node000007"><a xlink:title=" ">
<path fill="none" stroke="#63b8ff" d="M879.24,-219.98C854.18,-211.19 814.87,-197.39 786.67,-187.49"/>
<polygon fill="#63b8ff" stroke="#63b8ff" points="787.8,-184.18 777.2,-184.17 785.48,-190.78 787.8,-184.18"/>
</a>
</g>
</g>
<!-- Node30&#45;&gt;Node22 -->
<g id="edge46_Node000030_Node000022" class="edge">
<title>Node30&#45;&gt;Node22</title>
<g id="a_edge46_Node000030_Node000022"><a xlink:title=" ">
<path fill="none" stroke="#63b8ff" d="M903.5,-219.75C903.5,-212.8 903.5,-202.85 903.5,-194.13"/>
<polygon fill="#63b8ff" stroke="#63b8ff" points="907,-194.09 903.5,-184.09 900,-194.09 907,-194.09"/>
</a>
</g>
</g>
<!-- Node31&#45;&gt;Node22 -->
<g id="edge51_Node000031_Node000022" class="edge">
<title>Node31&#45;&gt;Node22</title>
<g id="a_edge51_Node000031_Node000022"><a xlink:title=" ">
<path fill="none" stroke="#63b8ff" d="M1588.27,-224.88C1453.84,-215.18 1087.03,-188.73 953.21,-179.08"/>
<polygon fill="#63b8ff" stroke="#63b8ff" points="953.08,-175.57 942.86,-178.34 952.58,-182.55 953.08,-175.57"/>
</a>
</g>
</g>
<!-- Node31&#45;&gt;Node26 -->
<g id="edge49_Node000031_Node000026" class="edge">
<title>Node31&#45;&gt;Node26</title>
<g id="a_edge49_Node000031_Node000026"><a xlink:title=" ">
<path fill="none" stroke="#63b8ff" d="M1638.5,-219.75C1638.5,-212.8 1638.5,-202.85 1638.5,-194.13"/>
<polygon fill="#63b8ff" stroke="#63b8ff" points="1642,-194.09 1638.5,-184.09 1635,-194.09 1642,-194.09"/>
</a>
</g>
</g>
<!-- Node31&#45;&gt;Node28 -->
<g id="edge52_Node000031_Node000028" class="edge">
<title>Node31&#45;&gt;Node28</title>
<g id="a_edge52_Node000031_Node000028"><a xlink:title=" ">
<path fill="none" stroke="#63b8ff" d="M1655.53,-219.98C1672.43,-211.54 1698.56,-198.47 1718.14,-188.68"/>
<polygon fill="#63b8ff" stroke="#63b8ff" points="1719.78,-191.77 1727.16,-184.17 1716.65,-185.51 1719.78,-191.77"/>
</a>
</g>
</g>
<!-- Node31&#45;&gt;Node29 -->
<g id="edge55_Node000031_Node000029" class="edge">
<title>Node31&#45;&gt;Node29</title>
<g id="a_edge55_Node000031_Node000029"><a xlink:title=" ">
<path fill="none" stroke="#63b8ff" d="M1623.4,-219.98C1608.68,-211.69 1586.08,-198.94 1568.83,-189.22"/>
<polygon fill="#63b8ff" stroke="#63b8ff" points="1570.31,-186.03 1559.88,-184.17 1566.87,-192.13 1570.31,-186.03"/>
</a>
</g>
</g>
<!-- Node32 -->
<g id="Node000032" class="node">
<title>Node32</title>
<g id="a_Node000032"><a xlink:title=" ">
<polygon fill="#e0e0e0" stroke="#999999" points="1893.5,-184 1819.5,-184 1819.5,-165 1893.5,-165 1893.5,-184"/>
<text text-anchor="middle" x="1856.5" y="-172" font-family="Helvetica,sans-Serif" font-size="10.00">esp_timer.h</text>
</a>
</g>
</g>
<!-- Node31&#45;&gt;Node32 -->
<g id="edge50_Node000031_Node000032" class="edge">
<title>Node31&#45;&gt;Node32</title>
<g id="a_edge50_Node000031_Node000032"><a xlink:title=" ">
<path fill="none" stroke="#63b8ff" d="M1673.53,-219.98C1711,-210.87 1770.55,-196.4 1811.48,-186.45"/>
<polygon fill="#63b8ff" stroke="#63b8ff" points="1812.31,-189.85 1821.2,-184.08 1810.66,-183.04 1812.31,-189.85"/>
</a>
</g>
</g>
<!-- Node33 -->
<g id="Node000033" class="node">
<title>Node33</title>
<g id="a_Node000033"><a xlink:title=" ">
<polygon fill="#e0e0e0" stroke="#999999" points="2009,-184 1912,-184 1912,-165 2009,-165 2009,-184"/>
<text text-anchor="middle" x="1960.5" y="-172" font-family="Helvetica,sans-Serif" font-size="10.00">freertos/queue.h</text>
</a>
</g>
</g>
<!-- Node31&#45;&gt;Node33 -->
<g id="edge53_Node000031_Node000033" class="edge">
<title>Node31&#45;&gt;Node33</title>
<g id="a_edge53_Node000031_Node000033"><a xlink:title=" ">
<path fill="none" stroke="#63b8ff" d="M1688.81,-220.22C1746.42,-210.74 1840.66,-195.23 1901.62,-185.19"/>
<polygon fill="#63b8ff" stroke="#63b8ff" points="1902.56,-188.58 1911.86,-183.51 1901.42,-181.68 1902.56,-188.58"/>
</a>
</g>
</g>
<!-- Node34 -->
<g id="Node000034" class="node">
<title>Node34</title>
<g id="a_Node000034"><a xlink:title=" ">
<polygon fill="#e0e0e0" stroke="#999999" points="2130,-184 2027,-184 2027,-165 2130,-165 2130,-184"/>
<text text-anchor="middle" x="2078.5" y="-172" font-family="Helvetica,sans-Serif" font-size="10.00">freertos/semphr.h</text>
</a>
</g>
</g>
<!-- Node31&#45;&gt;Node34 -->
<g id="edge54_Node000031_Node000034" class="edge">
<title>Node31&#45;&gt;Node34</title>
<g id="a_edge54_Node000031_Node000034"><a xlink:title=" ">
<path fill="none" stroke="#63b8ff" d="M1688.7,-221.16C1691.67,-220.76 1694.63,-220.37 1697.5,-220 1836.7,-202.17 1874.4,-202.07 2016.82,-184.18"/>
<polygon fill="#63b8ff" stroke="#63b8ff" points="2017.32,-187.65 2026.8,-182.92 2016.44,-180.7 2017.32,-187.65"/>
</a>
</g>
</g>
</g>
</svg>
