<?xml version="1.0" encoding="UTF-8" standalone="no"?>
<!DOCTYPE svg PUBLIC "-//W3C//DTD SVG 1.1//EN"
 "http://www.w3.org/Graphics/SVG/1.1/DTD/svg11.dtd">
<!-- Generated by graphviz version 2.43.0 (0)
 -->
<!-- Title: tmc5160::UartFrame::VerifyCrc Pages: 1 -->
<svg width="292pt" height="76pt"
 viewBox="0.00 0.00 292.00 75.50" xmlns="http://www.w3.org/2000/svg" xmlns:xlink="http://www.w3.org/1999/xlink">
<g id="graph0" class="graph" transform="scale(1 1) rotate(0) translate(4 71.5)">
<title>tmc5160::UartFrame::VerifyCrc</title>
<!-- Node1 -->
<g id="Node000001" class="node">
<title>Node1</title>
<g id="a_Node000001"><a xlink:title="Verify CRC8 checksum of the frame.">
<polygon fill="#999999" stroke="#666666" points="117,-51 0,-51 0,-21 117,-21 117,-51"/>
<text text-anchor="start" x="8" y="-39" font-family="Helvetica,sans-Serif" font-size="10.00">tmc5160::UartFrame</text>
<text text-anchor="middle" x="58.5" y="-28" font-family="Helvetica,sans-Serif" font-size="10.00">::VerifyCrc</text>
</a>
</g>
</g>
<!-- Node2 -->
<g id="Node000002" class="node">
<title>Node2</title>
<g id="a_Node000002"><a xlink:href="namespacetmc5160.html#ab650ebb70be7f1da00a2dea1f2fe662e" target="_top" xlink:title="Calculate CRC8 checksum for UART communication.">
<polygon fill="white" stroke="#666666" points="284,-67.5 153,-67.5 153,-48.5 284,-48.5 284,-67.5"/>
<text text-anchor="middle" x="218.5" y="-55.5" font-family="Helvetica,sans-Serif" font-size="10.00">tmc5160::calculateCrc8</text>
</a>
</g>
</g>
<!-- Node1&#45;&gt;Node2 -->
<g id="edge1_Node000001_Node000002" class="edge">
<title>Node1&#45;&gt;Node2</title>
<g id="a_edge1_Node000001_Node000002"><a xlink:title=" ">
<path fill="none" stroke="#63b8ff" d="M117.44,-44.07C125.73,-45.22 134.36,-46.42 142.91,-47.61"/>
<polygon fill="#63b8ff" stroke="#63b8ff" points="142.52,-51.09 152.9,-49.01 143.48,-44.16 142.52,-51.09"/>
</a>
</g>
</g>
<!-- Node3 -->
<g id="Node000003" class="node">
<title>Node3</title>
<g id="a_Node000003"><a xlink:href="structtmc5160_1_1UartFrame.html#ae12cc57962d5da4004c0dfb234b7f416" target="_top" xlink:title="Get frame size in bytes based on type.">
<polygon fill="white" stroke="#666666" points="277,-30 160,-30 160,0 277,0 277,-30"/>
<text text-anchor="start" x="168" y="-18" font-family="Helvetica,sans-Serif" font-size="10.00">tmc5160::UartFrame</text>
<text text-anchor="middle" x="218.5" y="-7" font-family="Helvetica,sans-Serif" font-size="10.00">::GetSize</text>
</a>
</g>
</g>
<!-- Node1&#45;&gt;Node3 -->
<g id="edge2_Node000001_Node000003" class="edge">
<title>Node1&#45;&gt;Node3</title>
<g id="a_edge2_Node000001_Node000003"><a xlink:title=" ">
<path fill="none" stroke="#63b8ff" d="M117.44,-28.3C127.91,-26.91 138.93,-25.44 149.66,-24.02"/>
<polygon fill="#63b8ff" stroke="#63b8ff" points="150.38,-27.45 159.83,-22.66 149.46,-20.51 150.38,-27.45"/>
</a>
</g>
</g>
</g>
</svg>
