<?xml version="1.0" encoding="UTF-8" standalone="no"?>
<!DOCTYPE svg PUBLIC "-//W3C//DTD SVG 1.1//EN"
 "http://www.w3.org/Graphics/SVG/1.1/DTD/svg11.dtd">
<!-- Generated by graphviz version 2.43.0 (0)
 -->
<!-- Title: tmc51x0_test_config::GetTestRigReferenceSwitchConfig Pages: 1 -->
<svg width="360pt" height="62pt"
 viewBox="0.00 0.00 360.00 61.50" xmlns="http://www.w3.org/2000/svg" xmlns:xlink="http://www.w3.org/1999/xlink">
<g id="graph0" class="graph" transform="scale(1 1) rotate(0) translate(4 57.5)">
<title>tmc51x0_test_config::GetTestRigReferenceSwitchConfig</title>
<!-- Node1 -->
<g id="Node000001" class="node">
<title>Node1</title>
<g id="a_Node000001"><a xlink:title="Get reference switch configuration for a test rig.">
<polygon fill="#999999" stroke="#666666" points="157,-41 0,-41 0,0 157,0 157,-41"/>
<text text-anchor="start" x="8" y="-29" font-family="Helvetica,sans-Serif" font-size="10.00">tmc51x0_test_config</text>
<text text-anchor="start" x="8" y="-18" font-family="Helvetica,sans-Serif" font-size="10.00">::GetTestRigReferenceSwitch</text>
<text text-anchor="middle" x="78.5" y="-7" font-family="Helvetica,sans-Serif" font-size="10.00">Config</text>
</a>
</g>
</g>
<!-- Node2 -->
<g id="Node000002" class="node">
<title>Node2</title>
<g id="a_Node000002"><a xlink:href="namespacetmc51x0__test__config.html#a01546734dfbb01aa89c186b7bdf20bab" target="_top" xlink:title="Configure driver from test rig selection.">
<polygon fill="white" stroke="#666666" points="352,-35.5 193,-35.5 193,-5.5 352,-5.5 352,-35.5"/>
<text text-anchor="start" x="201" y="-23.5" font-family="Helvetica,sans-Serif" font-size="10.00">tmc51x0_test_config</text>
<text text-anchor="middle" x="272.5" y="-12.5" font-family="Helvetica,sans-Serif" font-size="10.00">::ConfigureDriverFromTestRig</text>
</a>
</g>
</g>
<!-- Node1&#45;&gt;Node2 -->
<g id="edge1_Node000001_Node000002" class="edge">
<title>Node1&#45;&gt;Node2</title>
<g id="a_edge1_Node000001_Node000002"><a xlink:title=" ">
<path fill="none" stroke="#63b8ff" d="M157.04,-20.5C165.49,-20.5 174.14,-20.5 182.72,-20.5"/>
<polygon fill="#63b8ff" stroke="#63b8ff" points="182.73,-24 192.73,-20.5 182.73,-17 182.73,-24"/>
</a>
</g>
</g>
<!-- Node2&#45;&gt;Node2 -->
<g id="edge2_Node000002_Node000002" class="edge">
<title>Node2&#45;&gt;Node2</title>
<g id="a_edge2_Node000002_Node000002"><a xlink:title=" ">
<path fill="none" stroke="#63b8ff" d="M238.4,-35.78C230.82,-44.91 242.19,-53.5 272.5,-53.5 290.5,-53.5 301.82,-50.47 306.46,-46.1"/>
<polygon fill="#63b8ff" stroke="#63b8ff" points="309.96,-45.82 306.6,-35.78 302.96,-45.73 309.96,-45.82"/>
</a>
</g>
</g>
</g>
</svg>
