<?xml version="1.0" encoding="UTF-8" standalone="no"?>
<!DOCTYPE svg PUBLIC "-//W3C//DTD SVG 1.1//EN"
 "http://www.w3.org/Graphics/SVG/1.1/DTD/svg11.dtd">
<!-- Generated by graphviz version 2.43.0 (0)
 -->
<!-- Title: tmc51x0_config_builder.hpp Pages: 1 -->
<svg width="1064pt" height="214pt"
 viewBox="0.00 0.00 1063.50 214.00" xmlns="http://www.w3.org/2000/svg" xmlns:xlink="http://www.w3.org/1999/xlink">
<g id="graph0" class="graph" transform="scale(1 1) rotate(0) translate(4 210)">
<title>tmc51x0_config_builder.hpp</title>
<!-- Node1 -->
<g id="Node000001" class="node">
<title>Node1</title>
<g id="a_Node000001"><a xlink:title="Fluent configuration builder for TMC51x0 driver.">
<polygon fill="#999999" stroke="#666666" points="539,-206 386,-206 386,-187 539,-187 539,-206"/>
<text text-anchor="middle" x="462.5" y="-194" font-family="Helvetica,sans-Serif" font-size="10.00">tmc51x0_config_builder.hpp</text>
</a>
</g>
</g>
<!-- Node2 -->
<g id="Node000002" class="node">
<title>Node2</title>
<g id="a_Node000002"><a xlink:href="esp32__tmc51x0__test__config_8hpp.html" target="_top" xlink:title="ESP32 GPIO pin configuration and compile&#45;time configuration for TMC51x0 driver (TMC5130 &amp; TMC5160)">
<polygon fill="white" stroke="#666666" points="521.5,-151 403.5,-151 403.5,-121 521.5,-121 521.5,-151"/>
<text text-anchor="start" x="411.5" y="-139" font-family="Helvetica,sans-Serif" font-size="10.00">esp32_tmc51x0_test</text>
<text text-anchor="middle" x="462.5" y="-128" font-family="Helvetica,sans-Serif" font-size="10.00">_config.hpp</text>
</a>
</g>
</g>
<!-- Node1&#45;&gt;Node2 -->
<g id="edge1_Node000001_Node000002" class="edge">
<title>Node1&#45;&gt;Node2</title>
<g id="a_edge1_Node000001_Node000002"><a xlink:title=" ">
<path fill="none" stroke="#63b8ff" d="M462.5,-176.65C462.5,-168.36 462.5,-158.78 462.5,-151.11"/>
<polygon fill="#63b8ff" stroke="#63b8ff" points="459,-176.87 462.5,-186.87 466,-176.87 459,-176.87"/>
</a>
</g>
</g>
<!-- Node3 -->
<g id="Node000003" class="node">
<title>Node3</title>
<g id="a_Node000003"><a xlink:href="abn__encoder__reader_8cpp.html" target="_top" xlink:title="ABN Encoder Position Reader &#45; Continuously reads encoder position.">
<polygon fill="white" stroke="#666666" points="200,-79.5 65,-79.5 65,-60.5 200,-60.5 200,-79.5"/>
<text text-anchor="middle" x="132.5" y="-67.5" font-family="Helvetica,sans-Serif" font-size="10.00">abn_encoder_reader.cpp</text>
</a>
</g>
</g>
<!-- Node2&#45;&gt;Node3 -->
<g id="edge2_Node000002_Node000003" class="edge">
<title>Node2&#45;&gt;Node3</title>
<g id="a_edge2_Node000002_Node000003"><a xlink:title=" ">
<path fill="none" stroke="#63b8ff" d="M392.92,-121.51C327.64,-108.85 232.01,-90.3 176.63,-79.56"/>
<polygon fill="#63b8ff" stroke="#63b8ff" points="392.64,-125.02 403.12,-123.48 393.97,-118.14 392.64,-125.02"/>
</a>
</g>
</g>
<!-- Node4 -->
<g id="Node000004" class="node">
<title>Node4</title>
<g id="a_Node000004"><a xlink:href="bounds__finder_8hpp.html" target="_top" xlink:title="Abstract interface for bounds finding strategies.">
<polygon fill="white" stroke="#666666" points="323,-79.5 218,-79.5 218,-60.5 323,-60.5 323,-79.5"/>
<text text-anchor="middle" x="270.5" y="-67.5" font-family="Helvetica,sans-Serif" font-size="10.00">bounds_finder.hpp</text>
</a>
</g>
</g>
<!-- Node2&#45;&gt;Node4 -->
<g id="edge3_Node000002_Node000004" class="edge">
<title>Node2&#45;&gt;Node4</title>
<g id="a_edge3_Node000002_Node000004"><a xlink:title=" ">
<path fill="none" stroke="#63b8ff" d="M410.71,-117.74C373.59,-105.36 325.19,-89.23 296.05,-79.52"/>
<polygon fill="#63b8ff" stroke="#63b8ff" points="409.77,-121.11 420.36,-120.95 411.98,-114.47 409.77,-121.11"/>
</a>
</g>
</g>
<!-- Node7 -->
<g id="Node000007" class="node">
<title>Node7</title>
<g id="a_Node000007"><a xlink:href="main_8cpp.html" target="_top" xlink:title="Fatigue test unit with ESP&#45;NOW communication.">
<polygon fill="white" stroke="#666666" points="405.5,-19 343.5,-19 343.5,0 405.5,0 405.5,-19"/>
<text text-anchor="middle" x="374.5" y="-7" font-family="Helvetica,sans-Serif" font-size="10.00">main.cpp</text>
</a>
</g>
</g>
<!-- Node2&#45;&gt;Node7 -->
<g id="edge9_Node000002_Node000007" class="edge">
<title>Node2&#45;&gt;Node7</title>
<g id="a_edge9_Node000002_Node000007"><a xlink:title=" ">
<path fill="none" stroke="#63b8ff" d="M407.08,-116.45C393.03,-108.97 379.63,-98.75 371.5,-85 359.11,-64.05 366.54,-33.69 371.35,-19.04"/>
<polygon fill="#63b8ff" stroke="#63b8ff" points="405.84,-119.74 416.36,-120.99 408.91,-113.45 405.84,-119.74"/>
</a>
</g>
</g>
<!-- Node8 -->
<g id="Node000008" class="node">
<title>Node8</title>
<g id="a_Node000008"><a xlink:href="internal__ramp__comprehensive__test_8cpp.html" target="_top" xlink:title="Comprehensive internal ramp test suite for TMC51x0 (single motor)">
<polygon fill="white" stroke="#666666" points="545,-85 380,-85 380,-55 545,-55 545,-85"/>
<text text-anchor="start" x="388" y="-73" font-family="Helvetica,sans-Serif" font-size="10.00">internal_ramp_comprehensive</text>
<text text-anchor="middle" x="462.5" y="-62" font-family="Helvetica,sans-Serif" font-size="10.00">_test.cpp</text>
</a>
</g>
</g>
<!-- Node2&#45;&gt;Node8 -->
<g id="edge7_Node000002_Node000008" class="edge">
<title>Node2&#45;&gt;Node8</title>
<g id="a_edge7_Node000002_Node000008"><a xlink:title=" ">
<path fill="none" stroke="#63b8ff" d="M462.5,-110.54C462.5,-101.96 462.5,-92.61 462.5,-85.16"/>
<polygon fill="#63b8ff" stroke="#63b8ff" points="459,-110.8 462.5,-120.8 466,-110.8 459,-110.8"/>
</a>
</g>
</g>
<!-- Node9 -->
<g id="Node000009" class="node">
<title>Node9</title>
<g id="a_Node000009"><a xlink:href="internal__ramp__sinusoidal_8cpp.html" target="_top" xlink:title="Sinusoidal motion pattern example for TMC51x0 stepper motor driver.">
<polygon fill="white" stroke="#666666" points="723.5,-79.5 563.5,-79.5 563.5,-60.5 723.5,-60.5 723.5,-79.5"/>
<text text-anchor="middle" x="643.5" y="-67.5" font-family="Helvetica,sans-Serif" font-size="10.00">internal_ramp_sinusoidal.cpp</text>
</a>
</g>
</g>
<!-- Node2&#45;&gt;Node9 -->
<g id="edge8_Node000002_Node000009" class="edge">
<title>Node2&#45;&gt;Node9</title>
<g id="a_edge8_Node000002_Node000009"><a xlink:title=" ">
<path fill="none" stroke="#63b8ff" d="M511.77,-117.58C546.71,-105.23 592.06,-89.19 619.41,-79.52"/>
<polygon fill="#63b8ff" stroke="#63b8ff" points="510.48,-114.32 502.22,-120.95 512.82,-120.92 510.48,-114.32"/>
</a>
</g>
</g>
<!-- Node10 -->
<g id="Node000010" class="node">
<title>Node10</title>
<g id="a_Node000010"><a xlink:href="spi__daisy__chain__comprehensive__test_8cpp.html" target="_top" xlink:title="Comprehensive SPI Daisy Chain testing suite for TMC51x0 (MULTI&#45;MOTOR)">
<polygon fill="white" stroke="#666666" points="915.5,-85 741.5,-85 741.5,-55 915.5,-55 915.5,-85"/>
<text text-anchor="start" x="749.5" y="-73" font-family="Helvetica,sans-Serif" font-size="10.00">spi_daisy_chain_comprehensive</text>
<text text-anchor="middle" x="828.5" y="-62" font-family="Helvetica,sans-Serif" font-size="10.00">_test.cpp</text>
</a>
</g>
</g>
<!-- Node2&#45;&gt;Node10 -->
<g id="edge10_Node000002_Node000010" class="edge">
<title>Node2&#45;&gt;Node10</title>
<g id="a_edge10_Node000002_Node000010"><a xlink:title=" ">
<path fill="none" stroke="#63b8ff" d="M531.72,-122.9C593.33,-112.12 683.44,-96.37 748.19,-85.04"/>
<polygon fill="#63b8ff" stroke="#63b8ff" points="530.96,-119.48 521.71,-124.65 532.16,-126.37 530.96,-119.48"/>
</a>
</g>
</g>
<!-- Node11 -->
<g id="Node000011" class="node">
<title>Node11</title>
<g id="a_Node000011"><a xlink:href="stallguard__tuning_8cpp.html" target="_top" xlink:title="Automatic StallGuard2 Tuning Tool with Safe Current Margin.">
<polygon fill="white" stroke="#666666" points="1055.5,-79.5 933.5,-79.5 933.5,-60.5 1055.5,-60.5 1055.5,-79.5"/>
<text text-anchor="middle" x="994.5" y="-67.5" font-family="Helvetica,sans-Serif" font-size="10.00">stallguard_tuning.cpp</text>
</a>
</g>
</g>
<!-- Node2&#45;&gt;Node11 -->
<g id="edge11_Node000002_Node000011" class="edge">
<title>Node2&#45;&gt;Node11</title>
<g id="a_edge11_Node000002_Node000011"><a xlink:title=" ">
<path fill="none" stroke="#63b8ff" d="M531.94,-129.44C622.56,-121.73 785.91,-106.31 924.5,-85 934.42,-83.47 945.07,-81.51 955,-79.54"/>
<polygon fill="#63b8ff" stroke="#63b8ff" points="531.46,-125.97 521.79,-130.29 532.05,-132.94 531.46,-125.97"/>
</a>
</g>
</g>
<!-- Node5 -->
<g id="Node000005" class="node">
<title>Node5</title>
<g id="a_Node000005"><a xlink:href="bounds__finder__encoder_8cpp.html" target="_top" xlink:title="Encoder&#45;based bounds finder implementation.">
<polygon fill="white" stroke="#666666" points="149,-19 0,-19 0,0 149,0 149,-19"/>
<text text-anchor="middle" x="74.5" y="-7" font-family="Helvetica,sans-Serif" font-size="10.00">bounds_finder_encoder.cpp</text>
</a>
</g>
</g>
<!-- Node4&#45;&gt;Node5 -->
<g id="edge4_Node000004_Node000005" class="edge">
<title>Node4&#45;&gt;Node5</title>
<g id="a_edge4_Node000004_Node000005"><a xlink:title=" ">
<path fill="none" stroke="#63b8ff" d="M232.33,-57.61C194.42,-46.29 137.16,-29.2 103.03,-19.02"/>
<polygon fill="#63b8ff" stroke="#63b8ff" points="231.42,-60.99 242,-60.49 233.42,-54.28 231.42,-60.99"/>
</a>
</g>
</g>
<!-- Node6 -->
<g id="Node000006" class="node">
<title>Node6</title>
<g id="a_Node000006"><a xlink:href="bounds__finder__stallguard_8cpp.html" target="_top" xlink:title="StallGuard2&#45;based bounds finder implementation.">
<polygon fill="white" stroke="#666666" points="326,-19 167,-19 167,0 326,0 326,-19"/>
<text text-anchor="middle" x="246.5" y="-7" font-family="Helvetica,sans-Serif" font-size="10.00">bounds_finder_stallguard.cpp</text>
</a>
</g>
</g>
<!-- Node4&#45;&gt;Node6 -->
<g id="edge5_Node000004_Node000006" class="edge">
<title>Node4&#45;&gt;Node6</title>
<g id="a_edge5_Node000004_Node000006"><a xlink:title=" ">
<path fill="none" stroke="#63b8ff" d="M263.04,-50.82C258.72,-40.28 253.46,-27.48 250.06,-19.17"/>
<polygon fill="#63b8ff" stroke="#63b8ff" points="259.93,-52.44 266.96,-60.37 266.4,-49.79 259.93,-52.44"/>
</a>
</g>
</g>
<!-- Node4&#45;&gt;Node7 -->
<g id="edge6_Node000004_Node000007" class="edge">
<title>Node4&#45;&gt;Node7</title>
<g id="a_edge6_Node000004_Node000007"><a xlink:title=" ">
<path fill="none" stroke="#63b8ff" d="M294.64,-55.42C314.51,-44.24 342.09,-28.73 359.09,-19.17"/>
<polygon fill="#63b8ff" stroke="#63b8ff" points="292.85,-52.41 285.85,-60.37 296.28,-58.52 292.85,-52.41"/>
</a>
</g>
</g>
</g>
</svg>
