<?xml version="1.0" encoding="UTF-8" standalone="no"?>
<!DOCTYPE svg PUBLIC "-//W3C//DTD SVG 1.1//EN"
 "http://www.w3.org/Graphics/SVG/1.1/DTD/svg11.dtd">
<!-- Generated by graphviz version 2.43.0 (0)
 -->
<!-- Title: tmc5160_comm_interface.hpp Pages: 1 -->
<svg width="2043pt" height="148pt"
 viewBox="0.00 0.00 2043.00 148.00" xmlns="http://www.w3.org/2000/svg" xmlns:xlink="http://www.w3.org/1999/xlink">
<g id="graph0" class="graph" transform="scale(1 1) rotate(0) translate(4 144)">
<title>tmc5160_comm_interface.hpp</title>
<!-- Node1 -->
<g id="Node000001" class="node">
<title>Node1</title>
<g id="a_Node000001"><a xlink:title="Communication interfaces for TMC5160 stepper motor driver using SPI and UART.">
<polygon fill="#999999" stroke="#666666" points="1106,-140 941,-140 941,-121 1106,-121 1106,-140"/>
<text text-anchor="middle" x="1023.5" y="-128" font-family="Helvetica,sans-Serif" font-size="10.00">tmc5160_comm_interface.hpp</text>
</a>
</g>
</g>
<!-- Node2 -->
<g id="Node000002" class="node">
<title>Node2</title>
<g id="a_Node000002"><a xlink:href="esp32__tmc5160__bus_8hpp.html" target="_top" xlink:title="ESP32&#45;specific communication interfaces for TMC5160 using SPI and UART.">
<polygon fill="white" stroke="#666666" points="900,-85 763,-85 763,-66 900,-66 900,-85"/>
<text text-anchor="middle" x="831.5" y="-73" font-family="Helvetica,sans-Serif" font-size="10.00">esp32_tmc5160_bus.hpp</text>
</a>
</g>
</g>
<!-- Node1&#45;&gt;Node2 -->
<g id="edge1_Node000001_Node000002" class="edge">
<title>Node1&#45;&gt;Node2</title>
<g id="a_edge1_Node000001_Node000002"><a xlink:title=" ">
<path fill="none" stroke="#63b8ff" d="M982.97,-118.31C947.04,-108.39 895.34,-94.12 862.59,-85.08"/>
<polygon fill="#63b8ff" stroke="#63b8ff" points="982.08,-121.7 992.65,-120.98 983.94,-114.95 982.08,-121.7"/>
</a>
</g>
</g>
<!-- Node15 -->
<g id="Node000015" class="node">
<title>Node15</title>
<g id="a_Node000015"><a xlink:href="tmc5160_8hpp.html" target="_top" xlink:title="Main TMC5160 stepper motor driver interface and subsystem classes.">
<polygon fill="white" stroke="#666666" points="1063.5,-85 983.5,-85 983.5,-66 1063.5,-66 1063.5,-85"/>
<text text-anchor="middle" x="1023.5" y="-73" font-family="Helvetica,sans-Serif" font-size="10.00">tmc5160.hpp</text>
</a>
</g>
</g>
<!-- Node1&#45;&gt;Node15 -->
<g id="edge14_Node000001_Node000015" class="edge">
<title>Node1&#45;&gt;Node15</title>
<g id="a_edge14_Node000001_Node000015"><a xlink:title=" ">
<path fill="none" stroke="#63b8ff" d="M1023.5,-110.66C1023.5,-101.93 1023.5,-91.99 1023.5,-85.09"/>
<polygon fill="#63b8ff" stroke="#63b8ff" points="1020,-110.75 1023.5,-120.75 1027,-110.75 1020,-110.75"/>
</a>
</g>
</g>
<!-- Node17 -->
<g id="Node000017" class="node">
<title>Node17</title>
<g id="a_Node000017"><a xlink:href="tmc5160__daisy__chain_8hpp.html" target="_top" xlink:title="High&#45;level daisy&#45;chain manager for multiple TMC5160 drivers.">
<polygon fill="white" stroke="#666666" points="2035,-24.5 1892,-24.5 1892,-5.5 2035,-5.5 2035,-24.5"/>
<text text-anchor="middle" x="1963.5" y="-12.5" font-family="Helvetica,sans-Serif" font-size="10.00">tmc5160_daisy_chain.hpp</text>
</a>
</g>
</g>
<!-- Node1&#45;&gt;Node17 -->
<g id="edge31_Node000001_Node000017" class="edge">
<title>Node1&#45;&gt;Node17</title>
<g id="a_edge31_Node000001_Node000017"><a xlink:title=" ">
<path fill="none" stroke="#63b8ff" d="M1116.16,-120.48C1273.86,-104.75 1604.42,-70.1 1882.5,-30 1893.66,-28.39 1905.64,-26.44 1916.88,-24.52"/>
<polygon fill="#63b8ff" stroke="#63b8ff" points="1115.62,-117.02 1106.02,-121.49 1116.32,-123.98 1115.62,-117.02"/>
</a>
</g>
</g>
<!-- Node3 -->
<g id="Node000003" class="node">
<title>Node3</title>
<g id="a_Node000003"><a xlink:href="basic__positioning_8cpp.html" target="_top" xlink:title="Basic positioning mode example for TMC5160 stepper motor driver.">
<polygon fill="white" stroke="#666666" points="1283.5,-24.5 1161.5,-24.5 1161.5,-5.5 1283.5,-5.5 1283.5,-24.5"/>
<text text-anchor="middle" x="1222.5" y="-12.5" font-family="Helvetica,sans-Serif" font-size="10.00">basic_positioning.cpp</text>
</a>
</g>
</g>
<!-- Node2&#45;&gt;Node3 -->
<g id="edge2_Node000002_Node000003" class="edge">
<title>Node2&#45;&gt;Node3</title>
<g id="a_edge2_Node000002_Node000003"><a xlink:title=" ">
<path fill="none" stroke="#63b8ff" d="M910.18,-64.82C975.07,-56.53 1069.46,-43.78 1151.5,-30 1161.16,-28.38 1171.53,-26.44 1181.27,-24.54"/>
<polygon fill="#63b8ff" stroke="#63b8ff" points="909.5,-61.38 900.02,-66.11 910.39,-68.32 909.5,-61.38"/>
</a>
</g>
</g>
<!-- Node4 -->
<g id="Node000004" class="node">
<title>Node4</title>
<g id="a_Node000004"><a xlink:href="bounds__finding__sinuous__motion_8cpp.html" target="_top" xlink:title="Fatigue testing example: Sensorless bounds finding and sinusoidal motion.">
<polygon fill="white" stroke="#666666" points="1435,-30 1302,-30 1302,0 1435,0 1435,-30"/>
<text text-anchor="start" x="1310" y="-18" font-family="Helvetica,sans-Serif" font-size="10.00">bounds_finding_sinuous</text>
<text text-anchor="middle" x="1368.5" y="-7" font-family="Helvetica,sans-Serif" font-size="10.00">_motion.cpp</text>
</a>
</g>
</g>
<!-- Node2&#45;&gt;Node4 -->
<g id="edge3_Node000002_Node000004" class="edge">
<title>Node2&#45;&gt;Node4</title>
<g id="a_edge3_Node000002_Node000004"><a xlink:title=" ">
<path fill="none" stroke="#63b8ff" d="M910.12,-68.98C1002.08,-62.04 1158.76,-48.74 1292.5,-30 1295.56,-29.57 1298.68,-29.11 1301.82,-28.62"/>
<polygon fill="#63b8ff" stroke="#63b8ff" points="909.77,-65.5 900.06,-69.73 910.29,-72.48 909.77,-65.5"/>
</a>
</g>
</g>
<!-- Node5 -->
<g id="Node000005" class="node">
<title>Node5</title>
<g id="a_Node000005"><a xlink:href="comprehensive__test_8cpp.html" target="_top" xlink:title="Comprehensive test suite for TMC5160 stepper motor driver.">
<polygon fill="white" stroke="#666666" points="1589.5,-24.5 1453.5,-24.5 1453.5,-5.5 1589.5,-5.5 1589.5,-24.5"/>
<text text-anchor="middle" x="1521.5" y="-12.5" font-family="Helvetica,sans-Serif" font-size="10.00">comprehensive_test.cpp</text>
</a>
</g>
</g>
<!-- Node2&#45;&gt;Node5 -->
<g id="edge4_Node000002_Node000005" class="edge">
<title>Node2&#45;&gt;Node5</title>
<g id="a_edge4_Node000002_Node000005"><a xlink:title=" ">
<path fill="none" stroke="#63b8ff" d="M910.37,-69.8C1051.66,-61.21 1342.57,-42.69 1443.5,-30 1454.97,-28.56 1467.31,-26.56 1478.71,-24.51"/>
<polygon fill="#63b8ff" stroke="#63b8ff" points="909.82,-66.33 900.05,-70.43 910.24,-73.32 909.82,-66.33"/>
</a>
</g>
</g>
<!-- Node6 -->
<g id="Node000006" class="node">
<title>Node6</title>
<g id="a_Node000006"><a xlink:href="daisy__chain__example_8cpp.html" target="_top" xlink:title="Example demonstrating daisy&#45;chained TMC5160 drivers on a single SPI bus.">
<polygon fill="white" stroke="#666666" points="143,-24.5 0,-24.5 0,-5.5 143,-5.5 143,-24.5"/>
<text text-anchor="middle" x="71.5" y="-12.5" font-family="Helvetica,sans-Serif" font-size="10.00">daisy_chain_example.cpp</text>
</a>
</g>
</g>
<!-- Node2&#45;&gt;Node6 -->
<g id="edge5_Node000002_Node000006" class="edge">
<title>Node2&#45;&gt;Node6</title>
<g id="a_edge5_Node000002_Node000006"><a xlink:title=" ">
<path fill="none" stroke="#63b8ff" d="M752.72,-72.1C625.77,-67.63 368.23,-55.98 151.5,-30 139.74,-28.59 127.08,-26.6 115.39,-24.56"/>
<polygon fill="#63b8ff" stroke="#63b8ff" points="752.63,-75.6 762.75,-72.45 752.87,-68.61 752.63,-75.6"/>
</a>
</g>
</g>
<!-- Node7 -->
<g id="Node000007" class="node">
<title>Node7</title>
<g id="a_Node000007"><a xlink:href="encoder_8cpp.html" target="_top" xlink:title="Encoder closed&#45;loop control example for TMC5160 stepper motor driver.">
<polygon fill="white" stroke="#666666" points="236,-24.5 161,-24.5 161,-5.5 236,-5.5 236,-24.5"/>
<text text-anchor="middle" x="198.5" y="-12.5" font-family="Helvetica,sans-Serif" font-size="10.00">encoder.cpp</text>
</a>
</g>
</g>
<!-- Node2&#45;&gt;Node7 -->
<g id="edge6_Node000002_Node000007" class="edge">
<title>Node2&#45;&gt;Node7</title>
<g id="a_edge6_Node000002_Node000007"><a xlink:title=" ">
<path fill="none" stroke="#63b8ff" d="M752.31,-73.99C638.86,-72.03 423.97,-63.69 244.5,-30 237.44,-28.68 229.94,-26.66 223.08,-24.57"/>
<polygon fill="#63b8ff" stroke="#63b8ff" points="752.57,-77.5 762.63,-74.16 752.69,-70.5 752.57,-77.5"/>
</a>
</g>
</g>
<!-- Node8 -->
<g id="Node000008" class="node">
<title>Node8</title>
<g id="a_Node000008"><a xlink:href="motor__setup__from__spec_8cpp.html" target="_top" xlink:title="Motor setup from specifications example for TMC5160.">
<polygon fill="white" stroke="#666666" points="409,-24.5 254,-24.5 254,-5.5 409,-5.5 409,-24.5"/>
<text text-anchor="middle" x="331.5" y="-12.5" font-family="Helvetica,sans-Serif" font-size="10.00">motor_setup_from_spec.cpp</text>
</a>
</g>
</g>
<!-- Node2&#45;&gt;Node8 -->
<g id="edge7_Node000002_Node000008" class="edge">
<title>Node2&#45;&gt;Node8</title>
<g id="a_edge7_Node000002_Node000008"><a xlink:title=" ">
<path fill="none" stroke="#63b8ff" d="M752.71,-67.31C669.3,-59.41 533.89,-45.72 417.5,-30 405.66,-28.4 392.93,-26.46 381,-24.53"/>
<polygon fill="#63b8ff" stroke="#63b8ff" points="752.58,-70.82 762.87,-68.27 753.24,-63.85 752.58,-70.82"/>
</a>
</g>
</g>
<!-- Node9 -->
<g id="Node000009" class="node">
<title>Node9</title>
<g id="a_Node000009"><a xlink:href="sensorless__homing_8cpp.html" target="_top" xlink:title="Sensorless homing example for TMC5160.">
<polygon fill="white" stroke="#666666" points="558,-24.5 427,-24.5 427,-5.5 558,-5.5 558,-24.5"/>
<text text-anchor="middle" x="492.5" y="-12.5" font-family="Helvetica,sans-Serif" font-size="10.00">sensorless_homing.cpp</text>
</a>
</g>
</g>
<!-- Node2&#45;&gt;Node9 -->
<g id="edge8_Node000002_Node000009" class="edge">
<title>Node2&#45;&gt;Node9</title>
<g id="a_edge8_Node000002_Node000009"><a xlink:title=" ">
<path fill="none" stroke="#63b8ff" d="M769.34,-64.34C715.81,-55.51 636.5,-42.26 567.5,-30 557.85,-28.29 547.51,-26.39 537.69,-24.57"/>
<polygon fill="#63b8ff" stroke="#63b8ff" points="768.92,-67.82 779.36,-65.99 770.06,-60.91 768.92,-67.82"/>
</a>
</g>
</g>
<!-- Node10 -->
<g id="Node000010" class="node">
<title>Node10</title>
<g id="a_Node000010"><a xlink:href="sinusoidal_8cpp.html" target="_top" xlink:title="Sinusoidal motion pattern example for TMC5160 stepper motor driver.">
<polygon fill="white" stroke="#666666" points="662.5,-24.5 576.5,-24.5 576.5,-5.5 662.5,-5.5 662.5,-24.5"/>
<text text-anchor="middle" x="619.5" y="-12.5" font-family="Helvetica,sans-Serif" font-size="10.00">sinusoidal.cpp</text>
</a>
</g>
</g>
<!-- Node2&#45;&gt;Node10 -->
<g id="edge9_Node000002_Node000010" class="edge">
<title>Node2&#45;&gt;Node10</title>
<g id="a_edge9_Node000002_Node000010"><a xlink:title=" ">
<path fill="none" stroke="#63b8ff" d="M791,-63.32C750,-52.01 687.51,-34.77 650.36,-24.52"/>
<polygon fill="#63b8ff" stroke="#63b8ff" points="790.1,-66.71 800.67,-65.99 791.96,-59.96 790.1,-66.71"/>
</a>
</g>
</g>
<!-- Node11 -->
<g id="Node000011" class="node">
<title>Node11</title>
<g id="a_Node000011"><a xlink:href="stallguard_8cpp.html" target="_top" xlink:title="StallGuard2 stall detection example for TMC5160 stepper motor driver.">
<polygon fill="white" stroke="#666666" points="766.5,-24.5 680.5,-24.5 680.5,-5.5 766.5,-5.5 766.5,-24.5"/>
<text text-anchor="middle" x="723.5" y="-12.5" font-family="Helvetica,sans-Serif" font-size="10.00">stallguard.cpp</text>
</a>
</g>
</g>
<!-- Node2&#45;&gt;Node11 -->
<g id="edge10_Node000002_Node000011" class="edge">
<title>Node2&#45;&gt;Node11</title>
<g id="a_edge10_Node000002_Node000011"><a xlink:title=" ">
<path fill="none" stroke="#63b8ff" d="M806.72,-61.08C786.06,-49.88 757.24,-34.27 739.5,-24.67"/>
<polygon fill="#63b8ff" stroke="#63b8ff" points="805.1,-64.18 815.56,-65.87 808.44,-58.03 805.1,-64.18"/>
</a>
</g>
</g>
<!-- Node12 -->
<g id="Node000012" class="node">
<title>Node12</title>
<g id="a_Node000012"><a xlink:href="stealthchop_8cpp.html" target="_top" xlink:title="StealthChop silent operation example for TMC5160 stepper motor driver.">
<polygon fill="white" stroke="#666666" points="878.5,-24.5 784.5,-24.5 784.5,-5.5 878.5,-5.5 878.5,-24.5"/>
<text text-anchor="middle" x="831.5" y="-12.5" font-family="Helvetica,sans-Serif" font-size="10.00">stealthchop.cpp</text>
</a>
</g>
</g>
<!-- Node2&#45;&gt;Node12 -->
<g id="edge11_Node000002_Node000012" class="edge">
<title>Node2&#45;&gt;Node12</title>
<g id="a_edge11_Node000002_Node000012"><a xlink:title=" ">
<path fill="none" stroke="#63b8ff" d="M831.5,-55.66C831.5,-45.24 831.5,-32.8 831.5,-24.67"/>
<polygon fill="#63b8ff" stroke="#63b8ff" points="828,-55.87 831.5,-65.87 835,-55.87 828,-55.87"/>
</a>
</g>
</g>
<!-- Node13 -->
<g id="Node000013" class="node">
<title>Node13</title>
<g id="a_Node000013"><a xlink:href="unit__conversions_8cpp.html" target="_top" xlink:title="Unit conversion example for TMC5160 stepper motor driver.">
<polygon fill="white" stroke="#666666" points="1016,-24.5 897,-24.5 897,-5.5 1016,-5.5 1016,-24.5"/>
<text text-anchor="middle" x="956.5" y="-12.5" font-family="Helvetica,sans-Serif" font-size="10.00">unit_conversions.cpp</text>
</a>
</g>
</g>
<!-- Node2&#45;&gt;Node13 -->
<g id="edge12_Node000002_Node000013" class="edge">
<title>Node2&#45;&gt;Node13</title>
<g id="a_edge12_Node000002_Node000013"><a xlink:title=" ">
<path fill="none" stroke="#63b8ff" d="M858.99,-61.63C883.1,-50.35 917.46,-34.27 938.3,-24.52"/>
<polygon fill="#63b8ff" stroke="#63b8ff" points="857.25,-58.58 849.68,-65.99 860.22,-64.92 857.25,-58.58"/>
</a>
</g>
</g>
<!-- Node14 -->
<g id="Node000014" class="node">
<title>Node14</title>
<g id="a_Node000014"><a xlink:href="velocity__mode_8cpp.html" target="_top" xlink:title="Velocity mode example for TMC5160 stepper motor driver.">
<polygon fill="white" stroke="#666666" points="1143,-24.5 1034,-24.5 1034,-5.5 1143,-5.5 1143,-24.5"/>
<text text-anchor="middle" x="1088.5" y="-12.5" font-family="Helvetica,sans-Serif" font-size="10.00">velocity_mode.cpp</text>
</a>
</g>
</g>
<!-- Node2&#45;&gt;Node14 -->
<g id="edge13_Node000002_Node000014" class="edge">
<title>Node2&#45;&gt;Node14</title>
<g id="a_edge13_Node000002_Node000014"><a xlink:title=" ">
<path fill="none" stroke="#63b8ff" d="M878.72,-63.75C928.37,-52.45 1005.48,-34.9 1051.08,-24.52"/>
<polygon fill="#63b8ff" stroke="#63b8ff" points="877.84,-60.36 868.87,-65.99 879.4,-67.19 877.84,-60.36"/>
</a>
</g>
</g>
<!-- Node15&#45;&gt;Node3 -->
<g id="edge15_Node000015_Node000003" class="edge">
<title>Node15&#45;&gt;Node3</title>
<g id="a_edge15_Node000015_Node000003"><a xlink:title=" ">
<path fill="none" stroke="#63b8ff" d="M1062.25,-63.11C1100.74,-51.79 1158.88,-34.7 1193.53,-24.52"/>
<polygon fill="#63b8ff" stroke="#63b8ff" points="1061.04,-59.82 1052.44,-65.99 1063.02,-66.53 1061.04,-59.82"/>
</a>
</g>
</g>
<!-- Node15&#45;&gt;Node4 -->
<g id="edge16_Node000015_Node000004" class="edge">
<title>Node15&#45;&gt;Node4</title>
<g id="a_edge16_Node000015_Node000004"><a xlink:title=" ">
<path fill="none" stroke="#63b8ff" d="M1073.65,-66.48C1127.72,-57.78 1216.28,-43.32 1292.5,-30 1295.54,-29.47 1298.65,-28.92 1301.78,-28.36"/>
<polygon fill="#63b8ff" stroke="#63b8ff" points="1072.96,-63.05 1063.64,-68.09 1074.07,-69.96 1072.96,-63.05"/>
</a>
</g>
</g>
<!-- Node15&#45;&gt;Node5 -->
<g id="edge17_Node000015_Node000005" class="edge">
<title>Node15&#45;&gt;Node5</title>
<g id="a_edge17_Node000015_Node000005"><a xlink:title=" ">
<path fill="none" stroke="#63b8ff" d="M1073.72,-70.36C1152.65,-63.58 1310.46,-48.96 1443.5,-30 1454.4,-28.45 1466.1,-26.5 1477.04,-24.55"/>
<polygon fill="#63b8ff" stroke="#63b8ff" points="1073.24,-66.89 1063.58,-71.22 1073.84,-73.86 1073.24,-66.89"/>
</a>
</g>
</g>
<!-- Node15&#45;&gt;Node6 -->
<g id="edge18_Node000015_Node000006" class="edge">
<title>Node15&#45;&gt;Node6</title>
<g id="a_edge18_Node000015_Node000006"><a xlink:title=" ">
<path fill="none" stroke="#63b8ff" d="M973.15,-70.49C953.05,-68.97 929.69,-67.29 908.5,-66 572.29,-45.58 486.27,-67.1 151.5,-30 139.45,-28.66 126.46,-26.65 114.54,-24.55"/>
<polygon fill="#63b8ff" stroke="#63b8ff" points="973.1,-74 983.34,-71.27 973.63,-67.02 973.1,-74"/>
</a>
</g>
</g>
<!-- Node15&#45;&gt;Node7 -->
<g id="edge19_Node000015_Node000007" class="edge">
<title>Node15&#45;&gt;Node7</title>
<g id="a_edge19_Node000015_Node000007"><a xlink:title=" ">
<path fill="none" stroke="#63b8ff" d="M973.15,-70.56C953.04,-69.05 929.68,-67.36 908.5,-66 613.56,-47.11 535.54,-81.4 244.5,-30 237.27,-28.72 229.57,-26.67 222.58,-24.52"/>
<polygon fill="#63b8ff" stroke="#63b8ff" points="973.1,-74.07 983.33,-71.34 973.63,-67.09 973.1,-74.07"/>
</a>
</g>
</g>
<!-- Node15&#45;&gt;Node8 -->
<g id="edge20_Node000015_Node000008" class="edge">
<title>Node15&#45;&gt;Node8</title>
<g id="a_edge20_Node000015_Node000008"><a xlink:title=" ">
<path fill="none" stroke="#63b8ff" d="M973.13,-70.77C953.03,-69.28 929.67,-67.56 908.5,-66 690.28,-49.94 634.8,-55.6 417.5,-30 405.03,-28.53 391.61,-26.54 379.16,-24.53"/>
<polygon fill="#63b8ff" stroke="#63b8ff" points="973.09,-74.28 983.32,-71.52 973.6,-67.3 973.09,-74.28"/>
</a>
</g>
</g>
<!-- Node15&#45;&gt;Node9 -->
<g id="edge21_Node000015_Node000009" class="edge">
<title>Node15&#45;&gt;Node9</title>
<g id="a_edge21_Node000015_Node000009"><a xlink:title=" ">
<path fill="none" stroke="#63b8ff" d="M973.22,-70.15C871.58,-61.27 644.78,-40.96 567.5,-30 556.88,-28.49 545.47,-26.54 534.83,-24.57"/>
<polygon fill="#63b8ff" stroke="#63b8ff" points="972.97,-73.64 983.24,-71.03 973.58,-66.67 972.97,-73.64"/>
</a>
</g>
</g>
<!-- Node15&#45;&gt;Node10 -->
<g id="edge22_Node000015_Node000010" class="edge">
<title>Node15&#45;&gt;Node10</title>
<g id="a_edge22_Node000015_Node000010"><a xlink:title=" ">
<path fill="none" stroke="#63b8ff" d="M973.26,-70.34C904.65,-64.15 777.99,-50.96 671.5,-30 663.98,-28.52 655.94,-26.55 648.49,-24.56"/>
<polygon fill="#63b8ff" stroke="#63b8ff" points="973.09,-73.83 983.36,-71.23 973.71,-66.86 973.09,-73.83"/>
</a>
</g>
</g>
<!-- Node15&#45;&gt;Node11 -->
<g id="edge23_Node000015_Node000011" class="edge">
<title>Node15&#45;&gt;Node11</title>
<g id="a_edge23_Node000015_Node000011"><a xlink:title=" ">
<path fill="none" stroke="#63b8ff" d="M973.38,-66.8C923.11,-58.77 843.59,-45.25 775.5,-30 768.29,-28.39 760.58,-26.44 753.36,-24.51"/>
<polygon fill="#63b8ff" stroke="#63b8ff" points="972.92,-70.27 983.34,-68.38 974.02,-63.35 972.92,-70.27"/>
</a>
</g>
</g>
<!-- Node15&#45;&gt;Node12 -->
<g id="edge24_Node000015_Node000012" class="edge">
<title>Node15&#45;&gt;Node12</title>
<g id="a_edge24_Node000015_Node000012"><a xlink:title=" ">
<path fill="none" stroke="#63b8ff" d="M985.63,-62.96C948.5,-51.65 892.74,-34.66 859.45,-24.52"/>
<polygon fill="#63b8ff" stroke="#63b8ff" points="985,-66.43 995.58,-65.99 987.04,-59.73 985,-66.43"/>
</a>
</g>
</g>
<!-- Node15&#45;&gt;Node13 -->
<g id="edge29_Node000015_Node000013" class="edge">
<title>Node15&#45;&gt;Node13</title>
<g id="a_edge29_Node000015_Node000013"><a xlink:title=" ">
<path fill="none" stroke="#63b8ff" d="M1006,-59.22C993.4,-48.21 976.83,-33.75 966.43,-24.67"/>
<polygon fill="#63b8ff" stroke="#63b8ff" points="1003.78,-61.93 1013.61,-65.87 1008.38,-56.65 1003.78,-61.93"/>
</a>
</g>
</g>
<!-- Node15&#45;&gt;Node14 -->
<g id="edge30_Node000015_Node000014" class="edge">
<title>Node15&#45;&gt;Node14</title>
<g id="a_edge30_Node000015_Node000014"><a xlink:title=" ">
<path fill="none" stroke="#63b8ff" d="M1040.82,-58.91C1053.01,-47.94 1068.87,-33.67 1078.87,-24.67"/>
<polygon fill="#63b8ff" stroke="#63b8ff" points="1038.18,-56.58 1033.09,-65.87 1042.87,-61.78 1038.18,-56.58"/>
</a>
</g>
</g>
<!-- Node16 -->
<g id="Node000016" class="node">
<title>Node16</title>
<g id="a_Node000016"><a xlink:href="tmc5160_8cpp.html" target="_top" xlink:title="Implementation of TMC5160 driver methods.">
<polygon fill="white" stroke="#666666" points="1873.5,-24.5 1793.5,-24.5 1793.5,-5.5 1873.5,-5.5 1873.5,-24.5"/>
<text text-anchor="middle" x="1833.5" y="-12.5" font-family="Helvetica,sans-Serif" font-size="10.00">tmc5160.cpp</text>
</a>
</g>
</g>
<!-- Node15&#45;&gt;Node16 -->
<g id="edge25_Node000015_Node000016" class="edge">
<title>Node15&#45;&gt;Node16</title>
<g id="a_edge25_Node000015_Node000016"><a xlink:title=" ">
<path fill="none" stroke="#63b8ff" d="M1073.69,-72.88C1219.26,-68.13 1639.33,-53.14 1775.5,-30 1783.09,-28.71 1791.18,-26.68 1798.91,-24.56"/>
<polygon fill="#63b8ff" stroke="#63b8ff" points="1073.57,-69.38 1063.69,-73.2 1073.79,-76.37 1073.57,-69.38"/>
</a>
</g>
</g>
<!-- Node15&#45;&gt;Node17 -->
<g id="edge27_Node000015_Node000017" class="edge">
<title>Node15&#45;&gt;Node17</title>
<g id="a_edge27_Node000015_Node000017"><a xlink:title=" ">
<path fill="none" stroke="#63b8ff" d="M1074.17,-73.98C1207.13,-72.17 1576.9,-64.2 1882.5,-30 1894.7,-28.63 1907.84,-26.61 1919.92,-24.52"/>
<polygon fill="#63b8ff" stroke="#63b8ff" points="1073.84,-70.49 1063.89,-74.12 1073.94,-77.49 1073.84,-70.49"/>
</a>
</g>
</g>
<!-- Node18 -->
<g id="Node000018" class="node">
<title>Node18</title>
<g id="a_Node000018"><a xlink:href="uart__daisy__chain__example_8cpp.html" target="_top" xlink:title="Example demonstrating daisy&#45;chained TMC5160 drivers in UART mode.">
<polygon fill="white" stroke="#666666" points="1775,-24.5 1608,-24.5 1608,-5.5 1775,-5.5 1775,-24.5"/>
<text text-anchor="middle" x="1691.5" y="-12.5" font-family="Helvetica,sans-Serif" font-size="10.00">uart_daisy_chain_example.cpp</text>
</a>
</g>
</g>
<!-- Node15&#45;&gt;Node18 -->
<g id="edge28_Node000015_Node000018" class="edge">
<title>Node15&#45;&gt;Node18</title>
<g id="a_edge28_Node000015_Node000018"><a xlink:title=" ">
<path fill="none" stroke="#63b8ff" d="M1073.81,-71.83C1173.92,-66.25 1405.13,-52.01 1598.5,-30 1611.8,-28.49 1626.13,-26.51 1639.45,-24.51"/>
<polygon fill="#63b8ff" stroke="#63b8ff" points="1073.47,-68.34 1063.68,-72.39 1073.86,-75.33 1073.47,-68.34"/>
</a>
</g>
</g>
<!-- Node16&#45;&gt;Node15 -->
<g id="edge26_Node000016_Node000015" class="edge">
<title>Node16&#45;&gt;Node15</title>
<g id="a_edge26_Node000016_Node000015"><a xlink:title=" ">
<path fill="none" stroke="#63b8ff" d="M1806,-27.36C1801.85,-28.39 1797.6,-29.3 1793.5,-30 1651.61,-54.12 1201.51,-69.38 1063.81,-73.42"/>
<polygon fill="#63b8ff" stroke="#63b8ff" points="1807.24,-30.65 1815.96,-24.64 1805.39,-23.9 1807.24,-30.65"/>
</a>
</g>
</g>
</g>
</svg>
